<?xml version="1.0" standalone="no"?>
<!DOCTYPE svg PUBLIC "-//W3C//DTD SVG 1.1//EN" "http://www.w3.org/Graphics/SVG/1.1/DTD/svg11.dtd" >
<svg xmlns="http://www.w3.org/2000/svg">
<metadata>
This is a custom SVG webfont generated by Font Squirrel.
Copyright   : Copyright c Irmug 2009 All rights reserved
Designer    : Behnam
Foundry     : Irmug
Foundry URL : httpirmugorg
</metadata>
<defs>
<font id="XBZarRegular" horiz-adv-x="1200" >
<font-face units-per-em="2048" ascent="1638" descent="-410" />
<missing-glyph horiz-adv-x="545" />
<glyph unicode=" "  horiz-adv-x="545" />
<glyph unicode="&#x09;" horiz-adv-x="545" />
<glyph unicode="&#xa0;" horiz-adv-x="545" />
<glyph unicode="!" horiz-adv-x="629" d="M150 1305q0 87 28 141.5t86 54.5q29 0 51 -14.5t36 -40t21 -61.5t7 -80q0 -71 -14.5 -156.5t-32.5 -182t-32.5 -201t-14.5 -212.5q0 -9 1 -19.5t1 -27.5q0 -11 -5 -18t-18 -7q-12 0 -17 7t-5 18q0 17 1 27.5t1 19.5q0 108 -14.5 212.5t-32.5 201t-32.5 182t-14.5 156.5z M156 172q0 24 9.5 44t24.5 34.5t34.5 22.5t39.5 8t39.5 -8t35 -22.5t25 -34.5t9.5 -44q0 -23 -9.5 -42.5t-25 -34t-35 -23t-39.5 -8.5t-39.5 8.5t-34.5 23t-24.5 34t-9.5 42.5z" />
<glyph unicode="&#x22;" horiz-adv-x="788" d="M151 1303q-1 28 5 54.5t21 45t46 18.5q30 0 44.5 -18.5t20 -45t5 -54.5t-2.5 -48l-35 -417q-1 -6 -1.5 -17t-3.5 -21.5t-9.5 -18t-17.5 -7.5q-12 0 -19 7.5t-10 18t-4 21.5t-2 17l-35 417q-1 20 -2 48zM446 1303q-1 28 4.5 54.5t21 45t45.5 18.5t45 -18.5t20.5 -45 t5 -54.5t-2.5 -48l-35 -417q-1 -6 -2 -17t-4 -21.5t-9 -18t-18 -7.5t-18.5 7.5t-9.5 18t-4 21.5t-2 17l-35 417q-1 20 -2 48z" />
<glyph unicode="#" d="M96 442v107h239l43 291h-225v106h239l64 443h115l-66 -443h277l63 443h115l-66 -443h209v-106h-223l-43 -291h209v-107h-223l-64 -442h-115l66 442h-277l-63 -442h-115l66 442h-225zM448 549h276l43 291h-276z" />
<glyph unicode="$" horiz-adv-x="1139" d="M25 -168l61 143q25 58 41.5 124.5t26.5 133.5t14.5 129.5t6.5 112.5t1.5 83.5t-0.5 41.5q0 17 4 28t15 11q15 0 19.5 -19t9 -54.5t15.5 -85t40 -109.5l159 325q-25 16 -62.5 43t-73 67t-60.5 95t-25 127q0 79 30 142t80.5 107t116.5 67.5t138 23.5q52 0 94.5 -9t73.5 -20 l110 217h43l-117 -231q39 -20 76 -20q14 0 26 3t23.5 11t23 23.5t23.5 39.5l89 174h34q-30 -60 -51 -107t-34 -90t-19 -88t-6 -102q0 -48 1.5 -91t3 -78.5t2.5 -60t1 -34.5q0 -12 -4.5 -20t-18.5 -8q-12 0 -17 17.5t-11.5 48.5t-19.5 72t-42 89l-159 -332 q62 -28 116.5 -65.5t95.5 -84t65 -102t24 -119.5q0 -90 -35.5 -160t-93 -118t-131 -73t-148.5 -25q-37 0 -71 6.5t-63.5 16t-53 19.5t-41.5 17l-119 -252h-45l123 266q-23 11 -66 11q-32 0 -60 -19.5t-42 -50.5l-99 -207h-38zM301 322l14 -35q6 -15 14 -29.5t18.5 -30 t27.5 -37.5l211 431l-115 57zM356 1114q0 -21 6 -50t24 -61t50.5 -65.5t85.5 -65.5l197 408q-9 9 -24.5 18t-34.5 16.5t-40.5 12t-44.5 4.5q-47 0 -87 -15t-69.5 -43.5t-46 -68.5t-16.5 -90zM406 156q14 -18 35 -35t46 -30.5t52.5 -21.5t52.5 -8q66 0 113.5 25t78.5 63 t45.5 83.5t14.5 86.5q0 98 -57.5 168t-163.5 115zM555 854q29 -20 55.5 -33.5t57.5 -27.5l172 354q-9 15 -17.5 26.5t-18 23.5t-22 26t-30.5 32z" />
<glyph unicode="%" horiz-adv-x="1361" d="M50 1032q0 80 21.5 148t60.5 118t94.5 78.5t122.5 28.5q68 0 123 -28.5t94 -78.5t60.5 -118t21.5 -148t-21.5 -148t-60.5 -118t-94 -78.5t-123 -28.5q-67 0 -122.5 28.5t-94.5 78.5t-60.5 118t-21.5 148zM169 -16l950 1421h74l-951 -1421h-73zM214 1032q0 -73 9.5 -135 t27 -106.5t42.5 -69.5t56 -25t56 25t42.5 69.5t27 106.5t9.5 135q0 74 -9.5 135.5t-27 106t-42.5 69.5t-56 25t-56 -25t-42.5 -69.5t-27 -106t-9.5 -135.5zM713 356q0 80 21.5 148t60.5 118t94.5 78.5t122.5 28.5q68 0 123 -28.5t94 -78.5t60.5 -118t21.5 -148t-21.5 -148 t-60.5 -118t-94 -78t-123 -28q-67 0 -122.5 28t-94.5 78t-60.5 118t-21.5 148zM877 356q0 -73 9.5 -135t27 -106.5t42.5 -69.5t56 -25t56 25t42.5 69.5t27 106.5t9.5 135q0 74 -9.5 135.5t-27 106t-42.5 69.5t-56 25t-56 -25t-42.5 -69.5t-27 -106t-9.5 -135.5z" />
<glyph unicode="&#x26;" horiz-adv-x="1518" d="M94 369q0 90 33 159t81.5 117t103.5 75.5t98 35.5q-28 21 -54.5 53t-47.5 71.5t-33.5 85.5t-12.5 95q0 82 26.5 148.5t73.5 113.5t111.5 72.5t140.5 25.5q56 0 112 -19.5t100.5 -58.5t72 -96.5t27.5 -132.5q0 -64 -22.5 -114.5t-59 -89t-83.5 -65t-95 -44.5l71 -58 q50 -40 98 -88t90.5 -100.5t79 -108t62.5 -110.5q60 96 84.5 173.5t24.5 133.5q0 44 -11.5 68.5t-28.5 38t-37 18.5t-37 8.5t-28.5 9t-11.5 19.5q0 8 7.5 13t23.5 5q28 0 75.5 -2t110.5 -2q41 0 72 0.5t56 1.5t45 1.5t38 0.5q25 0 35 -4.5t10 -15.5q0 -13 -9.5 -18 t-25.5 -8.5t-37 -8t-44.5 -17t-47 -35t-45.5 -61.5l-201 -362q22 -51 49.5 -95t59 -76.5t67.5 -50.5t74 -18q56 0 92 29.5t58 83.5q6 17 11.5 25t14.5 8q7 0 12 -5t5 -16q0 -9 -6 -28t-18.5 -42.5t-32.5 -48.5t-47 -45.5t-62.5 -33.5t-79.5 -13q-48 0 -89.5 11.5t-78.5 34 t-71 56.5t-68 78q-45 -40 -89.5 -73.5t-94.5 -57t-108.5 -36.5t-133.5 -13q-114 0 -199 37.5t-142 96t-85.5 129.5t-28.5 139zM279 471q0 -84 26.5 -162t74.5 -137.5t115 -95t148 -35.5q85 0 163 35t146 104q-47 78 -97.5 148.5t-111 137.5t-134 131.5t-167.5 131.5 q-85 -14 -124 -80.5t-39 -177.5zM397 1157q0 -53 19.5 -98t52.5 -85t76.5 -76t91.5 -71q91 41 138.5 108.5t47.5 170.5q0 77 -17.5 130t-47.5 86t-69.5 47.5t-82.5 14.5q-41 0 -79 -17t-67 -47.5t-46 -72t-17 -90.5z" />
<glyph unicode="'" horiz-adv-x="493" d="M151 1303q-1 28 4.5 54.5t20.5 45t46 18.5q30 0 45 -18.5t20.5 -45t5 -54.5t-2.5 -48l-35 -417q-1 -6 -2 -17t-4 -21.5t-9 -18t-18 -7.5t-18.5 7.5t-9.5 18t-4 21.5t-2 17l-35 417q-1 20 -2 48z" />
<glyph unicode="(" horiz-adv-x="1002" d="M150 530q0 132 21.5 247t61.5 214t97 182t127 152q39 38 82.5 69.5t83 54t71.5 34.5t50 12q5 0 6.5 -3.5t1.5 -6.5q0 -6 -12 -11.5t-33.5 -16.5t-52.5 -31.5t-70 -55.5q-126 -115 -192 -329t-66 -511q0 -295 66.5 -509.5t191.5 -329.5q39 -35 70 -55.5t52.5 -32t33.5 -17 t12 -10.5q0 -3 -1.5 -6.5t-6.5 -3.5q-18 0 -50 12t-71.5 34.5t-83 53.5t-82.5 70q-70 69 -127 152t-97 182t-61.5 213.5t-21.5 246.5z" />
<glyph unicode=")" horiz-adv-x="952" d="M100 -424q0 5 12 10.5t34 17t53 32t69 55.5q126 115 192 329.5t66 509.5q0 296 -66 510.5t-192 329.5q-38 35 -69 55.5t-53 31.5t-34 16.5t-12 11.5q0 3 1.5 6.5t6.5 3.5q18 0 50.5 -12t72 -34.5t82.5 -54t82 -69.5q71 -69 128 -152t96.5 -182t61 -214t21.5 -247 t-21.5 -246.5t-61 -213.5t-96.5 -182t-128 -152q-39 -39 -82 -70t-82.5 -53.5t-72 -34.5t-50.5 -12q-5 0 -6.5 3.5t-1.5 6.5z" />
<glyph unicode="*" horiz-adv-x="1005" d="M150 932q0 29 25 52.5t71 35.5q22 6 46 7t47 1.5t45.5 2.5t41.5 9q-17 -12 -29 -29.5t-23.5 -37.5t-24.5 -41t-31 -41q-19 -20 -41 -33.5t-45 -13.5q-18 0 -33 7.5t-26 19.5t-17 28t-6 33zM150 1206q0 17 6 32.5t17 27.5t26 19t33 7q23 0 45 -12.5t41 -34.5 q18 -21 30.5 -42t24 -40.5t24 -36t29.5 -28.5q-19 8 -41.5 10t-45.5 2.5t-47 1.5t-46 6q-46 11 -71 35t-25 53zM396 805q0 35 12.5 64t27.5 54.5t28 50t14 50.5q1 -26 13.5 -50.5t27.5 -50t27.5 -54.5t12.5 -64q0 -43 -23 -65.5t-58 -22.5q-36 0 -59 22.5t-23 65.5z M396 1333q0 44 23 66t59 22q35 0 58 -22t23 -66q0 -35 -12.5 -64t-27.5 -54.5t-27.5 -50t-13.5 -50.5q-1 26 -14 50.5t-28 50t-27.5 54.5t-12.5 64zM529 1040q19 -7 41.5 -9t45.5 -2.5t47 -1.5t46 -7q46 -12 71 -35.5t25 -52.5q0 -17 -6 -33t-17 -28t-26 -19.5t-33 -7.5 q-23 0 -45 13.5t-41 33.5q-18 20 -31 41t-24.5 41t-23.5 37.5t-29 29.5zM529 1098q17 12 29.5 28.5t24 36t24 40.5t30.5 42q19 22 41 34.5t45 12.5q18 0 33 -7t26 -19t17 -27.5t6 -32.5q0 -29 -25 -53t-71 -35q-22 -5 -46 -6t-47 -1.5t-45.5 -2.5t-41.5 -10z" />
<glyph unicode="+" d="M135 395v140h395v395h139v-395h395v-140h-395v-395h-139v395h-395z" />
<glyph unicode="," horiz-adv-x="569" d="M168 172q0 21 7.5 40.5t22.5 34.5t37.5 24.5t51.5 9.5q36 0 64 -15t47.5 -41t29.5 -61t10 -76q0 -44 -13.5 -90.5t-35.5 -90.5t-48.5 -82.5t-52.5 -67.5t-48 -45.5t-35 -16.5q-8 0 -14.5 2.5t-6.5 13.5q0 9 11.5 23.5t29 33.5t37.5 43.5t37.5 53t29 61.5t11.5 70 q0 25 -6 45.5t-29 26.5q-17 5 -40.5 8.5t-45 13t-36.5 28.5t-15 54z" />
<glyph unicode="-" d="M300 385v156h600v-156h-600z" />
<glyph unicode="." horiz-adv-x="617" d="M150 172q0 24 9.5 44t25 34.5t35 22.5t39.5 8t39.5 -8t34.5 -22.5t24.5 -34.5t9.5 -44q0 -23 -9.5 -42.5t-24.5 -34t-34.5 -23t-39.5 -8.5t-39.5 8.5t-35 23t-25 34t-9.5 42.5z" />
<glyph unicode="/" horiz-adv-x="569" d="M-72 -33l574 1454h139l-573 -1454h-140z" />
<glyph unicode="&#x338;" horiz-adv-x="569" d="M-72 -33l574 1454h139l-573 -1454h-140z" />
<glyph unicode="0" d="M112 694q0 96 18 186t50.5 169t77.5 144.5t99 112.5t115.5 73t126.5 26t126.5 -26t115.5 -73t99.5 -112.5t78 -144.5t50.5 -169t18 -186q0 -144 -39.5 -272.5t-107 -226t-155.5 -154.5t-186 -57q-65 0 -126.5 26t-115.5 73t-99 112.5t-77.5 144.5t-50.5 168.5t-18 185.5z M317 694q0 -173 16.5 -300t51 -210t88 -123.5t126.5 -40.5q74 0 127.5 47.5t88 135.5t51 212.5t16.5 278.5q0 173 -16.5 300t-51 210t-88 123.5t-127.5 40.5q-73 0 -126.5 -47.5t-88 -135t-51 -212t-16.5 -279.5z" />
<glyph unicode="1" d="M188 1223q0 14 18 19.5t52 10t82 11.5t108 24t131 47.5t150 81.5v-1200q0 -54 9 -88t33.5 -52.5t66.5 -25t108 -6.5q23 0 36.5 -1.5t21 -5t9.5 -8.5t2 -12q0 -14 -6 -18t-20 -4q-65 0 -154.5 2t-204.5 2q-114 0 -208 -2t-187 -2q-14 0 -20.5 4t-6.5 18q0 7 2.5 12t10 8.5 t21 5t36.5 1.5q80 0 129.5 6.5t77.5 25t37.5 52.5t9.5 88v934q0 26 -9 37.5t-34 11.5h-272q-29 0 -29 23z" />
<glyph unicode="2" d="M110 0q8 96 42.5 172t86 137.5t115 112t128.5 97t126.5 92.5t109 98t76.5 113.5t29 138.5q0 65 -21 121.5t-61.5 98t-100 65.5t-135.5 24q-47 0 -89 -13t-78 -35.5t-65.5 -52t-51.5 -63.5q-16 -25 -26.5 -46t-17.5 -36t-13 -23t-13 -8q-11 0 -13.5 7.5t-2.5 15.5 q0 19 12.5 55t38 79t64 88.5t91.5 82.5t120 60.5t149 23.5q77 0 152 -27.5t134 -78.5t95.5 -124t36.5 -163q0 -79 -25 -139t-68 -108t-100.5 -87.5t-121.5 -77.5t-132 -77.5t-131.5 -88.5t-120 -109.5t-98.5 -140.5h557q46 0 78 9t54.5 23t36 30t22.5 30t15 24t11 11 q12 2 16.5 -4t4.5 -18q0 -6 -11 -39t-26.5 -77t-32.5 -91t-29 -82h-817z" />
<glyph unicode="3" d="M69 252q0 45 28.5 69.5t72.5 24.5q27 0 50 -12.5t41.5 -34.5t32.5 -51t23 -62q19 -71 68 -112t143 -41q63 0 122 23.5t105 67t73.5 106.5t27.5 141q0 45 -14 95t-38.5 95t-58 81t-72.5 54q-42 20 -75.5 23.5t-56.5 3.5t-35.5 1.5t-12.5 16.5q0 13 17.5 18t43.5 12t57 20 t57 42t43.5 78t17.5 127q0 64 -17.5 112.5t-50 81.5t-77.5 49.5t-99 16.5t-94.5 -14.5t-70.5 -36.5t-50.5 -48t-34.5 -48t-23.5 -36.5t-17.5 -14.5q-14 0 -14 18q0 4 8.5 26.5t27.5 54.5t48.5 68t72.5 67t99 51t127 20q73 0 136.5 -25.5t111 -69t75 -100.5t27.5 -120 q0 -67 -25.5 -125.5t-87.5 -120.5q110 -76 164.5 -171t54.5 -216q0 -38 -12 -88t-38.5 -102.5t-70 -103t-105.5 -90.5t-144.5 -64.5t-188.5 -24.5q-90 0 -162 25.5t-123 64.5t-78.5 86.5t-27.5 91.5z" />
<glyph unicode="4" d="M77 467l664 922h106v-889h222l-37 -107h-185v-217q0 -44 13.5 -68.5t33.5 -36.5t43.5 -15.5t43.5 -6t33.5 -8t13.5 -21.5q0 -9 -6.5 -16.5t-20.5 -7.5q-18 0 -38 0.5t-48.5 1.5t-68 1.5t-97.5 0.5t-97.5 -0.5t-68 -1.5t-48.5 -1.5t-38 -0.5q-14 0 -20 7.5t-6 16.5 q0 16 13.5 21.5t33.5 8t43 6t43 15.5t33.5 36.5t13.5 68.5v217h-541zM159 500h492v674h-4z" />
<glyph unicode="5" d="M143 219q0 38 24 63t62 25q45 0 72 -20.5t47.5 -50.5t39 -66t46 -66t68.5 -50.5t106 -20.5q55 0 105.5 24t89.5 65t62 97.5t23 120.5q0 81 -24.5 144t-67 111.5t-99 82.5t-120 55t-131 31t-131.5 10q-23 0 -46 -0.5t-44 -3.5l18 84q15 70 26.5 132.5t21 125.5t17.5 130.5 t17 146.5h549q43 0 63.5 12t30 26.5t14.5 26.5t17 12q16 0 16 -16q0 -4 -3 -14t-11 -35.5t-22.5 -72t-38.5 -124.5h-596l-37 -258q20 3 48.5 3.5t65.5 0.5q90 0 171 -20t149 -55.5t123 -83t93 -102.5t58.5 -115t20.5 -119q0 -96 -39.5 -181.5t-108 -150t-161 -102 t-197.5 -37.5q-89 0 -160.5 22.5t-122 57t-77.5 76t-27 79.5z" />
<glyph unicode="6" d="M118 586q0 113 33 209t87 176t123 144.5t142 114.5t143 86t126 59.5t92.5 34.5t40.5 11q16 0 16 -16q0 -9 -28 -21.5t-75 -36.5t-108.5 -64.5t-128.5 -106.5q-45 -45 -82.5 -92.5t-68 -102t-53.5 -118.5t-40 -142l5 -4q24 29 56.5 53.5t70 41.5t78.5 26.5t81 9.5 q82 0 147 -19.5t115.5 -52t86.5 -75.5t59 -89t34 -92t11 -86q0 -99 -36 -181.5t-99.5 -142.5t-151 -93t-190.5 -33q-61 0 -120.5 19t-113.5 55.5t-100.5 89.5t-80 120t-52.5 147t-19 171zM323 475q0 -92 14 -172.5t48 -140.5t89.5 -94.5t139.5 -34.5q130 0 196 94t66 283 q0 81 -16 152t-49.5 123.5t-86 83t-126.5 30.5q-39 0 -77.5 -10.5t-72.5 -29.5t-62 -45.5t-47 -58.5q-3 -10 -6 -24t-5 -35t-3.5 -50.5t-1.5 -70.5z" />
<glyph unicode="7" d="M147 1110q0 6 5 19t13 36l84 224h752l45 -86q-118 -166 -198 -334.5t-128.5 -335.5t-69 -330t-20.5 -319q-15 6 -38.5 11t-73.5 5q-25 0 -43 -1.5t-31 -3.5t-22 -5t-17 -6q1 123 23.5 238.5t61.5 223.5t90.5 209.5t110.5 196t123 182.5t126 170h-617q-45 0 -72.5 -17 t-43.5 -37t-25.5 -37t-18.5 -17q-11 0 -13.5 3t-2.5 11z" />
<glyph unicode="8" d="M106 362q0 64 22.5 120t60.5 103.5t88 84.5t105 63q-35 23 -70.5 55t-64 71t-46 84.5t-17.5 96.5q0 78 34 145t93.5 116t140 76.5t174.5 27.5q73 0 142.5 -24.5t123.5 -68t86.5 -104.5t32.5 -133q0 -57 -18 -107.5t-48 -92.5t-69.5 -75.5t-81.5 -58.5q73 -34 126 -76.5 t87 -87.5t50 -91.5t16 -88.5q0 -69 -20 -126.5t-54.5 -103.5t-82.5 -80t-103.5 -57t-116.5 -34.5t-123 -11.5q-95 0 -180 30t-148.5 81t-101 120t-37.5 147zM233 389q0 -63 21 -128.5t63.5 -119t107.5 -87.5t152 -34q70 0 127 20.5t98 57t63.5 88t22.5 113.5 q0 63 -22.5 110.5t-59.5 84t-86 65t-101.5 53.5t-106 49t-99.5 52q-38 -18 -71 -50t-57 -74.5t-38 -93t-14 -106.5zM368 1118q0 -64 31.5 -116t85.5 -95t126.5 -79t153.5 -70q65 45 102.5 123t37.5 196q0 69 -21.5 123t-58 91.5t-86.5 57t-107 19.5q-64 0 -113 -21 t-82.5 -55.5t-51 -80t-17.5 -93.5z" />
<glyph unicode="9" d="M98 954q0 99 36 182t100 143t151 93t190 33q92 0 179 -43t155 -121.5t109.5 -189.5t41.5 -248q0 -113 -33 -209t-87 -176t-123 -144.5t-141.5 -115t-143 -86.5t-126.5 -59.5t-92 -34.5t-40 -11q-16 0 -16 17q0 9 28 21t75 36.5t108.5 65t128.5 106.5q45 45 82.5 92.5 t67.5 102t53 118.5t40 142l-4 4q-24 -29 -56.5 -53t-70 -41.5t-78.5 -27t-82 -9.5q-81 0 -146 19.5t-115.5 52t-86.5 75t-59 88.5t-34 92t-11 86zM303 979q0 -81 16 -152t49.5 -123.5t86.5 -83t126 -30.5q39 0 77.5 10.5t72.5 29t62 45t46 58.5q3 10 6 24.5t5.5 35.5t4 50.5 t1.5 69.5q0 92 -14 173t-48 141t-89.5 94.5t-139.5 34.5q-130 0 -196 -94t-66 -283z" />
<glyph unicode=":" horiz-adv-x="617" d="M150 172q0 24 9.5 44t25 34.5t35 22.5t39.5 8t39.5 -8t34.5 -22.5t24.5 -34.5t9.5 -44q0 -23 -9.5 -42.5t-24.5 -34t-34.5 -23t-39.5 -8.5t-39.5 8.5t-35 23t-25 34t-9.5 42.5zM150 807q0 24 9.5 44t25 34.5t35 22.5t39.5 8t39.5 -8t34.5 -22.5t24.5 -34.5t9.5 -44 q0 -23 -9.5 -43t-24.5 -34.5t-34.5 -23t-39.5 -8.5t-39.5 8.5t-35 23t-25 34.5t-9.5 43z" />
<glyph unicode=";" horiz-adv-x="569" d="M168 172q0 21 7.5 40.5t22.5 34.5t37.5 24.5t51.5 9.5q36 0 64 -15t47.5 -41t29.5 -61t10 -76q0 -44 -13.5 -90.5t-35.5 -90.5t-48.5 -82.5t-52.5 -67.5t-48 -45.5t-35 -16.5q-8 0 -14.5 2.5t-6.5 13.5q0 9 11.5 23.5t29 33.5t37.5 43.5t37.5 53t29 61.5t11.5 70 q0 25 -6 45.5t-29 26.5q-17 5 -40.5 8.5t-45 13t-36.5 28.5t-15 54zM176 807q0 24 9.5 44t25 34.5t35 22.5t39.5 8t39.5 -8t34.5 -22.5t24.5 -34.5t9.5 -44q0 -23 -9.5 -43t-24.5 -34.5t-34.5 -23t-39.5 -8.5t-39.5 8.5t-35 23t-25 34.5t-9.5 43z" />
<glyph unicode="&#x3c;" d="M135 397v135l929 414v-139l-762 -342l762 -342v-139z" />
<glyph unicode="=" d="M135 207v139h929v-139h-929zM135 584v139h929v-139h-929z" />
<glyph unicode="&#x3e;" d="M135 -16v139l761 342l-761 342v139l929 -414v-135z" />
<glyph unicode="?" horiz-adv-x="1022" d="M50 1207q0 50 22 102.5t64.5 95.5t106 71t146.5 28q75 0 137 -22.5t107 -65t70 -104.5t25 -141q-2 -53 -25 -106t-57 -107.5t-73.5 -111.5t-74.5 -118q-19 -34 -36.5 -72.5t-30 -76.5t-20.5 -74.5t-9 -66.5h-44q1 20 4 49t7.5 62.5t9.5 69t11 68t12 59.5t12 44 q12 35 33.5 78t43 91t37 98.5t15.5 100.5q0 49 -12.5 98t-38 88t-64.5 63.5t-92 24.5q-30 0 -61.5 -12t-56.5 -30t-41 -39.5t-16 -40.5q0 -10 12 -28.5t27 -41t27 -45.5t12 -41t-7 -34t-18.5 -28.5t-27 -19.5t-33.5 -7q-20 0 -38.5 9t-33 27t-23 44.5t-8.5 61.5zM272 172 q0 24 9.5 44t25 34.5t35 22.5t39.5 8t39.5 -8t34.5 -22.5t24.5 -34.5t9.5 -44q0 -23 -9.5 -42.5t-24.5 -34t-34.5 -23t-39.5 -8.5t-39.5 8.5t-35 23t-25 34t-9.5 42.5z" />
<glyph unicode="@" horiz-adv-x="1638" d="M88 680q0 103 25.5 197.5t73 177t115.5 150t153.5 115.5t186.5 74.5t214 26.5q99 0 188.5 -21t167 -60.5t140 -95t106.5 -124.5t68 -149.5t24 -169.5q0 -54 -11.5 -112t-34.5 -113.5t-56 -106t-77 -88t-97.5 -60t-116.5 -22.5q-53 0 -89 19.5t-58 45t-31.5 50.5t-9.5 35 h-4q-15 -27 -38 -54t-53.5 -48t-68 -34.5t-82.5 -13.5q-96 0 -150.5 66.5t-54.5 187.5q0 52 13.5 110.5t38.5 115.5t61.5 108.5t82.5 91t101.5 63t118.5 23.5q30 0 55 -9t43.5 -24.5t31.5 -35t19 -40.5h4l21 84h141l-121 -462q-8 -32 -14 -64.5t-6 -67.5q0 -15 4 -29.5 t13.5 -26t25.5 -18.5t39 -7q46 0 85 19.5t71 52t56.5 76t41 91.5t25 98.5t8.5 96.5q0 118 -44.5 222.5t-125.5 182.5t-195.5 123t-255.5 45q-127 0 -237 -52.5t-191.5 -145t-128.5 -219t-47 -275.5q0 -137 44 -254t125 -202.5t196.5 -134t259.5 -48.5q65 0 122.5 8t109 21.5 t97.5 31.5t88 39l27 -59q-41 -22 -93.5 -43t-112.5 -37t-124 -25.5t-129 -9.5q-106 0 -205 24.5t-185 70t-156.5 109.5t-121 143.5t-78.5 172t-28 193.5zM662 555q0 -47 8.5 -79.5t24.5 -52.5t37.5 -29t47.5 -9q39 0 74 23t65.5 61t55 87t42 102t27 105t9.5 95q0 53 -28 87 t-85 34q-49 0 -98.5 -37.5t-89.5 -98t-65 -136.5t-25 -152z" />
<glyph unicode="A" horiz-adv-x="1366" d="M-29 18q0 15 13.5 19.5t36 10.5t52.5 20.5t64 50.5q48 51 93 137t87 199l265 719q-10 11 -20.5 20t-19.5 16t-14.5 12t-5.5 9q0 2 9 10t22.5 22t29.5 34t31 46q19 33 27.5 55.5t12.5 35.5t6.5 18.5t9.5 5.5q11 0 14.5 -14t15.5 -45l508 -1243q15 -36 33 -56.5t36.5 -31.5 t36 -15t31 -7.5t21.5 -7.5t8 -18q0 -12 -7 -18t-26 -6q-8 0 -24.5 0.5t-46 1.5t-75.5 1.5t-114 0.5q-48 0 -81 -0.5t-55.5 -1.5t-36.5 -1.5t-23 -0.5q-19 0 -25 7.5t-6 16.5q0 13 10.5 18.5t26.5 8.5t34.5 5.5t34.5 10.5t26.5 23t10.5 43q0 31 -7.5 58.5t-22.5 64.5 l-111 272h-463l-35 -118q-15 -50 -22.5 -97t-7.5 -82q0 -31 5.5 -55t16 -43t26.5 -33.5t36 -27.5q17 -11 33 -15.5t29 -8t20.5 -7.5t7.5 -14q0 -14 -8 -20.5t-33 -6.5q-10 0 -26.5 0.5t-43 1.5t-64 1.5t-89.5 0.5q-48 0 -82 -0.5t-60.5 -1.5t-48 -1.5t-45.5 -0.5 q-17 0 -24 7t-7 15zM410 561h432l-234 574z" />
<glyph unicode="B" horiz-adv-x="1290" d="M74 20q0 16 13.5 21.5t33.5 8t43 6t43 15.5t33.5 36.5t13.5 68.5v1036q0 45 -13.5 69.5t-33.5 36.5t-43 15.5t-43 6t-33.5 7.5t-13.5 21q0 9 6 17t20 8q19 0 39 -0.5t48.5 -1.5t68 -1.5t96.5 -0.5q42 0 79 0.5t73.5 1.5t74 1.5t80.5 0.5q130 0 223 -28t153 -75.5t88 -109 t28 -129.5q0 -72 -31 -128t-88 -95.5t-137 -62.5t-178 -30v-4q111 -4 203 -29.5t158 -70.5t102.5 -109t36.5 -145q0 -108 -39.5 -181.5t-108.5 -117.5t-162 -63t-200 -19q-91 0 -178 2t-177 2q-57 0 -96.5 -0.5t-68 -1.5t-48.5 -1.5t-39 -0.5q-14 0 -20 7.5t-6 16.5z M451 215q0 -51 9.5 -84t34 -52t66 -26.5t105.5 -7.5q79 0 143 16.5t109 55.5t69.5 102t24.5 156q0 171 -108 256.5t-324 85.5h-129v-502zM451 754h141q175 0 268.5 72t93.5 233q0 74 -23.5 127.5t-65.5 88t-100.5 51.5t-129.5 17h-184v-589z" />
<glyph unicode="C" horiz-adv-x="1442" d="M94 694q0 103 28 197t77 174.5t114.5 146.5t139.5 112.5t154 71.5t157 25q86 0 152 -17.5t116 -38.5t87 -38.5t65 -17.5q20 0 30 7.5t15 19.5t7.5 25t5.5 25t9.5 19.5t20.5 7.5q11 0 17.5 -8t6.5 -25v-512q0 -17 -6.5 -24.5t-17.5 -7.5q-17 0 -23 20.5t-14 67.5 q-15 87 -54 167.5t-99 143t-139.5 100t-174.5 37.5q-97 0 -179.5 -44t-142.5 -130t-93.5 -212.5t-33.5 -291.5q0 -129 19 -230t51.5 -176t76 -127t92 -84t99.5 -46.5t99 -14.5q106 0 191 35.5t148 97t103 144.5t55 178q6 47 25 47q11 0 18 -8t7 -25v-485q0 -33 -29 -33 q-16 0 -23.5 15t-15.5 33t-22.5 33t-45.5 15q-27 0 -61 -15t-83.5 -33t-118 -33t-165.5 -15q-96 0 -181 26.5t-156.5 74.5t-128.5 115t-97 148t-61 173t-21 190z" />
<glyph unicode="&#x216d;" horiz-adv-x="1442" d="M94 694q0 103 28 197t77 174.5t114.5 146.5t139.5 112.5t154 71.5t157 25q86 0 152 -17.5t116 -38.5t87 -38.5t65 -17.5q20 0 30 7.5t15 19.5t7.5 25t5.5 25t9.5 19.5t20.5 7.5q11 0 17.5 -8t6.5 -25v-512q0 -17 -6.5 -24.5t-17.5 -7.5q-17 0 -23 20.5t-14 67.5 q-15 87 -54 167.5t-99 143t-139.5 100t-174.5 37.5q-97 0 -179.5 -44t-142.5 -130t-93.5 -212.5t-33.5 -291.5q0 -129 19 -230t51.5 -176t76 -127t92 -84t99.5 -46.5t99 -14.5q106 0 191 35.5t148 97t103 144.5t55 178q6 47 25 47q11 0 18 -8t7 -25v-485q0 -33 -29 -33 q-16 0 -23.5 15t-15.5 33t-22.5 33t-45.5 15q-27 0 -61 -15t-83.5 -33t-118 -33t-165.5 -15q-96 0 -181 26.5t-156.5 74.5t-128.5 115t-97 148t-61 173t-21 190z" />
<glyph unicode="D" horiz-adv-x="1442" d="M74 20q0 16 13.5 21.5t33.5 8t43 6t43 15.5t33.5 36.5t13.5 68.5v1036q0 45 -13.5 69.5t-33.5 36.5t-43 15.5t-43 6t-33.5 7.5t-13.5 21q0 9 6 17t20 8q19 0 39 -0.5t48.5 -1.5t68 -1.5t96.5 -0.5q23 0 51 0.5t58 1.5t58.5 1.5t51.5 0.5q202 0 348.5 -58t242 -156 t141 -228.5t45.5 -274.5q0 -145 -44.5 -269.5t-130.5 -215.5t-213 -143t-292 -52q-44 0 -80.5 0.5t-73 1.5t-75.5 1.5t-87 0.5q-57 0 -96.5 -0.5t-68 -1.5t-48.5 -1.5t-39 -0.5q-14 0 -20 7.5t-6 16.5zM451 287q0 -66 10 -112t38 -75t76.5 -42t124.5 -13q85 0 151 24.5 t115 67.5t83 100.5t55 123.5t30 137t9 141q0 166 -32.5 296.5t-101 221t-174 138.5t-251.5 48h-133v-1056z" />
<glyph unicode="&#x216e;" horiz-adv-x="1442" d="M74 20q0 16 13.5 21.5t33.5 8t43 6t43 15.5t33.5 36.5t13.5 68.5v1036q0 45 -13.5 69.5t-33.5 36.5t-43 15.5t-43 6t-33.5 7.5t-13.5 21q0 9 6 17t20 8q19 0 39 -0.5t48.5 -1.5t68 -1.5t96.5 -0.5q23 0 51 0.5t58 1.5t58.5 1.5t51.5 0.5q202 0 348.5 -58t242 -156 t141 -228.5t45.5 -274.5q0 -145 -44.5 -269.5t-130.5 -215.5t-213 -143t-292 -52q-44 0 -80.5 0.5t-73 1.5t-75.5 1.5t-87 0.5q-57 0 -96.5 -0.5t-68 -1.5t-48.5 -1.5t-39 -0.5q-14 0 -20 7.5t-6 16.5zM451 287q0 -66 10 -112t38 -75t76.5 -42t124.5 -13q85 0 151 24.5 t115 67.5t83 100.5t55 123.5t30 137t9 141q0 166 -32.5 296.5t-101 221t-174 138.5t-251.5 48h-133v-1056z" />
<glyph unicode="E" horiz-adv-x="1290" d="M74 20q0 16 13.5 22t33.5 8t43 5.5t43 15.5t33.5 36.5t13.5 68.5v1036q0 45 -13.5 69.5t-33.5 36.5t-43 15.5t-43 6t-33.5 7.5t-13.5 21q0 9 6 17t20 8q19 0 39 -0.5t48.5 -1.5t68 -1.5t96.5 -0.5h167q72 0 129.5 0.5t105 1t92 1t90.5 1t102 0.5l127 -387q8 -26 11.5 -37 t3.5 -19t-5 -13t-16 -5t-17.5 11.5t-17.5 39.5q-48 125 -111 197t-145 108t-185 45.5t-232 9.5v-589q73 0 134.5 12.5t106.5 43t70.5 83t25.5 133.5q0 22 4.5 31.5t16.5 9.5q14 0 17 -9.5t3 -31.5v-602q0 -22 -3 -31.5t-17 -9.5q-12 0 -16.5 9.5t-4.5 31.5q0 84 -25.5 140 t-70.5 90t-106.5 48.5t-134.5 14.5v-541q0 -34 7 -59t24.5 -41t48 -23.5t77.5 -7.5q100 0 185.5 28.5t155 78t122 117t86.5 145.5q16 38 24 62.5t13.5 38.5t9.5 20t13 6q16 0 15 -19q0 -8 -5 -34.5t-13 -55.5l-106 -436q-94 1 -186 1.5t-185 1t-188.5 1t-196.5 0.5 q-57 0 -96.5 -0.5t-68 -1.5t-48.5 -1.5t-39 -0.5q-14 0 -20 7.5t-6 16.5z" />
<glyph unicode="F" horiz-adv-x="1176" d="M74 20q0 16 13.5 22t33.5 8t43 5.5t43 15.5t33.5 36.5t13.5 68.5v1036q0 45 -13.5 69.5t-33.5 36.5t-43 15.5t-43 6t-33.5 7.5t-13.5 21q0 9 6 17t20 8q19 0 39 -0.5t48.5 -1.5t68 -1.5t96.5 -0.5h167q72 0 129 0.5t102 0.5q46 2 88 2h84q42 0 92 1l127 -387 q8 -26 11 -37t4 -19q0 -8 -5 -13t-16 -5t-17.5 11.5t-17.5 39.5q-48 125 -111 197t-142.5 108t-177.5 45.5t-218 9.5v-589q73 0 134.5 12.5t106.5 43t70.5 83t25.5 133.5q0 22 4.5 31.5t16.5 9.5q14 0 17 -9.5t3 -31.5v-602q0 -22 -3 -31.5t-17 -9.5q-12 0 -16.5 9.5 t-4.5 31.5q0 84 -25.5 140t-70.5 90t-106.5 48.5t-134.5 14.5v-541q0 -44 13.5 -68.5t33.5 -36.5t43 -15.5t43 -6t33.5 -8t13.5 -21.5q0 -9 -6.5 -16.5t-20.5 -7.5q-18 0 -38 0.5t-48.5 1.5t-68 1.5t-97.5 0.5q-57 0 -96.5 -0.5t-68 -1.5t-48.5 -1.5t-39 -0.5q-14 0 -20 7.5 t-6 16.5z" />
<glyph unicode="G" horiz-adv-x="1554" d="M94 680q0 107 26 203t72.5 178.5t110 149t138 113t157 72t166.5 25.5q85 0 148.5 -16t113 -35t90 -35t80.5 -16q25 0 34.5 14t15 31t11 31t21.5 14q11 0 18 -8t7 -25v-514q0 -17 -6 -22.5t-17 -5.5q-14 0 -18.5 14t-8 42t-11.5 69t-28 96q-30 84 -79.5 144t-109 98.5 t-125.5 56.5t-130 18q-105 0 -189 -45t-142 -132t-89 -213t-31 -288q0 -150 33.5 -274.5t95.5 -214t150.5 -139.5t198.5 -50q366 0 366 373q0 60 -14.5 95.5t-36.5 55.5t-47 28t-47 12.5t-36.5 10t-14.5 19.5q0 13 6.5 21t21.5 8q24 0 47 -0.5t52.5 -1.5t69.5 -1.5t98 -0.5 q60 0 101.5 0.5t70.5 1.5t49.5 1.5t38.5 0.5q26 0 26 -25q0 -16 -13.5 -21t-33.5 -7.5t-43 -6t-43 -15.5t-33.5 -36.5t-13.5 -68.5v-479h-68l-63 124q-31 -22 -75.5 -46t-101 -44.5t-123 -33.5t-140.5 -13q-92 0 -180 22.5t-166 65t-143.5 104.5t-113 141.5t-74 175 t-26.5 204.5z" />
<glyph unicode="H" horiz-adv-x="1479" d="M66 20q0 16 13.5 22t33.5 8t43 5.5t43 15.5t33.5 36.5t13.5 68.5v1036q0 45 -13.5 69.5t-33.5 36.5t-43 15.5t-43 6t-33.5 7.5t-13.5 21q0 9 6 17t20 8q18 0 38 -0.5t48.5 -1.5t68 -1.5t97.5 -0.5t97.5 0.5t68 1.5t48.5 1.5t38 0.5q14 0 20.5 -8t6.5 -17q0 -16 -13.5 -21 t-33.5 -7.5t-43.5 -6t-43.5 -15.5t-33.5 -36.5t-13.5 -69.5v-458h594v458q0 45 -13.5 69.5t-33.5 36.5t-43 15.5t-43 6t-33.5 7.5t-13.5 21q0 9 6.5 17t20.5 8q18 0 38 -0.5t48.5 -1.5t68 -1.5t97.5 -0.5q57 0 96.5 0.5t68 1.5t48.5 1.5t38 0.5q14 0 20.5 -8t6.5 -17 q0 -16 -13.5 -21t-33.5 -7.5t-43 -6t-43 -15.5t-33.5 -36.5t-13.5 -69.5v-1036q0 -44 13.5 -68.5t33.5 -36.5t43 -15.5t43 -6t33.5 -8t13.5 -21.5q0 -9 -6.5 -16.5t-20.5 -7.5q-18 0 -38 0.5t-48.5 1.5t-68 1.5t-96.5 0.5q-58 0 -97.5 -0.5t-68 -1.5t-48.5 -1.5t-38 -0.5 q-14 0 -20.5 7.5t-6.5 16.5q0 16 13.5 22t33.5 8t43 5.5t43 15.5t33.5 36.5t13.5 68.5v541h-594v-541q0 -44 13.5 -68.5t33.5 -36.5t43.5 -15.5t43.5 -6t33.5 -8t13.5 -21.5q0 -9 -6.5 -16.5t-20.5 -7.5q-18 0 -38 0.5t-48.5 1.5t-68 1.5t-97.5 0.5t-97.5 -0.5t-68 -1.5 t-48.5 -1.5t-38 -0.5q-14 0 -20 7.5t-6 16.5z" />
<glyph unicode="I" horiz-adv-x="721" d="M82 20q0 16 13.5 22t33.5 8t43 5.5t43 15.5t33.5 36.5t13.5 68.5v1036q0 45 -13.5 69.5t-33.5 36.5t-43 15.5t-43 6t-33.5 7.5t-13.5 21q0 9 6.5 17t20.5 8q18 0 38 -0.5t48.5 -1.5t68 -1.5t96.5 -0.5q58 0 97.5 0.5t68 1.5t48.5 1.5t38 0.5q14 0 20.5 -8t6.5 -17 q0 -16 -13.5 -21t-33.5 -7.5t-43 -6t-43 -15.5t-33.5 -36.5t-13.5 -69.5v-1036q0 -44 13.5 -68.5t33.5 -36.5t43 -15.5t43 -6t33.5 -8t13.5 -21.5q0 -9 -6.5 -16.5t-20.5 -7.5q-18 0 -38 0.5t-48.5 1.5t-68 1.5t-97.5 0.5q-57 0 -96.5 -0.5t-68 -1.5t-48.5 -1.5t-38 -0.5 q-14 0 -20.5 7.5t-6.5 16.5z" />
<glyph unicode="J" horiz-adv-x="909" d="M0 213q0 23 6.5 45t20.5 39.5t36.5 28t53.5 10.5q52 0 80 -33t28 -80q0 -15 -3.5 -29.5t-8 -29.5t-8.5 -31.5t-4 -36.5q0 -18 9.5 -32.5t25.5 -25t38.5 -16.5t47.5 -6q50 0 84.5 13.5t56.5 37.5t31.5 58t9.5 76v1011q0 45 -13.5 69.5t-33.5 36.5t-43 15.5t-43 6 t-33.5 7.5t-13.5 21q0 9 6 17t20 8q18 0 38.5 -0.5t48.5 -1.5t68 -1.5t97 -0.5q58 0 97.5 0.5t68 1.5t48.5 1.5t38 0.5q14 0 20.5 -8t6.5 -17q0 -16 -13.5 -21t-33.5 -7.5t-43.5 -6t-43.5 -15.5t-33.5 -36.5t-13.5 -69.5v-815q0 -108 -29.5 -188.5t-80.5 -134.5t-120 -80.5 t-148 -26.5q-84 0 -145 23t-100 58.5t-58 79t-19 85.5z" />
<glyph unicode="K" horiz-adv-x="1327" d="M74 20q0 16 13.5 22t33.5 8t43 5.5t43 15.5t33.5 36.5t13.5 68.5v1036q0 45 -13.5 69.5t-33.5 36.5t-43 15.5t-43 6t-33.5 7.5t-13.5 21q0 9 6 17t20 8q19 0 39 -0.5t48.5 -1.5t68 -1.5t96.5 -0.5q58 0 97.5 0.5t68 1.5t48.5 1.5t38 0.5q14 0 20.5 -8t6.5 -17 q0 -16 -13.5 -21t-33.5 -7.5t-43 -6t-43 -15.5t-33.5 -36.5t-13.5 -69.5v-585h4l372 477q10 12 22.5 29t23 35.5t17.5 37.5t7 35q0 31 -8.5 48.5t-21 27t-27 13.5t-27 7.5t-21 9t-8.5 17.5q0 11 6.5 20t26.5 9q38 0 84.5 -2t122.5 -2q74 0 125 2t74 2q17 0 23.5 -6.5 t6.5 -20.5q0 -11 -10 -15t-29 -9t-46 -14t-61.5 -28.5t-75.5 -53.5t-87 -89l-186 -223l418 -770q21 -38 44.5 -60t46.5 -33.5t43.5 -16t36.5 -7.5t25.5 -8t9.5 -19q0 -17 -10.5 -20.5t-32.5 -3.5q-42 0 -83.5 2t-81.5 2h-125l-420 778l-178 -223v-379q0 -44 13.5 -68.5 t33.5 -36.5t43 -15.5t43 -6t33.5 -8t13.5 -21.5q0 -9 -6.5 -16.5t-20.5 -7.5q-18 0 -38 0.5t-48.5 1.5t-68 1.5t-97.5 0.5q-57 0 -96.5 -0.5t-68 -1.5t-48.5 -1.5t-39 -0.5q-14 0 -20 7.5t-6 16.5z" />
<glyph unicode="&#x212a;" horiz-adv-x="1327" d="M74 20q0 16 13.5 22t33.5 8t43 5.5t43 15.5t33.5 36.5t13.5 68.5v1036q0 45 -13.5 69.5t-33.5 36.5t-43 15.5t-43 6t-33.5 7.5t-13.5 21q0 9 6 17t20 8q19 0 39 -0.5t48.5 -1.5t68 -1.5t96.5 -0.5q58 0 97.5 0.5t68 1.5t48.5 1.5t38 0.5q14 0 20.5 -8t6.5 -17 q0 -16 -13.5 -21t-33.5 -7.5t-43 -6t-43 -15.5t-33.5 -36.5t-13.5 -69.5v-585h4l372 477q10 12 22.5 29t23 35.5t17.5 37.5t7 35q0 31 -8.5 48.5t-21 27t-27 13.5t-27 7.5t-21 9t-8.5 17.5q0 11 6.5 20t26.5 9q38 0 84.5 -2t122.5 -2q74 0 125 2t74 2q17 0 23.5 -6.5 t6.5 -20.5q0 -11 -10 -15t-29 -9t-46 -14t-61.5 -28.5t-75.5 -53.5t-87 -89l-186 -223l418 -770q21 -38 44.5 -60t46.5 -33.5t43.5 -16t36.5 -7.5t25.5 -8t9.5 -19q0 -17 -10.5 -20.5t-32.5 -3.5q-42 0 -83.5 2t-81.5 2h-125l-420 778l-178 -223v-379q0 -44 13.5 -68.5 t33.5 -36.5t43 -15.5t43 -6t33.5 -8t13.5 -21.5q0 -9 -6.5 -16.5t-20.5 -7.5q-18 0 -38 0.5t-48.5 1.5t-68 1.5t-97.5 0.5q-57 0 -96.5 -0.5t-68 -1.5t-48.5 -1.5t-39 -0.5q-14 0 -20 7.5t-6 16.5z" />
<glyph unicode="L" horiz-adv-x="1251" d="M74 20q0 16 13.5 22t33.5 8t43 5.5t43 15.5t33.5 36.5t13.5 68.5v1036q0 45 -13.5 69.5t-33.5 36.5t-43 15.5t-43 6t-33.5 7.5t-13.5 21q0 9 6 17t20 8q19 0 39 -0.5t48.5 -1.5t68 -1.5t96.5 -0.5q58 0 97.5 0.5t68 1.5t48.5 1.5t38 0.5q14 0 20.5 -8t6.5 -17 q0 -16 -13.5 -21t-33.5 -7.5t-43 -6t-43 -15.5t-33.5 -36.5t-13.5 -69.5v-1036q0 -34 7 -59t24.5 -41t48 -23.5t77.5 -7.5q89 0 170 29.5t149.5 79.5t121 117.5t84.5 142.5q16 38 24 62.5t13 38.5t9 20t13 6q16 0 16 -19q0 -8 -5 -34.5t-13 -55.5l-107 -436q-170 2 -349 3 t-382 1q-57 0 -96.5 -0.5t-68 -1.5t-48.5 -1.5t-39 -0.5q-14 0 -20 7.5t-6 16.5z" />
<glyph unicode="&#x216c;" horiz-adv-x="1251" d="M74 20q0 16 13.5 22t33.5 8t43 5.5t43 15.5t33.5 36.5t13.5 68.5v1036q0 45 -13.5 69.5t-33.5 36.5t-43 15.5t-43 6t-33.5 7.5t-13.5 21q0 9 6 17t20 8q19 0 39 -0.5t48.5 -1.5t68 -1.5t96.5 -0.5q58 0 97.5 0.5t68 1.5t48.5 1.5t38 0.5q14 0 20.5 -8t6.5 -17 q0 -16 -13.5 -21t-33.5 -7.5t-43 -6t-43 -15.5t-33.5 -36.5t-13.5 -69.5v-1036q0 -34 7 -59t24.5 -41t48 -23.5t77.5 -7.5q89 0 170 29.5t149.5 79.5t121 117.5t84.5 142.5q16 38 24 62.5t13 38.5t9 20t13 6q16 0 16 -19q0 -8 -5 -34.5t-13 -55.5l-107 -436q-170 2 -349 3 t-382 1q-57 0 -96.5 -0.5t-68 -1.5t-48.5 -1.5t-39 -0.5q-14 0 -20 7.5t-6 16.5z" />
<glyph unicode="M" horiz-adv-x="1630" d="M-4 16q0 17 12.5 21t32.5 8q84 20 134 88t50 186v893q0 45 -13.5 69.5t-33.5 36.5t-43 15.5t-43 6t-33.5 7.5t-13.5 21q0 9 6.5 17t20.5 8q18 0 38 -0.5t48.5 -1.5t68 -1.5t97.5 -0.5h73l410 -1108l420 1108h80q57 0 96.5 0.5t68 1.5t48.5 1.5t39 0.5q14 0 20 -8t6 -17 q0 -16 -13.5 -21t-33.5 -7.5t-43 -6t-43 -15.5t-33.5 -36.5t-13.5 -69.5v-1036q0 -44 13.5 -68.5t33.5 -36.5t43 -15.5t43 -6t33.5 -8t13.5 -21.5q0 -9 -6 -16.5t-20 -7.5q-19 0 -39 0.5t-48.5 1.5t-68 1.5t-96.5 0.5q-58 0 -97.5 -0.5t-68 -1.5t-48.5 -1.5t-38 -0.5 q-14 0 -20.5 7.5t-6.5 16.5q0 16 13.5 21.5t33.5 8t43 6t43 15.5t33.5 36.5t13.5 68.5v1020h-8l-434 -1159l-13 -33q-5 -12 -18 -12q-12 0 -17 12l-13 33l-418 1143h-4v-861q0 -118 50 -186t134 -88q20 -4 32.5 -8t12.5 -21q0 -9 -4.5 -14.5t-18.5 -5.5q-10 0 -35 0.5 t-58 1.5t-70 1.5t-72 0.5q-34 0 -71.5 -0.5t-70.5 -1.5t-58.5 -1.5t-35.5 -0.5q-14 0 -18 5.5t-4 14.5z" />
<glyph unicode="&#x216f;" horiz-adv-x="1630" d="M-4 16q0 17 12.5 21t32.5 8q84 20 134 88t50 186v893q0 45 -13.5 69.5t-33.5 36.5t-43 15.5t-43 6t-33.5 7.5t-13.5 21q0 9 6.5 17t20.5 8q18 0 38 -0.5t48.5 -1.5t68 -1.5t97.5 -0.5h73l410 -1108l420 1108h80q57 0 96.5 0.5t68 1.5t48.5 1.5t39 0.5q14 0 20 -8t6 -17 q0 -16 -13.5 -21t-33.5 -7.5t-43 -6t-43 -15.5t-33.5 -36.5t-13.5 -69.5v-1036q0 -44 13.5 -68.5t33.5 -36.5t43 -15.5t43 -6t33.5 -8t13.5 -21.5q0 -9 -6 -16.5t-20 -7.5q-19 0 -39 0.5t-48.5 1.5t-68 1.5t-96.5 0.5q-58 0 -97.5 -0.5t-68 -1.5t-48.5 -1.5t-38 -0.5 q-14 0 -20.5 7.5t-6.5 16.5q0 16 13.5 21.5t33.5 8t43 6t43 15.5t33.5 36.5t13.5 68.5v1020h-8l-434 -1159l-13 -33q-5 -12 -18 -12q-12 0 -17 12l-13 33l-418 1143h-4v-861q0 -118 50 -186t134 -88q20 -4 32.5 -8t12.5 -21q0 -9 -4.5 -14.5t-18.5 -5.5q-10 0 -35 0.5 t-58 1.5t-70 1.5t-72 0.5q-34 0 -71.5 -0.5t-70.5 -1.5t-58.5 -1.5t-35.5 -0.5q-14 0 -18 5.5t-4 14.5z" />
<glyph unicode="N" horiz-adv-x="1403" d="M6 18q0 14 11 19t34 8q99 14 146 90.5t47 229.5v821l-72 90q-25 32 -53 44.5t-51.5 17.5t-38.5 8.5t-15 17.5t9 21.5t43 6.5h38.5t49 -1t54.5 -1.5t56 -0.5h78l754 -1063h4v698q0 153 -47 229t-146 90q-23 4 -34 8.5t-11 18.5q0 23 25 22h18t36 -1t69.5 -1.5t117.5 -0.5 q74 0 118.5 0.5t69.5 1.5t36 1.5t18 -0.5q25 0 25 -22q0 -14 -11 -18.5t-34 -8.5q-99 -14 -146 -90t-47 -229v-1030q0 -17 -3 -24t-15 -7q-8 0 -18 15.5t-31 46.5l-783 1091h-6v-751q0 -153 46.5 -229.5t146.5 -90.5q23 -3 34 -8t11 -19q0 -22 -25 -22q-7 0 -18 0.5t-36 1.5 t-69.5 1.5t-118.5 0.5q-73 0 -117.5 -0.5t-69.5 -1.5t-36 -1.5t-18 -0.5q-25 0 -25 22z" />
<glyph unicode="O" horiz-adv-x="1593" d="M94 694q0 113 29 211t80 179t119 143.5t146 105.5t162.5 65.5t166.5 22.5t166 -22.5t162 -65.5t146.5 -105.5t119 -143.5t79.5 -179t29 -211t-29 -211t-79.5 -178.5t-119 -143.5t-146.5 -106t-162 -65.5t-166 -22.5t-166.5 22.5t-162.5 65.5t-146 106t-119 143.5 t-80 178.5t-29 211zM319 694q0 -194 42 -324.5t110 -209t153.5 -111.5t172.5 -33t172 33t153 111.5t110 209t42 324.5t-42 324.5t-110 209t-153 111.5t-172 33t-172.5 -33t-153.5 -111.5t-110 -209t-42 -324.5z" />
<glyph unicode="P" horiz-adv-x="1176" d="M74 20q0 16 13.5 22t33.5 8t43 5.5t43 15.5t33.5 36.5t13.5 68.5v1036q0 45 -13.5 69.5t-33.5 36.5t-43 15.5t-43 6t-33.5 7.5t-13.5 21q0 9 6 17t20 8q19 0 39 -0.5t48.5 -1.5t68 -1.5t96.5 -0.5q66 0 131 2t131 2q112 0 206.5 -27.5t163.5 -79.5t107.5 -126t38.5 -167 q0 -103 -48 -175.5t-128.5 -118.5t-185 -66.5t-217.5 -20.5h-100v-436q0 -44 13.5 -68.5t33.5 -36.5t43 -15.5t43 -6t33.5 -8t13.5 -21.5q0 -9 -6.5 -16.5t-20.5 -7.5q-18 0 -38 0.5t-48.5 1.5t-68 1.5t-97.5 0.5q-57 0 -96.5 -0.5t-68 -1.5t-48.5 -1.5t-39 -0.5 q-14 0 -20 7.5t-6 16.5zM451 662h104q93 0 162.5 19t116 60t69.5 106.5t23 158.5q0 94 -21.5 158.5t-64.5 104t-107 57t-149 17.5h-133v-681z" />
<glyph unicode="Q" horiz-adv-x="1593" d="M94 694q0 113 29 211t80 179t119 143.5t146 105.5t162.5 65.5t166.5 22.5t166 -22.5t162 -65.5t146.5 -105.5t119 -143.5t79.5 -179t29 -211q0 -108 -27 -203t-73.5 -174t-110 -142t-137 -107.5t-153.5 -70t-160 -30.5v-4q98 -32 178 -63t147.5 -55t126 -39t113.5 -15 q78 0 140.5 33.5t94.5 89.5q13 22 20 35.5t19 13.5q19 0 19 -22q0 -15 -9 -40.5t-29 -55t-53 -60.5t-82 -56t-114.5 -41t-151.5 -16q-75 0 -142 16t-128.5 40t-119.5 52.5t-113.5 52.5t-111 40t-112.5 16q-46 0 -79 -10t-57 -26.5t-40.5 -36.5t-29.5 -41 q-13 -20 -19.5 -30.5t-21.5 -10.5q-10 0 -15.5 8t-5.5 16q0 21 18.5 58t59 74.5t106.5 68t160 37.5v4q-100 30 -193 90.5t-163.5 149t-113 203t-42.5 251.5zM319 694q0 -194 42 -324.5t110 -209t153.5 -111.5t172.5 -33t172 33t153 111.5t110 209t42 324.5t-42 324.5 t-110 209t-153 111.5t-172 33t-172.5 -33t-153.5 -111.5t-110 -209t-42 -324.5z" />
<glyph unicode="R" horiz-adv-x="1366" d="M94 20q0 16 13.5 22t33.5 8t43 5.5t43 15.5t33.5 36.5t13.5 68.5v1036q0 45 -13.5 69.5t-33.5 36.5t-43 15.5t-43 6t-33.5 7.5t-13.5 21q0 9 6.5 17t20.5 8q18 0 38 -0.5t48.5 -1.5t68 -1.5t97.5 -0.5q74 0 135.5 2t126.5 2q136 0 236 -29.5t166 -79.5t98 -116t32 -140 q0 -54 -20.5 -104t-57 -91t-86 -71t-108.5 -43q-56 -13 -116 -18.5t-115 -8.5v-4q81 -7 139 -20t101.5 -37t76 -62t61.5 -94l150 -289q24 -47 50.5 -74t53 -41.5t50 -19.5t42 -7.5t29 -6.5t10.5 -17q0 -12 -4.5 -18t-19.5 -6q-42 0 -98 2t-113 2h-119l-266 518 q-24 45 -52 75.5t-62.5 49t-76 26t-92.5 7.5h-53v-500q0 -44 13.5 -68.5t33.5 -36.5t43 -15.5t43 -6t33.5 -8t13.5 -21.5q0 -9 -6 -16.5t-20 -7.5q-19 0 -39 0.5t-48.5 1.5t-68 1.5t-96.5 0.5q-58 0 -97.5 -0.5t-68 -1.5t-48.5 -1.5t-38 -0.5q-14 0 -20.5 7.5t-6.5 16.5z M471 713h145q167 0 257 78.5t90 244.5q0 75 -24 132t-68.5 96t-108.5 59t-144 20h-147v-630z" />
<glyph unicode="S" horiz-adv-x="1176" d="M135 25v524q0 25 3.5 39t23.5 14q13 0 20 -8t11.5 -26t9.5 -48t14 -74q27 -127 70 -210.5t95 -132t109.5 -68t114.5 -19.5q69 0 128.5 19.5t103 56.5t68 90.5t24.5 120.5q0 89 -33.5 148.5t-88.5 99.5t-125.5 67t-144 52.5t-144 54.5t-125.5 73t-88.5 109t-33.5 162 q0 78 34.5 142.5t91.5 111t130 72.5t150 26q71 0 127.5 -12t99.5 -27t71.5 -27t43.5 -12q23 0 31.5 11t13.5 24t10.5 24t22.5 11q25 0 28 -37q9 -103 15.5 -175t10.5 -121t6.5 -77.5t3.5 -44.5t1 -22v-12q0 -13 -3.5 -24t-20.5 -11q-9 0 -14 3.5t-10 14t-11 30.5t-16 52 q-63 203 -160.5 299t-245.5 96q-51 0 -95 -18.5t-75.5 -50.5t-49.5 -75t-18 -91q0 -73 33.5 -122.5t88.5 -86t125.5 -64t144 -56t144 -61.5t125.5 -81t88.5 -115t33.5 -162q0 -78 -23 -140.5t-61 -110.5t-88 -82.5t-103.5 -57t-107.5 -33t-101 -10.5q-71 0 -130.5 13.5 t-105.5 29.5t-78 29.5t-48 13.5q-21 0 -31.5 -11.5t-17.5 -25t-16 -25t-27 -11.5q-11 0 -20 11.5t-9 33.5z" />
<glyph unicode="T" horiz-adv-x="1327" d="M61 946q0 9 5 30.5t14 53.5l100 365q5 14 9.5 20t15.5 6q9 0 13.5 -5t10.5 -11q7 -6 18 -11t34 -5h766q23 0 34 5t17 11t10.5 11t13.5 5q11 0 15.5 -6t9.5 -20l100 -365q10 -32 14.5 -53.5t4.5 -30.5q0 -16 -15 -16q-7 0 -11 4t-9.5 15t-14.5 30t-24 49q-31 62 -77.5 117 t-102.5 98.5t-119.5 72t-130.5 36.5v-1176q0 -44 16 -68.5t39.5 -36.5t51 -15.5t51 -6t39.5 -8t16 -21.5q0 -9 -5 -16.5t-22 -7.5q-31 0 -57.5 0.5t-58 1.5t-71.5 1.5t-97 0.5q-58 0 -98 -0.5t-71.5 -1.5t-58 -1.5t-57.5 -0.5q-16 0 -21.5 7.5t-5.5 16.5q0 16 16 22t39.5 8 t51 5.5t51 15.5t39.5 36.5t16 68.5v1176q-67 -8 -130.5 -36.5t-119.5 -72t-102 -98.5t-78 -117q-15 -30 -24 -49t-14.5 -30t-9.5 -15t-11 -4q-6 0 -10.5 4t-4.5 12z" />
<glyph unicode="U" horiz-adv-x="1403" d="M31 1368q0 9 6 17t20 8q18 0 38 -0.5t47.5 -1.5t64.5 -1.5t90 -0.5q58 0 97.5 0.5t68 1.5t48.5 1.5t38 0.5q14 0 20 -8t6 -17q0 -16 -13.5 -21t-33.5 -7.5t-43 -6t-43 -15.5t-33.5 -36.5t-13.5 -69.5v-796q0 -88 23.5 -159.5t68 -121.5t108 -77.5t144.5 -28.5h6 q73 -1 139 21q70 22 123.5 68t85 115.5t31.5 163.5v615q0 96 -17.5 155t-43.5 93t-56.5 48.5t-56.5 22t-43.5 13.5t-17.5 24q0 25 37 25q29 0 81 -2t150 -2t150.5 2t81.5 2q17 0 26.5 -5.5t9.5 -19.5q0 -17 -17.5 -23.5t-43.5 -14t-56.5 -22t-56.5 -48.5t-43.5 -93 t-17.5 -155v-594q0 -91 -26.5 -172.5t-83 -143.5t-145 -98.5t-212.5 -36.5q-125 0 -221 32t-160.5 87.5t-97.5 131t-33 163.5v831q0 45 -13.5 69.5t-33.5 36.5t-43 15.5t-43 6t-33.5 7.5t-13.5 21z" />
<glyph unicode="V" horiz-adv-x="1366" d="M-12 1366q0 12 11 19.5t42 7.5q18 0 38.5 -0.5t46 -1.5t58 -1.5t74.5 -0.5q33 0 65 0.5t60 1.5t50.5 1.5t35.5 0.5q31 0 42 -7.5t11 -21.5q0 -13 -10.5 -18t-27 -8t-35 -5.5t-35 -11t-27 -24t-10.5 -44.5q0 -16 2.5 -31.5t9 -36t17.5 -49.5t28 -73l326 -832l248 695 q23 65 38 123t15 110t-13.5 84.5t-33.5 52t-43 28t-43 14t-33.5 10t-13.5 14.5q0 14 10 22.5t41 8.5q14 0 32.5 -0.5t45 -1.5t61.5 -1.5t82 -0.5q72 0 119 2t76 2q21 0 37 -4t16 -21q0 -15 -12.5 -20t-34.5 -11t-51.5 -20t-63.5 -47.5t-70.5 -93t-72.5 -156.5l-361 -975 q-10 -32 -20 -55t-27 -23t-26.5 23t-20.5 55l-461 1155q-17 44 -38 69.5t-42.5 40t-41.5 20.5t-35.5 10t-25 9t-9.5 17z" />
<glyph unicode="W" horiz-adv-x="1858" d="M-20 1370q0 9 7 16t27 8q10 0 25 -1t39.5 -2t61.5 -1.5t91 -0.5q36 0 72.5 0.5t67.5 1.5t55.5 1.5t36.5 1.5q22 0 28.5 -6.5t6.5 -17.5q0 -9 -10.5 -14t-26.5 -9t-34 -9t-34 -14.5t-26.5 -24.5t-10.5 -39q0 -26 11.5 -59.5t23.5 -65.5l303 -854h4l195 677l-96 279 q-11 32 -27.5 51.5t-35 31t-36.5 17t-32.5 9t-23.5 8t-9 14.5q0 16 10.5 20.5t32.5 5.5q49 0 101 -2.5t97 -2.5q32 0 67.5 0.5t68.5 1.5t59.5 1.5t40.5 1.5q19 0 25 -5.5t6 -16.5q0 -12 -9.5 -16.5t-24.5 -7t-31.5 -5t-31.5 -9.5t-24.5 -21.5t-9.5 -40.5q0 -59 13 -104 t26 -81l272 -825h4l219 701q6 19 12 46t10 56.5t6.5 58.5t2.5 52q0 51 -12 82t-29.5 49t-38.5 25.5t-38.5 12t-29.5 8.5t-12 15q0 16 12.5 20.5t42.5 5.5q25 0 65 -2.5t99 -2.5q75 0 128 2t81 3q34 0 47 -4.5t13 -21.5q0 -11 -12.5 -15t-33.5 -10.5t-48 -19t-56.5 -40.5 t-59 -76t-55.5 -126l-340 -1036q-10 -32 -20 -55t-27 -23t-26.5 23t-20.5 55l-282 844h-4l-254 -844q-10 -32 -19.5 -55t-26.5 -23t-26.5 23t-20.5 55l-399 1149q-17 49 -38.5 78t-42.5 45t-41 22t-35.5 9.5t-25 7t-9.5 14.5z" />
<glyph unicode="X" horiz-adv-x="1366" d="M2 23q0 13 10 17t29 8.5t46 11.5t61 24.5t74 48.5t85 84q91 108 170.5 228.5t155.5 236.5l-340 559q-21 35 -44.5 55t-46 30.5t-42.5 14t-35 6.5t-24 7t-9 16q0 11 9 17t32 6q19 0 79 -2t153 -2q55 0 110 2t105 2q23 0 36 -3.5t13 -17.5q0 -12 -9.5 -16.5t-24 -6.5 t-31 -3.5t-31 -7.5t-24 -18.5t-9.5 -35.5q0 -12 4.5 -26.5t12 -29.5t16 -30t16.5 -27l217 -352l106 170q36 57 63.5 116t27.5 124q0 37 -10.5 58.5t-26.5 33.5t-35 17.5t-35 8.5t-26.5 7.5t-10.5 15.5q0 9 7 16t24 7q38 0 85.5 -2t115.5 -2q88 0 143.5 2t89.5 2 q20 0 25.5 -5.5t5.5 -13.5q0 -10 -9 -14t-26.5 -10t-43.5 -18.5t-60 -39.5q-19 -15 -42.5 -39t-48 -54t-50.5 -65t-52 -73l-190 -287l385 -627q23 -37 47.5 -57.5t48 -30.5t44.5 -13t37 -5.5t25 -7t9 -17.5q0 -9 -7 -14.5t-28 -5.5q-16 0 -35 0.5t-50 1.5t-78.5 1.5 t-121.5 0.5q-51 0 -105.5 -2t-111.5 -2q-17 0 -28 3.5t-11 18.5q0 13 10 17.5t25 7t32.5 5t32.5 10t25 22.5t10 43q0 12 -5 28.5t-13 35t-18 37.5t-19 34l-231 383l-148 -235q-43 -67 -58.5 -122.5t-15.5 -103.5q0 -45 11.5 -71t28.5 -39t37 -17t37 -7t28.5 -8t11.5 -20 q0 -11 -8.5 -16.5t-34.5 -5.5q-16 0 -37.5 0.5t-53.5 1.5t-77 1.5t-109 0.5q-92 0 -148 -2t-81 -2t-34 4t-9 23z" />
<glyph unicode="Y" horiz-adv-x="1251" d="M10 1370q0 12 14 17.5t48 5.5q13 0 29 -0.5t38.5 -1.5t53 -1.5t71.5 -0.5q48 0 79.5 0.5t54.5 1.5t41 1.5t38 0.5q38 0 50 -4t12 -21q0 -12 -9.5 -16.5t-23.5 -7t-30.5 -5t-30.5 -9t-23.5 -19.5t-9.5 -37q0 -42 16 -85t47 -97l217 -381l178 280q38 57 61 114.5t23 102.5 q0 43 -9.5 68t-24 38t-32 18t-32.5 8t-26 7.5t-13 16.5q-2 15 10.5 22t44.5 7q16 0 32.5 -0.5t38.5 -1.5t52.5 -1.5t75.5 -0.5q33 0 57 0.5t43.5 1.5t35.5 1.5t34 0.5q26 0 36.5 -6.5t10.5 -20.5q0 -10 -9.5 -15t-27 -12t-43.5 -20.5t-59.5 -41t-74 -73t-87.5 -117.5 l-264 -405v-506q0 -44 13.5 -68.5t33.5 -36.5t43 -15.5t43 -6t33.5 -8t13.5 -21.5q0 -9 -6 -16.5t-20 -7.5q-19 0 -39 0.5t-48.5 1.5t-68 1.5t-96.5 0.5q-58 0 -97.5 -0.5t-68 -1.5t-48.5 -1.5t-38 -0.5q-14 0 -20.5 7.5t-6.5 16.5q0 16 13.5 21.5t33.5 8t43 6t43 15.5 t33.5 36.5t13.5 68.5v455l-323 590q-22 40 -45 63.5t-44.5 35.5t-40 16.5t-33 8t-22.5 8t-8 17.5z" />
<glyph unicode="Z" horiz-adv-x="1214" d="M63 10q0 4 2 9t8 15t17 27t29 45l772 1237h-35q-129 0 -232.5 -9.5t-185.5 -45.5t-145 -108t-111 -197q-11 -28 -17.5 -39.5t-17.5 -11.5t-15.5 5t-4.5 13t3 19t11 37l127 387q97 -2 193.5 -3t193.5 -1q81 0 141 0.5t108.5 1.5t89.5 1.5t83 0.5q26 0 32.5 -7t6.5 -16 q0 -8 -5 -16.5t-11 -18.5l-813 -1290h200q100 0 185.5 28.5t155 78t122 117t86.5 145.5q16 38 24 62.5t13.5 38.5t9.5 20t13 6q16 0 16 -19q0 -8 -5 -34.5t-13 -55.5l-107 -436q-115 2 -226 3t-220 1q-116 0 -192 -0.5t-126 -1.5t-80 -1.5t-55 -0.5t-25 14z" />
<glyph unicode="[" horiz-adv-x="737" d="M150 -360v1781q0 26 10 35.5t23 9.5h321q16 0 24.5 -4t8.5 -16q0 -11 -9 -15.5t-23.5 -6t-33 -2.5t-38.5 -5t-39.5 -12.5t-34.5 -25.5t-24 -43.5t-9 -67.5v-1475q0 -41 9 -67.5t24 -43.5t34.5 -25.5t39.5 -12.5t38.5 -5t33 -2.5t23.5 -6t9 -15.5q0 -12 -8.5 -16.5 t-24.5 -4.5h-321q-13 0 -23 10t-10 36z" />
<glyph unicode="\" horiz-adv-x="569" d="M-72 1421h140l573 -1454h-139z" />
<glyph unicode="]" horiz-adv-x="737" d="M100 -385q0 11 9 15.5t23.5 6t33 2.5t38.5 5t39 12.5t34 25.5t24 43.5t9 67.5v1475q0 41 -9 67.5t-24 43.5t-34 25.5t-39 12.5t-38.5 5t-33 2.5t-23.5 6t-9 15.5q0 12 8.5 16t23.5 4h322q12 0 22.5 -9.5t10.5 -35.5v-1781q0 -26 -10.5 -36t-22.5 -10h-322 q-15 0 -23.5 4.5t-8.5 16.5z" />
<glyph unicode="^" horiz-adv-x="1229" d="M209 719l336 670h139l336 -670h-156l-250 514l-258 -514h-147z" />
<glyph unicode="_" horiz-adv-x="1024" d="M0 -674h1024v-102h-1024v102z" />
<glyph unicode="`" horiz-adv-x="606" d="M-2 1329q0 26 19 45t46 19q20 0 43.5 -10t45.5 -31l307 -312h-82l-338 215q-19 11 -30 30t-11 44z" />
<glyph unicode="a" horiz-adv-x="1024" d="M82 184q0 33 7.5 61t28.5 55t59.5 54.5t101 59.5t152 70t212.5 85v240q0 48 -26 68t-74 20q-61 0 -96.5 -24.5t-57 -60.5t-36.5 -79t-34 -79t-50.5 -60.5t-86.5 -24.5q-29 0 -48 24.5t-19 61.5q0 31 22 65t59 66t85 61t101 51t106.5 35t101.5 13q54 0 98 -12.5t75 -38.5 t47.5 -65.5t16.5 -94.5v-608q0 -28 14.5 -42.5t39.5 -14.5q21 0 39 11t32.5 23.5t25 23.5t17.5 11t12 -4.5t5 -13.5q0 -7 -19 -29.5t-50 -46.5t-70 -42.5t-80 -18.5q-38 0 -65 14t-44.5 35.5t-26 48t-10.5 51.5q-91 -75 -180 -112t-166 -37q-50 0 -90.5 15t-69 42t-44 63.5 t-15.5 79.5zM279 221q0 -89 31 -126.5t83 -37.5q15 0 40 6t57.5 20.5t71 39t81.5 61.5v336q-111 -39 -182 -72t-111.5 -67t-55.5 -72.5t-15 -87.5z" />
<glyph unicode="b" horiz-adv-x="1139" d="M25 1384q0 14 13 17.5t50 11t103.5 24.5t173.5 58v-670q33 26 67 48.5t71.5 38.5t80.5 25t94 9q88 0 159.5 -33.5t122 -90t78 -130.5t27.5 -155q0 -125 -40.5 -227t-109.5 -174.5t-160 -112t-192 -39.5q-40 0 -76 8t-68.5 21t-62.5 30.5t-59 36.5q-26 -29 -43 -48 t-28 -29.5t-17.5 -14.5t-11.5 -4q-17 0 -17 26v1247q0 35 -11.5 54.5t-28.5 29.5t-37.5 13.5t-37.5 6t-28.5 7t-11.5 16.5zM365 250q0 -52 12.5 -94.5t37 -72.5t62 -46.5t88.5 -16.5q62 0 109.5 20t82.5 54.5t59 80.5t38.5 97.5t20.5 105.5t6 105q0 86 -22 156.5 t-60.5 121.5t-92 79t-116.5 28q-42 0 -76.5 -10t-62.5 -24.5t-49.5 -31t-36.5 -28.5v-524z" />
<glyph unicode="c" horiz-adv-x="1024" d="M74 438q0 114 38.5 208t104 160.5t151.5 103t181 36.5q78 0 150 -23.5t128 -64.5t89.5 -98t33.5 -125q0 -37 -8.5 -63t-23.5 -42.5t-35.5 -24t-44.5 -7.5q-19 0 -37.5 6.5t-32.5 22t-22.5 41t-8.5 63.5q0 17 2 29t4.5 23t4.5 22t2 26q0 35 -13.5 65t-40 52.5t-65.5 35.5 t-90 13q-58 0 -111.5 -27t-94.5 -75t-65 -113.5t-24 -142.5q0 -88 25 -163.5t71.5 -131t113 -86.5t148.5 -31q34 0 68.5 7t66.5 20t61 30t52 37q22 19 34.5 37t21 31.5t14 21.5t14.5 8q16 0 16 -22q0 -13 -9.5 -41.5t-31 -63t-54.5 -71.5t-80.5 -67.5t-109 -50t-139.5 -19.5 q-94 0 -177 34.5t-144.5 95t-97 144t-35.5 180.5z" />
<glyph unicode="&#x217d;" horiz-adv-x="1024" d="M74 438q0 114 38.5 208t104 160.5t151.5 103t181 36.5q78 0 150 -23.5t128 -64.5t89.5 -98t33.5 -125q0 -37 -8.5 -63t-23.5 -42.5t-35.5 -24t-44.5 -7.5q-19 0 -37.5 6.5t-32.5 22t-22.5 41t-8.5 63.5q0 17 2 29t4.5 23t4.5 22t2 26q0 35 -13.5 65t-40 52.5t-65.5 35.5 t-90 13q-58 0 -111.5 -27t-94.5 -75t-65 -113.5t-24 -142.5q0 -88 25 -163.5t71.5 -131t113 -86.5t148.5 -31q34 0 68.5 7t66.5 20t61 30t52 37q22 19 34.5 37t21 31.5t14 21.5t14.5 8q16 0 16 -22q0 -13 -9.5 -41.5t-31 -63t-54.5 -71.5t-80.5 -67.5t-109 -50t-139.5 -19.5 q-94 0 -177 34.5t-144.5 95t-97 144t-35.5 180.5z" />
<glyph unicode="d" horiz-adv-x="1139" d="M74 406q0 122 40 221.5t108.5 170.5t159 109.5t191.5 38.5q81 0 128.5 -9t72.5 -15v335q0 35 -12 54.5t-30.5 29.5t-39.5 13.5t-39.5 6t-30.5 7t-12 16.5q0 14 14.5 17.5t53 11t106.5 24.5t174 58v-1249q0 -37 11.5 -59t29 -34t37.5 -16.5t37.5 -8t29 -7.5t11.5 -15 q0 -9 -5.5 -13t-19 -8t-37 -8.5t-60 -15.5t-87.5 -29t-119 -48v180q-29 -32 -63.5 -64.5t-75.5 -58t-88.5 -41.5t-101.5 -16q-85 0 -155.5 34.5t-121 92.5t-78.5 134.5t-28 160.5zM258 467q0 -61 15.5 -128t50 -122t89 -91t132.5 -36q44 0 84.5 14t72 33.5t51.5 40t21 33.5 v483v12q0 48 -15 84q-17 40 -46 66.5t-67.5 39.5t-80.5 13q-69 0 -125.5 -32.5t-97 -91t-62.5 -139.5t-22 -179z" />
<glyph unicode="&#x217e;" horiz-adv-x="1139" d="M74 406q0 122 40 221.5t108.5 170.5t159 109.5t191.5 38.5q81 0 128.5 -9t72.5 -15v335q0 35 -12 54.5t-30.5 29.5t-39.5 13.5t-39.5 6t-30.5 7t-12 16.5q0 14 14.5 17.5t53 11t106.5 24.5t174 58v-1249q0 -37 11.5 -59t29 -34t37.5 -16.5t37.5 -8t29 -7.5t11.5 -15 q0 -9 -5.5 -13t-19 -8t-37 -8.5t-60 -15.5t-87.5 -29t-119 -48v180q-29 -32 -63.5 -64.5t-75.5 -58t-88.5 -41.5t-101.5 -16q-85 0 -155.5 34.5t-121 92.5t-78.5 134.5t-28 160.5zM258 467q0 -61 15.5 -128t50 -122t89 -91t132.5 -36q44 0 84.5 14t72 33.5t51.5 40t21 33.5 v483v12q0 48 -15 84q-17 40 -46 66.5t-67.5 39.5t-80.5 13q-69 0 -125.5 -32.5t-97 -91t-62.5 -139.5t-22 -179z" />
<glyph unicode="e" horiz-adv-x="1024" d="M74 451q0 93 33.5 182t94.5 158.5t147.5 112t191.5 42.5q100 0 174.5 -37.5t124 -99t74 -139t24.5 -158.5h-680q2 -77 20.5 -146.5t60 -122.5t107.5 -84.5t162 -31.5q66 0 116 15t95 46q28 20 44 39t26 34t17 24.5t16 9.5q18 0 18 -23q0 -10 -8.5 -35t-28.5 -57 t-51.5 -66.5t-77 -63.5t-107 -47.5t-139.5 -18.5q-91 0 -173.5 34.5t-144.5 96.5t-99 148t-37 188zM254 561h500q0 95 -14.5 161t-42 107.5t-67.5 60.5t-91 19q-55 0 -106 -27t-90.5 -74t-63 -110.5t-25.5 -136.5z" />
<glyph unicode="f" horiz-adv-x="606" d="M33 20q0 14 11 19.5t28 8.5t36.5 6t36.5 12t28 27t11 50v697h-151q49 15 79 53t48.5 90t30.5 113.5t24.5 123.5t30.5 119.5t50 102t81.5 71.5t124.5 27q42 0 73 -14t52 -37.5t31 -54t10 -62.5q0 -62 -30.5 -99.5t-74.5 -37.5q-32 0 -56 24t-24 80q0 31 8.5 55t8.5 44 q0 21 -12.5 38.5t-36.5 14.5q-25 -3 -43.5 -23t-32 -49t-21.5 -63.5t-13 -68.5t-7 -63t-2 -46q0 -36 4 -65.5t9.5 -58t12 -58.5t11.5 -66h217l-29 -90h-188v-697q0 -32 11 -50t28 -27t36.5 -12t36.5 -6t28 -8.5t11 -19.5t-8 -19t-25 -5q-19 0 -38.5 0.5t-43.5 1.5t-55.5 1.5 t-73.5 0.5t-73 -0.5t-55 -1.5t-43.5 -1.5t-38.5 -0.5q-17 0 -25 5t-8 19z" />
<glyph unicode="g" horiz-adv-x="948" d="M4 -193q0 35 13 63t35.5 49.5t51.5 36.5t60 24q-38 29 -62 69t-24 92t24.5 89.5t64.5 61.5t93 36q48 10 98 10h9v6q-49 9 -96.5 29.5t-84.5 55t-59.5 84t-22.5 114.5q0 56 16.5 101t44.5 80.5t65 61.5t78.5 43t84 25t82.5 8q0 32 14.5 78.5t41.5 89.5t66.5 73t90.5 30 q50 0 75 -24t25 -58q0 -50 -31.5 -72.5t-86.5 -22.5q-20 0 -36.5 2t-35.5 2q-21 0 -35 -7.5t-23.5 -21t-15 -31t-8.5 -38.5q64 -3 126 -24.5t111 -59.5t79 -92.5t30 -122.5q0 -78 -30.5 -134t-79.5 -94t-109.5 -60t-120.5 -31q-82 -12 -136.5 -21.5t-87.5 -21t-46.5 -28 t-13.5 -44.5q0 -41 42.5 -69.5t139.5 -28.5h190q95 0 160.5 -18t106 -51t59 -79t18.5 -102q0 -63 -38.5 -117.5t-107.5 -95t-164.5 -63.5t-209.5 -23q-91 0 -170 15.5t-136.5 46t-90.5 75.5t-33 104zM102 -180q0 -99 82.5 -152t237.5 -53q190 0 281.5 49.5t91.5 138.5 q0 48 -17 72.5t-50.5 35.5t-83 13t-114 3.5t-144 7t-173.5 24.5q-22 0 -42 -10t-35.5 -28.5t-24.5 -44t-9 -56.5zM309 637q0 -143 39.5 -207.5t134.5 -64.5q48 0 81.5 15.5t54.5 48.5t30 85q8 46 8 109v14q0 71 -9 122.5t-29.5 84.5t-54 49t-81.5 16t-81 -16t-54 -49 t-30 -84q-9 -47 -9 -110v-13z" />
<glyph unicode="h" horiz-adv-x="1214" d="M41 1384q0 14 15 17.5t54 11t106.5 24.5t172.5 58v-737q37 27 80.5 60t92.5 61.5t103 47.5t111 19q62 0 106 -16t72 -44t41 -67t13 -84v-592q0 -32 11 -50t28 -27t36.5 -12t36.5 -6t28 -8.5t11 -19.5t-8 -19t-25 -5q-19 0 -38.5 0.5t-43.5 1.5t-55.5 1.5t-73.5 0.5 t-73 -0.5t-55 -1.5t-43.5 -1.5t-38.5 -0.5q-17 0 -25 5t-8 19t11 19.5t28 8.5t36.5 6t36.5 12t28 27t11 50v562q0 65 -30.5 100t-108.5 35q-44 0 -81.5 -9t-73 -27t-69.5 -44t-71 -60v-557q0 -32 11.5 -50t28 -27t36.5 -12t36.5 -6t28 -8.5t11.5 -19.5t-8 -19t-25 -5 q-19 0 -38.5 0.5t-43.5 1.5t-55.5 1.5t-73.5 0.5t-73.5 -0.5t-55.5 -1.5t-43.5 -1.5t-38.5 -0.5q-17 0 -25 5t-8 19t11.5 19.5t28 8.5t36.5 6t36.5 12t28 27t11.5 50v1114q0 35 -12 54.5t-30.5 29.5t-39.5 13.5t-39.5 6t-30.5 7t-12 16.5z" />
<glyph unicode="i" horiz-adv-x="606" d="M59 20q0 14 11.5 19.5t28 8.5t36.5 6t36.5 12t28 27t11.5 50v566q0 34 -11.5 53.5t-28 29.5t-36.5 13.5t-36.5 6.5t-28 7.5t-11.5 16.5q0 14 12.5 17.5t49 10.5t102.5 24.5t172 57.5v-803q0 -32 11.5 -50t28 -27t36.5 -12t36.5 -6t28 -8.5t11.5 -19.5t-8 -19t-25 -5 q-19 0 -38.5 0.5t-43.5 1.5t-55.5 1.5t-73.5 0.5t-73.5 -0.5t-55.5 -1.5t-43.5 -1.5t-38.5 -0.5q-17 0 -25 5t-8 19zM174 1198q0 51 28 82t85 31t84.5 -31t27.5 -82t-27.5 -82t-84.5 -31t-85 31t-28 82z" />
<glyph unicode="j" horiz-adv-x="606" d="M-106 -291q0 37 24.5 63.5t65.5 26.5q39 0 60.5 -13t33.5 -32.5t18.5 -42.5t14.5 -42.5t21 -32.5t40 -13q23 0 45.5 8.5t40.5 24t29.5 36.5t11.5 46q0 17 -7.5 39t-17 48.5t-17 57t-7.5 64.5v762q0 34 -11.5 53.5t-28 29.5t-36.5 13.5t-36.5 6.5t-28 7.5t-11.5 16.5 q0 14 12.5 17.5t49 10.5t102.5 24.5t172 57.5v-999q0 -78 -17 -136.5t-44.5 -101t-63.5 -70t-73.5 -44t-74 -23t-65.5 -6.5q-48 0 -85.5 12t-63.5 32t-39.5 45.5t-13.5 53.5zM213 1198q0 51 28 82t85 31t84.5 -31t27.5 -82t-27.5 -82t-84.5 -31t-85 31t-28 82z" />
<glyph unicode="k" horiz-adv-x="1139" d="M49 1384q0 14 13 17.5t50 11t103.5 24.5t173.5 58v-1040l186 145q85 66 121.5 120.5t36.5 82.5q0 32 -10.5 49t-26.5 25.5t-34.5 10.5t-34.5 3.5t-26.5 5t-10.5 14.5q0 14 13 18.5t38 4.5q40 0 87 -2t95 -2q50 0 98.5 2t96.5 2q15 0 25 -5t10 -16t-6.5 -14.5t-18.5 -4.5 t-29 -3t-39 -9.5t-48 -23.5t-56 -45l-172 -170l307 -530q16 -27 34 -40.5t35 -19.5t33 -7t28 -2.5t19 -7t7 -20.5q0 -20 -33 -20q-12 0 -36 0.5t-56.5 1.5t-71.5 1.5t-80 0.5q-38 0 -67 -0.5t-51 -1.5t-38.5 -1.5t-31.5 -0.5q-12 0 -20.5 4.5t-8.5 15.5q0 16 9.5 23t23 9.5 t30 3.5t30 5.5t23 15.5t9.5 33q0 10 -8.5 29.5t-17.5 36.5l-199 356l-164 -127v-258q0 -32 11.5 -50t28 -27t36.5 -12t36.5 -6t28 -8.5t11.5 -19.5t-8 -19t-25 -5q-19 0 -38.5 0.5t-43.5 1.5t-55.5 1.5t-73.5 0.5t-73.5 -0.5t-55.5 -1.5t-43.5 -1.5t-38.5 -0.5q-17 0 -25 5 t-8 19t11.5 19.5t28 8.5t36.5 6t36.5 12t28 27t11.5 50v1114q0 35 -11.5 54.5t-29 29.5t-37.5 13.5t-37.5 6t-29 7t-11.5 16.5z" />
<glyph unicode="l" horiz-adv-x="569" d="M29 1384q0 14 14.5 17.5t53 11t106 24.5t174.5 58v-1352q0 -32 11 -50t28 -27t36.5 -12t36.5 -6t28 -8.5t11 -19.5t-7.5 -19t-24.5 -5q-19 0 -39 0.5t-44 1.5t-55 1.5t-73 0.5t-73.5 -0.5t-55.5 -1.5t-43.5 -1.5t-38.5 -0.5q-17 0 -25 5t-8 19t11.5 19.5t28 8.5t36.5 6 t36.5 12t28 27t11.5 50v1114q0 35 -12 54.5t-30.5 29.5t-39.5 13.5t-39.5 6t-30.5 7t-12 16.5z" />
<glyph unicode="&#x217c;" horiz-adv-x="569" d="M29 1384q0 14 14.5 17.5t53 11t106 24.5t174.5 58v-1352q0 -32 11 -50t28 -27t36.5 -12t36.5 -6t28 -8.5t11 -19.5t-7.5 -19t-24.5 -5q-19 0 -39 0.5t-44 1.5t-55 1.5t-73 0.5t-73.5 -0.5t-55.5 -1.5t-43.5 -1.5t-38.5 -0.5q-17 0 -25 5t-8 19t11.5 19.5t28 8.5t36.5 6 t36.5 12t28 27t11.5 50v1114q0 35 -12 54.5t-30.5 29.5t-39.5 13.5t-39.5 6t-30.5 7t-12 16.5z" />
<glyph unicode="m" horiz-adv-x="1782" d="M53 20q0 14 11.5 19.5t28 8.5t36.5 6t36.5 12t28 27t11.5 50v566q0 34 -11.5 53.5t-28 29.5t-36.5 13.5t-36.5 6.5t-28 7.5t-11.5 16.5q0 14 13 17.5t50 10.5t102.5 24.5t170.5 57.5v-188q28 27 68 60t88.5 61.5t103.5 47.5t113 19q99 0 153.5 -51.5t65.5 -140.5 q55 41 100.5 75.5t89 60t88 40.5t97.5 16h8q52 0 90 -12q42 -13 69 -37.5t40.5 -59.5t13.5 -79v-615q0 -32 11.5 -50t28 -27t36.5 -12t36.5 -6t28 -8.5t11.5 -19.5t-8 -19t-25 -5q-19 0 -38.5 0.5t-44 1.5t-55.5 1.5t-73 0.5t-73.5 -0.5t-55.5 -1.5t-43.5 -1.5t-38.5 -0.5 q-17 0 -25 5t-8 19t11.5 19.5t28 8.5t36.5 6t36.5 12t28 27t11.5 50v566q0 131 -127 131q-22 0 -49.5 -5.5t-61.5 -19.5t-76.5 -39t-95.5 -63v-570q0 -32 11.5 -50t28 -27t36.5 -12t36.5 -6t28 -8.5t11.5 -19.5t-8 -19t-25 -5q-19 0 -38.5 0.5t-43.5 1.5t-55.5 1.5 t-73.5 0.5t-73.5 -0.5t-55.5 -1.5t-43.5 -1.5t-38.5 -0.5q-17 0 -25 5t-8 19t11.5 19.5t28 8.5t36.5 6t36.5 12t28 27t11.5 50v566q0 65 -34.5 98t-100.5 33q-69 0 -134.5 -34t-140.5 -106v-557q0 -32 11.5 -50t28 -27t36.5 -12t36.5 -6t28 -8.5t11.5 -19.5t-8 -19t-25 -5 q-19 0 -38.5 0.5t-43.5 1.5t-55.5 1.5t-73.5 0.5t-73.5 -0.5t-55.5 -1.5t-43.5 -1.5t-38.5 -0.5q-17 0 -25 5t-8 19z" />
<glyph unicode="&#x217f;" horiz-adv-x="1782" d="M53 20q0 14 11.5 19.5t28 8.5t36.5 6t36.5 12t28 27t11.5 50v566q0 34 -11.5 53.5t-28 29.5t-36.5 13.5t-36.5 6.5t-28 7.5t-11.5 16.5q0 14 13 17.5t50 10.5t102.5 24.5t170.5 57.5v-188q28 27 68 60t88.5 61.5t103.5 47.5t113 19q99 0 153.5 -51.5t65.5 -140.5 q55 41 100.5 75.5t89 60t88 40.5t97.5 16h8q52 0 90 -12q42 -13 69 -37.5t40.5 -59.5t13.5 -79v-615q0 -32 11.5 -50t28 -27t36.5 -12t36.5 -6t28 -8.5t11.5 -19.5t-8 -19t-25 -5q-19 0 -38.5 0.5t-44 1.5t-55.5 1.5t-73 0.5t-73.5 -0.5t-55.5 -1.5t-43.5 -1.5t-38.5 -0.5 q-17 0 -25 5t-8 19t11.5 19.5t28 8.5t36.5 6t36.5 12t28 27t11.5 50v566q0 131 -127 131q-22 0 -49.5 -5.5t-61.5 -19.5t-76.5 -39t-95.5 -63v-570q0 -32 11.5 -50t28 -27t36.5 -12t36.5 -6t28 -8.5t11.5 -19.5t-8 -19t-25 -5q-19 0 -38.5 0.5t-43.5 1.5t-55.5 1.5 t-73.5 0.5t-73.5 -0.5t-55.5 -1.5t-43.5 -1.5t-38.5 -0.5q-17 0 -25 5t-8 19t11.5 19.5t28 8.5t36.5 6t36.5 12t28 27t11.5 50v566q0 65 -34.5 98t-100.5 33q-69 0 -134.5 -34t-140.5 -106v-557q0 -32 11.5 -50t28 -27t36.5 -12t36.5 -6t28 -8.5t11.5 -19.5t-8 -19t-25 -5 q-19 0 -38.5 0.5t-43.5 1.5t-55.5 1.5t-73.5 0.5t-73.5 -0.5t-55.5 -1.5t-43.5 -1.5t-38.5 -0.5q-17 0 -25 5t-8 19z" />
<glyph unicode="n" horiz-adv-x="1214" d="M53 20q0 14 11.5 19.5t28 8.5t36.5 6t36.5 12t28 27t11.5 50v566q0 34 -11.5 53.5t-28 29.5t-36.5 13.5t-36.5 6.5t-28 7.5t-11.5 16.5q0 14 13 17.5t50 10.5t102.5 24.5t170.5 57.5v-188q37 27 80.5 60t92.5 61.5t103 47.5t111 19q62 0 106 -16t72 -44t41 -67t13 -84 v-592q0 -32 11 -50t28 -27t36.5 -12t36.5 -6t28 -8.5t11 -19.5t-8 -19t-25 -5q-19 0 -38.5 0.5t-43.5 1.5t-55.5 1.5t-73.5 0.5t-73 -0.5t-55 -1.5t-43.5 -1.5t-38.5 -0.5q-17 0 -25 5t-8 19t11 19.5t28 8.5t36.5 6t36.5 12t28 27t11 50v562q0 65 -30.5 100t-108.5 35 q-44 0 -81.5 -9t-73 -27t-69.5 -44t-71 -60v-557q0 -32 11.5 -50t28 -27t36.5 -12t36.5 -6t28 -8.5t11.5 -19.5t-8 -19t-25 -5q-19 0 -38.5 0.5t-43.5 1.5t-55.5 1.5t-73.5 0.5t-73.5 -0.5t-55.5 -1.5t-43.5 -1.5t-38.5 -0.5q-17 0 -25 5t-8 19z" />
<glyph unicode="o" horiz-adv-x="1100" d="M74 465q0 95 36 182t99.5 153.5t150.5 106t189 39.5t189 -39.5t150.5 -106t99.5 -153.5t36 -182t-36 -182t-99.5 -153.5t-150.5 -106t-189 -39.5t-189 39.5t-150.5 106t-99.5 153.5t-36 182zM270 465q0 -82 15 -160t48 -138.5t86 -97t130 -36.5t130 36.5t86 97 t47.5 138.5t14.5 160t-14.5 160t-47.5 138.5t-86 97t-130 36.5t-130 -36.5t-86 -97t-48 -138.5t-15 -160z" />
<glyph unicode="p" horiz-adv-x="1139" d="M25 836q0 14 13 17.5t50 10.5t103.5 24.5t173.5 57.5v-168q35 33 70.5 63.5t75 53.5t84 37t95.5 14q78 0 146.5 -33t119.5 -91.5t80 -137t29 -170.5q0 -117 -40 -214t-107.5 -167.5t-156.5 -109.5t-188 -39q-31 0 -62.5 2t-59.5 5t-50 7.5t-36 9.5v-270q0 -32 11 -50 t27 -27t35.5 -12t35.5 -5.5t27 -7t11 -17.5q0 -9 -7 -12.5t-24 -3.5q-59 0 -109 2t-100 2q-49 0 -99.5 -2t-109.5 -2q-17 0 -23.5 3.5t-6.5 12.5q0 13 11 17.5t27 7t35.5 5.5t35.5 12t27 27t11 50v971q0 34 -11.5 53.5t-28.5 29.5t-37.5 13.5t-37.5 6.5t-28.5 7.5 t-11.5 16.5zM365 236q0 -55 17 -96t45.5 -67.5t66.5 -39.5t79 -13q67 0 123.5 31.5t97.5 91t64 144.5t23 192q0 62 -15.5 126.5t-49.5 116.5t-87.5 85t-128.5 33q-67 0 -121.5 -29t-113.5 -82v-493z" />
<glyph unicode="q" horiz-adv-x="1139" d="M74 418q0 108 40 204t107.5 168t156 114t185.5 42q52 0 96.5 -11t80 -27t62 -34.5t42.5 -33.5l114 106v-1208q0 -32 11 -50t27.5 -27t35.5 -12t35.5 -5.5t27.5 -7t11 -17.5q0 -9 -7 -12.5t-24 -3.5q-59 0 -109 2t-100 2q-49 0 -99.5 -2t-109.5 -2q-17 0 -23.5 3.5 t-6.5 12.5q0 13 11 17.5t27 7t35.5 5.5t35.5 12t27 27t11 50v401h-4q-21 -25 -50.5 -52.5t-69 -50t-90.5 -37.5t-114 -15q-89 0 -158 29.5t-116.5 85.5t-72.5 136.5t-25 182.5zM258 453q0 -94 21 -165.5t57.5 -118.5t85.5 -71t106 -24q78 0 139 34.5t107 96.5v487 q0 51 -15.5 91t-43 68t-66 43t-84.5 15q-60 0 -115 -31.5t-98 -90t-68.5 -143t-25.5 -191.5z" />
<glyph unicode="r" horiz-adv-x="834" d="M66 840q0 14 22 19t65.5 12t107.5 23t149 52v-266h4q35 81 70 133t69.5 81.5t68.5 40.5t68 11q62 0 94.5 -29t32.5 -81q0 -50 -30.5 -74.5t-73.5 -24.5q-26 0 -40.5 7.5t-26.5 17t-27 17t-44 7.5q-32 0 -62 -24.5t-53 -71t-36.5 -112.5t-13.5 -150v-285q0 -32 11 -50 t28 -27t36.5 -12t36.5 -6t28 -8.5t11 -19.5t-8 -19t-25 -5q-19 0 -38.5 0.5t-43.5 1.5t-55.5 1.5t-73.5 0.5t-73 -0.5t-55 -1.5t-43.5 -1.5t-39.5 -0.5q-17 0 -24.5 5t-7.5 19t11 19.5t28 8.5t36.5 6t36.5 12t28 27t11 50v557q0 37 -12 57.5t-29.5 32t-38 16t-38 7.5 t-29.5 8.5t-12 18.5z" />
<glyph unicode="s" horiz-adv-x="872" d="M86 35v301q0 37 18 37q8 0 15.5 -12t19.5 -52q21 -67 52.5 -120.5t72 -91t88.5 -57.5t103 -20q47 0 80.5 15.5t54.5 40.5t31 56.5t10 62.5q0 39 -23 68t-60.5 53t-85.5 44.5t-97.5 42t-97.5 46.5t-85.5 57.5t-60.5 75.5t-23 100q0 51 22 99t64 84.5t104 58.5t142 22 q35 0 76 -5t80.5 -13t76 -19.5t61.5 -23.5v-262q0 -23 -15 -23q-13 0 -16.5 13.5t-12.5 39.5q-18 49 -41 95t-55.5 82t-76.5 57.5t-104 21.5q-31 0 -58.5 -9t-47.5 -27.5t-31.5 -46.5t-11.5 -66t23 -68.5t60.5 -55.5t85 -47.5t97.5 -46.5t97.5 -50t85 -59t60.5 -74.5 t23 -94.5q0 -57 -22.5 -108t-69 -89.5t-117.5 -60.5t-167 -22q-85 0 -162 11t-162 40z" />
<glyph unicode="t" horiz-adv-x="721" d="M45 831v5q119 68 200 170t120 227h4v-303h274l-37 -99h-237v-573q0 -51 11 -84.5t31.5 -54t50 -29t66.5 -8.5q43 0 71 16t46.5 35t30.5 35t22 16q15 0 15 -16q0 -9 -16.5 -38.5t-51.5 -62t-89.5 -58t-129.5 -25.5q-121 0 -181.5 70.5t-60.5 203.5v573h-139z" />
<glyph unicode="u" horiz-adv-x="1176" d="M27 840q0 14 22 19t65.5 12t107.5 23t149 52v-721q0 -65 30.5 -100t108.5 -35q44 0 81.5 7.5t73 23t69.5 38.5t71 54v487q0 37 -12 57.5t-29.5 32t-38.5 16t-38.5 7.5t-29.5 8.5t-12 18.5q0 14 22 19t65.5 12t108 23t148.5 52v-717q0 -36 12 -57t29.5 -32t38.5 -15.5 t38.5 -7.5t29.5 -8.5t12 -18.5q0 -14 -22 -18.5t-65.5 -12t-108 -23.5t-148.5 -52v180q-37 -28 -80.5 -59.5t-92.5 -58.5t-103 -44.5t-111 -17.5q-62 0 -106 16t-72 44t-41 67t-13 84v505q0 37 -12 57.5t-29.5 32t-38 16t-38 7.5t-29.5 8.5t-12 18.5z" />
<glyph unicode="v" horiz-adv-x="1024" d="M2 918q0 9 7.5 12.5t17.5 3.5q13 0 34 -0.5t45.5 -1.5t51 -1.5t49.5 -0.5q21 0 47.5 0.5t52.5 1.5t49 1.5t37 0.5q17 0 28 -4.5t11 -18.5q0 -12 -18 -15.5t-39.5 -8.5t-39.5 -17t-18 -41q0 -14 4 -27t9 -24l225 -573l119 252q32 66 51 113.5t29.5 82.5t14 61.5t3.5 51.5 q0 40 -8.5 63.5t-21.5 36t-27.5 17t-27.5 7.5t-21.5 6.5t-8.5 14.5q0 14 11 18.5t34 4.5q20 0 59.5 -2t84.5 -2q38 0 71.5 2t61.5 2q22 0 32.5 -4t10.5 -15q0 -10 -15 -17t-38 -21t-50.5 -41.5t-52.5 -79.5l-360 -760q-6 -12 -11.5 -20.5t-15.5 -8.5q-9 0 -15 8.5t-11 20.5 l-330 811q-18 43 -39 59.5t-39 22.5t-30.5 9.5t-12.5 19.5z" />
<glyph unicode="w" horiz-adv-x="1479" d="M12 918q0 9 9 12.5t32 3.5t60.5 -2t87.5 -2q65 0 104.5 2t56.5 2q26 0 37 -3.5t11 -12.5q0 -13 -14 -16.5t-31.5 -7.5t-31.5 -14.5t-14 -37.5q0 -29 9 -56.5t18 -50.5l197 -493l159 415l-63 150q-18 40 -39 57t-40 24.5t-31.5 10.5t-12.5 14q0 13 4 17t17 4q31 0 70 -2 t104 -2q66 0 118.5 2t83.5 2q16 0 25.5 -4t9.5 -15q0 -10 -8.5 -14.5t-21.5 -6.5t-28.5 -4.5t-28.5 -9t-21.5 -19.5t-8.5 -36q0 -4 3 -12.5t6.5 -17.5t7.5 -18t6 -15l213 -535l104 267q15 38 30 80.5t26.5 81.5t18.5 70.5t7 47.5q0 35 -9 55.5t-23 32.5t-29.5 17.5t-29.5 9 t-23 8t-9 14.5q0 23 31 23q22 0 58 -2t86 -2q52 0 94.5 2t60.5 2q35 0 35 -23q0 -8 -7.5 -10.5t-20.5 -7t-31 -13t-38.5 -29t-43 -55.5t-45.5 -91l-281 -703q-8 -19 -15 -27t-20 -8q-12 0 -18 8t-14 27l-236 606l-221 -606q-11 -35 -33 -35q-12 0 -19.5 8t-15.5 27l-315 817 q-11 28 -23 43.5t-24 23.5t-23.5 10.5t-20 4t-13.5 5t-5 12.5z" />
<glyph unicode="x" horiz-adv-x="1100" d="M8 25q0 12 8.5 16.5t24.5 8.5t38.5 10t50.5 21t61.5 42t70.5 72l213 258l-248 364q-24 34 -50 48t-48 20t-36.5 9t-14.5 15q0 13 7 19t24 6q11 0 32 -0.5t46.5 -1.5t51.5 -1.5t46 -0.5q35 0 69.5 0.5t65 1.5t55.5 1.5t41 0.5q22 0 31.5 -5.5t9.5 -21.5q0 -11 -16 -13.5 t-35.5 -7t-36 -16.5t-16.5 -41q0 -15 5 -30.5t20 -41t43 -66.5t73 -107q74 87 110.5 140t36.5 87q0 24 -7.5 37.5t-18 20.5t-23.5 10t-23.5 6.5t-18 8.5t-7.5 17q0 10 8.5 16.5t28.5 6.5q23 0 59 -2t78 -2q54 0 101 2t73 2q19 0 26 -6.5t7 -16.5t-5.5 -14t-17 -7t-28.5 -7.5 t-40 -16.5t-51.5 -34.5t-62.5 -59.5l-203 -221l304 -445q22 -32 49.5 -42.5t51.5 -14t40 -8t16 -25.5q0 -12 -16 -16t-39 -4q-51 0 -102.5 2t-102.5 2q-52 0 -105 -2t-116 -2q-33 0 -33 27q0 13 9 18.5t22.5 8t29 3.5t29 5.5t22.5 14t9 29.5q0 23 -19.5 56.5t-48 75 t-60.5 88.5t-58 96q-52 -62 -83 -105t-46.5 -73.5t-20 -51t-4.5 -38.5q0 -32 8 -50.5t20 -29t25.5 -15t25.5 -9t20 -11t8 -19.5q0 -12 -10.5 -16t-30.5 -4q-16 0 -32 0.5t-37.5 1.5t-52 1.5t-75.5 0.5q-56 0 -97 -2t-69 -2q-18 0 -28.5 6.5t-10.5 22.5z" />
<glyph unicode="y" horiz-adv-x="1100" d="M20 907q0 27 37 27q48 0 92 -2t89 -2t88 2t88 2q17 0 24.5 -6.5t7.5 -16.5q0 -19 -13.5 -24t-29.5 -9t-29.5 -13.5t-13.5 -37.5q0 -18 4.5 -36.5t14 -40t23.5 -49t32 -64.5l201 -410l113 287q19 48 30.5 83.5t17.5 62t8 47t3 38.5v7q0 36 -9 58q-11 25 -28 39.5t-36.5 21 t-36.5 11t-28.5 10t-11.5 17.5q0 10 8.5 17.5t26.5 7.5q56 0 99.5 -2t87.5 -2q42 0 84 2t84 2q21 0 29.5 -5.5t8.5 -19.5q0 -10 -9 -14.5t-24.5 -10t-36.5 -16t-45 -33t-50 -60.5t-52 -99l-319 -746q-52 -123 -92.5 -195.5t-73 -110t-60 -48t-53.5 -10.5q-41 0 -68.5 16 t-44 40t-23.5 51t-7 48q0 41 22.5 70t65.5 29q26 0 41.5 -10.5t24.5 -26.5t14.5 -35t11.5 -35t15 -26.5t26 -10.5q11 0 22.5 9.5t22.5 25.5t22 35.5t21 40.5l107 227l-373 760q-24 49 -50.5 70.5t-48.5 30.5t-36.5 13t-14.5 19z" />
<glyph unicode="z" horiz-adv-x="985" d="M61 -4l592 889q-93 0 -167 -10.5t-132.5 -39t-102.5 -78.5t-77 -128q-15 -37 -21 -47.5t-16 -10.5q-8 0 -11 6.5t-3 14.5t10.5 47.5t24.5 91.5t29.5 107.5t25.5 95.5q85 0 170 -2t170 -2t170 2t170 2l-594 -901q54 0 110.5 2.5t113 17t112 45t106.5 86.5q35 38 54.5 75.5 t31 67.5t18.5 49t17 19q17 0 17 -20q0 -4 -4 -25t-10.5 -53t-15 -71t-17 -80t-17 -80t-14.5 -70q-93 0 -184.5 2t-184.5 2q-94 0 -186 -2t-185 -2z" />
<glyph unicode="{" horiz-adv-x="781" d="M100 530q48 15 78 36.5t47.5 52t24 71t6.5 94.5v400q0 100 21 161t62 94.5t101.5 44.5t140.5 11v-49q-42 -4 -70.5 -18t-46 -41t-25 -68t-7.5 -98v-404q0 -59 -6 -105.5t-24 -81.5t-50.5 -59t-85.5 -39v-4q53 -15 85.5 -39t50.5 -59t24 -81t6 -105v-404q0 -57 7.5 -98 t25 -68t46 -41t70.5 -18v-49q-80 0 -140.5 11t-101.5 44.5t-62 94.5t-21 161v399q0 54 -6.5 94.5t-24 71t-47.5 52t-78 36.5z" />
<glyph unicode="|" horiz-adv-x="455" d="M158 0v1495h139v-1495h-139z" />
<glyph unicode="}" horiz-adv-x="782" d="M100 -385q42 4 71 18t46.5 41t25 68t7.5 98v404q0 59 6 105t24 81t50.5 59t85.5 39v4q-53 15 -85.5 39t-50.5 59t-24 81.5t-6 105.5v404q0 57 -7.5 98t-25 68t-46.5 41t-71 18v49q80 0 141 -11t102 -44.5t62 -94.5t21 -161v-400q0 -54 6.5 -94.5t24 -71t47.5 -52 t78 -36.5q-48 -15 -78 -36.5t-47.5 -52t-24 -71t-6.5 -94.5v-399q0 -100 -21 -161t-62 -94.5t-102 -44.5t-141 -11v49z" />
<glyph unicode="~" horiz-adv-x="1229" d="M190 442q15 26 36 53.5t48.5 51t63.5 38.5t82 15t98.5 -18t106.5 -41q25 -11 50.5 -23t49.5 -22t46 -16.5t40 -6.5q28 0 50.5 12t42 30t36.5 40t33 43l65 -113q-24 -32 -46.5 -60.5t-48.5 -49.5t-58.5 -33t-75.5 -12q-51 0 -96 16.5t-90 38.5q-45 28 -97.5 48t-115.5 20 q-29 0 -53 -11.5t-42.5 -29.5t-33 -39.5t-25.5 -42.5z" />
<glyph unicode="&#xa1;" horiz-adv-x="797" d="M285 -118q0 71 14.5 156.5t32.5 182t32.5 201t14.5 212.5q0 9 -1 19.5t-1 27.5q0 11 5 18t17 7q13 0 18 -7t5 -18q0 -17 -1 -27.5t-1 -19.5q0 -108 14.5 -212.5t32.5 -201t32.5 -182t14.5 -156.5q0 -44 -7 -80t-21 -61.5t-36 -40t-51 -14.5q-58 0 -86 54.5t-28 141.5z M291 1015q0 23 9.5 43t24.5 34.5t34.5 23t39.5 8.5t39.5 -8.5t35 -23t25 -34.5t9.5 -43q0 -24 -9.5 -44t-25 -34.5t-35 -22.5t-39.5 -8t-39.5 8t-34.5 22.5t-24.5 34.5t-9.5 44z" />
<glyph unicode="&#xa2;" horiz-adv-x="1139" d="M162 664q0 110 39 200t102.5 154t144 98.5t162.5 34.5q25 0 43.5 -1.5t33 -4.5t26.5 -6t22 -6l119 262h61l-129 -279q96 -49 143.5 -114.5t47.5 -153.5q0 -37 -11 -63.5t-28.5 -43.5t-38.5 -25.5t-41 -8.5q-49 0 -77.5 33t-28.5 91q0 15 2 35l2 42q2 20 3 38.5t1 30.5v27 q0 9 -0.5 16t-1 13t-2.5 16h-4l-277 -596q48 -31 94.5 -49.5t112.5 -18.5q48 0 84 11.5t63.5 28t47 36.5t33 36.5t22 28t14.5 11.5q8 0 13.5 -5t5.5 -14t-10.5 -33t-31.5 -55t-53 -65t-75.5 -62t-98 -46.5t-121.5 -18.5q-65 0 -106.5 10.5t-75.5 27.5l-135 -280h-59l143 309 q-37 26 -69.5 65.5t-57 87t-39 100.5t-14.5 106zM358 754q0 -74 13.5 -138.5t60.5 -119.5l281 598q-14 9 -34.5 14.5t-51.5 5.5q-45 0 -93 -23.5t-87 -69t-64 -113t-25 -154.5z" />
<glyph unicode="&#xa3;" horiz-adv-x="1139" d="M88 176q0 40 14.5 73t40 57t61.5 37t79 13q34 0 61 -5.5t56.5 -20t65.5 -39.5t87 -64q29 45 38 86.5t9 79.5q0 56 -39 122.5t-123 143.5h-286v66h233q-25 21 -56.5 55t-60 77t-48 94.5t-19.5 107.5q0 72 23 135t65 110t100.5 74t128.5 27q51 0 94 -13t78 -29t62.5 -29 t46.5 -13q21 0 30.5 8t14.5 17.5t9 17.5t13 8q17 0 17 -20l39 -418q2 -9 -1.5 -16t-13.5 -7q-4 0 -7.5 3.5t-8 15t-11.5 31.5t-18 53q-27 80 -63 145t-81 111.5t-97 72t-111 25.5q-48 0 -85.5 -18t-63.5 -47t-40 -67t-14 -77q0 -42 17.5 -79.5t45 -72.5t61.5 -68t68 -67 t64.5 -70t50.5 -77h240v-66h-211q8 -26 17.5 -58.5t9.5 -80.5q0 -40 -4 -78.5t-14 -76.5t-27 -77.5t-43 -82.5q22 -22 47.5 -38t50 -25.5t47 -14t39.5 -4.5q65 0 108 23t70 62.5t41 92t21 111.5q3 33 5 53.5t4 31.5t5 15t8 4q12 0 17.5 -11t5.5 -40q0 -104 -24.5 -194.5 t-68 -158t-103 -106.5t-128.5 -39q-42 0 -76 11t-62.5 28.5t-51.5 38t-43 39.5q-13 -11 -33 -25.5t-46 -27.5t-58 -22t-70 -9q-42 0 -78.5 15.5t-63.5 40.5t-42 56.5t-15 63.5zM137 178q0 -30 13.5 -56t35.5 -44.5t49.5 -29.5t55.5 -11q48 0 95.5 20t82.5 54l-57 71 q-14 18 -30.5 37t-36.5 35t-45 26.5t-56 10.5q-47 0 -77 -31.5t-30 -81.5z" />
<glyph unicode="&#xa4;" horiz-adv-x="1139" d="M57 268l113 111q-57 65 -83 147t-26 168q0 87 26 169t83 147l-113 110l86 86l115 -114q65 55 145 82.5t166 27.5q87 0 167 -27.5t145 -82.5l114 114l86 -86l-112 -110q57 -65 82.5 -147t25.5 -169q0 -86 -25.5 -168t-82.5 -147l112 -111l-86 -86l-114 115 q-65 -56 -145 -83.5t-167 -27.5q-86 0 -166 27.5t-145 83.5l-115 -115zM188 694q0 -78 29.5 -149t80.5 -124t120.5 -84.5t150.5 -31.5t150.5 31.5t120.5 84.5t80.5 124t29.5 149t-29.5 149t-80.5 124t-120.5 84.5t-150.5 31.5t-150.5 -31.5t-120.5 -84.5t-80.5 -124 t-29.5 -149z" />
<glyph unicode="&#xa5;" horiz-adv-x="1139" d="M-25 1370q0 12 14 17.5t48 5.5q10 0 24.5 -0.5t36 -1.5t52 -1.5t71.5 -0.5q48 0 79.5 0.5t53 1.5t36 1.5t28.5 0.5q38 0 49.5 -4t11.5 -21q0 -12 -9.5 -16.5t-23.5 -7t-30.5 -5t-30.5 -9t-23.5 -19.5t-9.5 -37q0 -32 14.5 -72.5t45.5 -93.5l233 -410l186 289 q41 62 70 124t29 118q0 36 -10.5 56.5t-26.5 32t-35 16t-35 7.5t-26.5 7.5t-10.5 15.5q0 15 8.5 22t34.5 7q16 0 32.5 -0.5t38.5 -1.5t52.5 -1.5t75.5 -0.5q33 0 57 0.5t41.5 1.5t30.5 1.5t25 0.5q26 0 36.5 -6.5t10.5 -20.5q0 -10 -8.5 -14t-24 -9.5t-38.5 -16.5t-52 -33.5 t-63.5 -60.5t-73.5 -99l-240 -375h326v-62h-367l-8 -16v-143h375v-62h-375v-299q0 -44 13.5 -68.5t33.5 -36.5t43 -15.5t43 -6t33.5 -8t13.5 -21.5q0 -9 -6 -16.5t-20 -7.5q-19 0 -39 0.5t-48.5 1.5t-68 1.5t-96.5 0.5q-58 0 -97.5 -0.5t-68 -1.5t-48.5 -1.5t-38 -0.5 q-14 0 -20.5 7.5t-6.5 16.5q0 16 13.5 21.5t33.5 8t43 6t43 15.5t33.5 36.5t13.5 68.5v299h-362v62h362v110l-24 49h-338v62h303l-268 489q-27 48 -58.5 66.5t-59 24.5t-45.5 9.5t-18 22.5z" />
<glyph unicode="&#xa6;" horiz-adv-x="455" d="M158 0v553h139v-553h-139zM158 942v553h139v-553h-139z" />
<glyph unicode="&#xa7;" horiz-adv-x="1024" d="M90 172q0 11 4.5 18t14.5 7q8 0 12 -6t9 -18.5t13 -33.5t23 -51q29 -55 63.5 -109t77.5 -96.5t94.5 -69t112.5 -26.5q62 0 102.5 18.5t63.5 47t32 63t9 66.5q0 49 -26 85.5t-68.5 66t-97 54.5t-111.5 51t-111.5 55.5t-97 68t-68.5 88.5t-26 116q0 50 15.5 93.5t49 79.5 t86.5 65.5t129 50.5q-120 74 -179.5 146t-59.5 147q0 54 23.5 103.5t65.5 87t100 59.5t126 22q52 0 95.5 -9t78 -20.5t60.5 -20.5t43 -9q21 0 32 9t18 20.5t13 20.5t16 9q13 0 13 -16v-369q0 -20 -21 -20q-6 0 -10 4t-7.5 15t-8 30t-11.5 49q-7 31 -27.5 77t-55.5 89 t-85.5 73.5t-117.5 30.5q-33 0 -62.5 -11.5t-52 -33.5t-36 -53.5t-13.5 -71.5q0 -51 25 -90t66.5 -71.5t94 -60.5t107.5 -57.5t107.5 -62t94 -73.5t66.5 -93t25 -120q0 -66 -23 -113.5t-56 -80t-69 -52.5t-61 -31v-4q1 0 13.5 -5.5t32 -17t41.5 -31t41 -47t31.5 -64.5 t12.5 -85q0 -60 -27.5 -115.5t-77 -97.5t-118.5 -67t-152 -25q-60 0 -105 11t-79.5 24.5t-60.5 25t-48 11.5q-23 0 -37.5 -8.5t-24.5 -19t-18 -19t-18 -8.5q-13 0 -19 6t-6 24v375zM274 633q0 -42 26.5 -79.5t77.5 -73.5t125.5 -73t170.5 -79q13 10 29.5 26.5t31.5 39 t25 50.5t10 62q0 65 -31.5 112t-81 83t-109.5 65.5t-118 60.5q-45 -15 -75 -35t-48 -45t-25.5 -53.5t-7.5 -60.5z" />
<glyph unicode="&#xa8;" horiz-adv-x="606" d="M0 1176q0 21 6 39.5t18 32.5t30.5 22t43.5 8q21 0 40.5 -8t34 -22t23.5 -32.5t9 -39.5q0 -22 -9 -40.5t-23.5 -32.5t-34 -22t-40.5 -8q-51 0 -74.5 29.5t-23.5 73.5zM401 1176q0 21 6 39.5t18 32.5t31 22t44 8q21 0 40 -8t33.5 -22t23.5 -32.5t9 -39.5q0 -22 -9 -40.5 t-23.5 -32.5t-33.5 -22t-40 -8q-51 0 -75 29.5t-24 73.5z" />
<glyph unicode="&#xa9;" horiz-adv-x="1638" d="M106 694q0 152 54.5 285t150.5 231t226.5 154.5t281.5 56.5q101 0 193 -25.5t171.5 -72.5t143.5 -113t109.5 -147t70.5 -174.5t25 -194.5q0 -152 -54.5 -284.5t-150.5 -231t-226 -155t-282 -56.5q-151 0 -281.5 56.5t-226.5 155t-150.5 231t-54.5 284.5zM246 694 q0 -84 20 -163t57 -148t89 -127t115.5 -99t137.5 -64t154 -23q81 0 154.5 23t137.5 64t116 99t89 127t57 148t20 163q0 126 -44.5 239.5t-122 199t-182 136t-225.5 50.5q-80 0 -154 -23t-137.5 -64.5t-115.5 -99t-89 -127t-57 -148.5t-20 -163zM414 717q0 84 29.5 158 t88 129t145 86.5t200.5 31.5q46 0 92 -7t83 -18t60 -25t23 -28v-151h-37q-25 84 -80.5 132t-143.5 48q-51 0 -97.5 -21t-82 -63.5t-56 -107.5t-20.5 -154q0 -100 18 -172t52 -118t82 -67.5t109 -21.5q46 0 84 14t69.5 39t55.5 58.5t42 72.5h37l-32 -161q-2 -9 -27.5 -21 t-65 -23.5t-87.5 -19.5t-95 -8q-98 0 -180 25.5t-141 77.5t-92 130.5t-33 184.5z" />
<glyph unicode="&#xaa;" horiz-adv-x="614" d="M33 948q0 29 11.5 53t48.5 50t106.5 58t185.5 77v127q0 28 -11 39.5t-42 11.5q-37 0 -58.5 -14.5t-35.5 -36t-23 -47t-22.5 -47t-35 -36t-59.5 -14.5q-10 0 -18.5 5.5t-15 14t-9.5 19.5t-2 23q0 28 31 58.5t77 56t100.5 42.5t100.5 17q72 0 113 -30.5t41 -96.5v-365 q0 -17 9.5 -22.5t25.5 -5.5q14 0 26 6t21 12q9 8 16.5 13.5t10.5 5.5q5 0 8.5 -3t3.5 -10q0 -4 -12.5 -17t-32.5 -27.5t-45.5 -26t-52.5 -11.5t-43.5 7.5t-27 19.5t-16 26t-10.5 27q-26 -21 -55 -36.5t-59 -25t-58.5 -14t-54.5 -4.5q-28 0 -52.5 9t-43.5 25.5t-30 38.5 t-11 48zM172 969q0 -26 5 -42.5t14 -25.5t20.5 -12.5t24.5 -3.5q20 0 60.5 16.5t88.5 61.5v178q-63 -24 -104 -44t-65.5 -39.5t-34 -40.5t-9.5 -48z" />
<glyph unicode="&#xab;" horiz-adv-x="1065" d="M150 465q0 28 18 49l305 315q7 7 14.5 12t16.5 5q8 0 15.5 -6t7.5 -17q0 -9 -5 -17t-10 -13l-246 -328l246 -328q5 -5 10 -13t5 -18q0 -11 -7.5 -16.5t-15.5 -5.5q-9 0 -16.5 5t-14.5 11l-305 316q-9 11 -13.5 22t-4.5 27zM439 465q0 28 18 49l305 315q6 7 14 12t17 5 q8 0 15 -6t7 -17q0 -9 -4.5 -17t-9.5 -13l-246 -328l246 -328q5 -5 9.5 -13t4.5 -18q0 -11 -7 -16.5t-15 -5.5q-9 0 -17 5t-14 11l-305 316q-9 11 -13.5 22t-4.5 27z" />
<glyph unicode="&#xac;" d="M135 584v139h929v-516h-139v377h-790z" />
<glyph unicode="&#xad;" d="M300 385v156h600v-156h-600z" />
<glyph unicode="&#x2212;" d="M300 385v156h600v-156h-600z" />
<glyph unicode="&#xae;" horiz-adv-x="1638" d="M106 694q0 152 54.5 285t150.5 231t226.5 154.5t281.5 56.5q101 0 193 -25.5t171.5 -72.5t143.5 -113t109.5 -147t70.5 -174.5t25 -194.5q0 -152 -54.5 -284.5t-150.5 -231t-226 -155t-282 -56.5q-151 0 -281.5 56.5t-226.5 155t-150.5 231t-54.5 284.5zM246 694 q0 -84 20 -163t57 -148t89 -127t115.5 -99t137.5 -64t154 -23q81 0 154.5 23t137.5 64t116 99t89 127t57 148t20 163q0 126 -44.5 239.5t-122 199t-182 136t-225.5 50.5q-80 0 -154 -23t-137.5 -64.5t-115.5 -99t-89 -127t-57 -148.5t-20 -163zM475 319v37q35 2 55.5 6 t31 13t13.5 24.5t3 42.5v533q0 27 -3 43t-13.5 25t-31 12.5t-55.5 5.5v37h399q47 0 89.5 -13.5t75 -39.5t52 -63t19.5 -85q0 -36 -12 -69t-33.5 -61t-51.5 -49.5t-67 -33.5q25 -37 57 -83.5t66.5 -94t70.5 -90.5t68 -72v-25h-166q-24 0 -47.5 30t-50.5 78.5t-59.5 109.5 t-73.5 122h-74v-217q0 -27 2.5 -42.5t13 -24.5t31 -13t56.5 -6v-37h-365zM737 709h70q26 0 50 11.5t42 35.5t28.5 60t10.5 85q0 74 -31.5 111t-99.5 37h-70v-340z" />
<glyph unicode="&#xaf;" horiz-adv-x="606" d="M-16 1122v111h639v-111h-639z" />
<glyph unicode="&#xb0;" horiz-adv-x="819" d="M125 1120q0 60 22 112t60 90.5t90 60.5t113 22q60 0 112 -22t90.5 -60.5t60 -90.5t21.5 -112t-21.5 -111.5t-60 -90t-90.5 -60.5t-112 -22q-61 0 -113 22t-90 60.5t-60 90t-22 111.5zM231 1120q0 -40 12.5 -74.5t36 -59t56.5 -38.5t74 -14t73.5 14t56 38.5t36 59 t12.5 74.5q0 41 -12.5 75.5t-36 59t-56 38.5t-73.5 14t-74 -14t-56.5 -38.5t-36 -59t-12.5 -75.5z" />
<glyph unicode="&#xb1;" d="M135 0v139h929v-139h-929zM135 514v139h395v277h139v-277h395v-139h-395v-276h-139v276h-395z" />
<glyph unicode="&#xb2;" horiz-adv-x="682" d="M43 561q5 60 27 107.5t54.5 85.5t72.5 69t80.5 59t79.5 55t69 56.5t48 64.5t18 79q0 38 -11.5 72t-35 59.5t-59 40t-83.5 14.5q-31 0 -57.5 -8t-49 -21.5t-41 -31.5t-32.5 -37t-22 -32.5t-13.5 -22.5t-9.5 -13t-10 -4q-15 0 -15 16q0 11 8.5 33t25.5 48t43 53.5t61 50 t79 37t97 14.5q50 0 98.5 -16.5t87 -47.5t62.5 -75t24 -99q0 -65 -26.5 -109.5t-70 -79t-98 -63.5t-109.5 -62.5t-106.5 -76t-87.5 -104.5h318q46 0 72.5 14.5t42.5 31.5t25.5 31.5t21.5 14.5q11 0 13.5 -4t2.5 -12q0 -6 -7 -28t-17 -50.5t-21 -58t-19 -50.5h-530z" />
<glyph unicode="&#xb3;" horiz-adv-x="682" d="M20 713q0 26 18 44.5t46 18.5q35 0 60 -28t36 -66q13 -43 45 -67.5t92 -24.5q39 0 75 13.5t64 39t45 61.5t17 80q0 27 -8.5 57t-24.5 57t-38 48.5t-48 32.5q-22 9 -43 10t-37 1t-26 2t-10 14q0 10 11.5 14t28.5 9t36.5 13t36.5 24.5t28.5 44.5t11.5 73q0 33 -11 59 t-30.5 43.5t-46 27t-57.5 9.5q-50 0 -83 -17.5t-54.5 -38t-33.5 -38t-20 -17.5t-12 6t-4 15q0 2 6 15.5t19.5 32.5t33.5 41t48.5 40.5t65.5 30.5t83 12q48 0 89 -15.5t72 -42t48.5 -61t17.5 -72.5q0 -40 -15.5 -75t-55.5 -72q141 -88 141 -231q0 -23 -8 -53.5t-25 -62.5 t-45 -62.5t-68.5 -54.5t-94 -39t-122.5 -15q-58 0 -105 16t-80 40t-51 53t-18 55z" />
<glyph unicode="&#xb4;" horiz-adv-x="606" d="M147 1040l308 312q21 21 44.5 31t43.5 10q28 0 46.5 -19t18.5 -45q0 -25 -11 -44t-30 -30l-338 -215h-82z" />
<glyph unicode="&#xb5;" horiz-adv-x="1176" d="M27 840q0 14 22 18.5t65.5 12t107.5 23.5t149 52v-721q0 -65 30.5 -100t108.5 -35q44 0 81.5 7.5t73 23t69.5 38.5t71 54v487q0 37 -12 57.5t-29.5 32t-38.5 16t-38.5 7.5t-29.5 8.5t-12 18.5q0 14 22 18.5t65.5 12t108 23.5t148.5 52v-717q0 -36 12 -57t29.5 -32 t38.5 -15.5t38.5 -8t29.5 -8.5t12 -18q0 -14 -22 -18.5t-65.5 -12t-108 -23.5t-148.5 -52v180q-37 -28 -80.5 -59.5t-92.5 -58.5t-103 -44.5t-111 -17.5q-13 0 -24 0.5t-23 3.5q0 -76 4 -152t4 -151q0 -65 -30 -92t-77 -27q-52 0 -81 28.5t-29 77.5q0 42 4 99t8.5 122.5 t8 135t3.5 135.5v536q0 37 -12 57.5t-29.5 32t-38 16t-38 7.5t-29.5 8.5t-12 18.5z" />
<glyph unicode="&#xb6;" horiz-adv-x="1229" d="M100 983q0 107 23.5 183.5t75 126t133 73t196.5 23.5h508v-50q-49 0 -81.5 -6.5t-51.5 -18.5t-27 -28.5t-8 -36.5v-1528h-118v1606h-123v-1606h-119v826q-106 0 -183 32t-127 89.5t-74 137.5t-24 177z" />
<glyph unicode="&#xb7;" horiz-adv-x="569" d="M176 465q0 24 9.5 43.5t25 34t35 22.5t39.5 8t39.5 -8t34.5 -22.5t24.5 -34t9.5 -43.5q0 -23 -9.5 -43t-24.5 -34.5t-34.5 -23t-39.5 -8.5t-39.5 8.5t-35 23t-25 34.5t-9.5 43z" />
<glyph unicode="&#xb8;" horiz-adv-x="606" d="M90 -418l29 64q37 -10 65 -16.5t68 -6.5q21 0 41.5 4.5t36.5 15t25.5 26.5t9.5 40q0 23 -9 39t-23 25.5t-30 13.5t-31 4q-21 0 -39.5 -4t-35.5 -10l-15 12l88 211h70l-53 -143q17 5 30.5 6.5t28.5 1.5q48 0 81 -13.5t52.5 -34.5t28 -46t8.5 -47q0 -44 -19 -77t-52 -54.5 t-77.5 -32.5t-95.5 -11q-26 0 -52 3t-50 7.5t-44.5 10.5t-35.5 12z" />
<glyph unicode="&#xb9;" horiz-adv-x="682" d="M72 1292q0 15 26.5 20t74.5 13.5t116 27.5t151 64v-715q0 -33 5 -53.5t19 -31.5t40 -15t69 -4q23 0 30 -7t7 -20q0 -14 -18 -14q-42 0 -99.5 2t-132.5 2q-74 0 -136 -2t-122 -2q-16 0 -16 14q0 13 6 20t31 7q49 0 80 4t48 15t23.5 31.5t6.5 53.5v541q0 31 -29 31h-162 q-8 0 -13 3t-5 15z" />
<glyph unicode="&#xba;" horiz-adv-x="659" d="M20 1116q0 58 23.5 110.5t65.5 92t98.5 63t122.5 23.5q67 0 123.5 -23.5t98 -63t64.5 -92t23 -110.5q0 -57 -23 -109t-64.5 -92t-98 -64t-123.5 -24q-66 0 -122.5 24t-98.5 64t-65.5 92t-23.5 109zM160 1116q0 -47 10.5 -90t32 -76t53.5 -53t74 -20t74 20t53 53t32 76 t11 90q0 45 -11 88.5t-32 77t-53 54t-74 20.5t-74 -20.5t-53.5 -54t-32 -77t-10.5 -88.5z" />
<glyph unicode="&#xbb;" horiz-adv-x="1065" d="M150 106q0 10 4.5 18t9.5 13l246 328l-246 328q-5 5 -9.5 13t-4.5 17q0 11 7 17t15 6q10 0 17.5 -5t13.5 -12l305 -315q9 -11 14 -22.5t5 -26.5q0 -16 -5 -27t-14 -22l-305 -316q-6 -6 -13.5 -11t-17.5 -5q-8 0 -15 5.5t-7 16.5zM439 106q0 10 4.5 18t9.5 13l246 328 l-246 328q-5 5 -9.5 13t-4.5 17q0 11 7 17t15 6q9 0 17 -5t14 -12l305 -315q18 -21 18 -49q0 -16 -4.5 -27t-13.5 -22l-305 -316q-6 -6 -14 -11t-17 -5q-8 0 -15 5.5t-7 16.5z" />
<glyph unicode="&#xbc;" horiz-adv-x="1700" d="M40 1292q0 15 26.5 20t74.5 13.5t116 27.5t151 64v-715q0 -33 5 -53.5t19 -31.5t40 -15t69 -4q23 0 30 -7t7 -20q0 -14 -18 -14q-42 0 -99.5 2t-132.5 2q-74 0 -136 -2t-122 -2q-16 0 -16 14q0 13 6 20t31 7q49 0 80 4t48 15t23.5 31.5t6.5 53.5v541q0 31 -29 31h-162 q-8 0 -13 3t-5 15zM386 -16l907 1421h119l-907 -1421h-119zM980 279l432 557h84v-533h141l-29 -74h-112v-114q0 -27 8.5 -42t21.5 -22t28.5 -9t28.5 -4.5t21.5 -7.5t8.5 -18q2 -8 -6.5 -12t-20.5 -4q-29 0 -67 2t-95 2t-94.5 -2t-65.5 -2q-20 0 -20 16q0 13 8 18t20 7.5 t26 4.5t26 9t20 22t8 42v114h-342zM1058 303h294v373h-4z" />
<glyph unicode="&#xbd;" horiz-adv-x="1700" d="M40 1292q0 15 26.5 20t75 13.5t116.5 27.5t151 64v-715q0 -33 4.5 -53.5t19 -31.5t40.5 -15t69 -4q23 0 30 -7t7 -20q0 -14 -18 -14q-42 0 -100 2t-132 2t-136 -2t-122 -2q-16 0 -16 14q0 13 6 20t31 7q49 0 79.5 4t48 15t23.5 31.5t6 53.5v541q0 31 -28 31h-162 q-8 0 -13.5 3t-5.5 15zM327 -16l907 1421h119l-907 -1421h-119zM1038 0q5 60 27 107.5t54 85.5t72 69t81 59t79.5 54.5t68.5 56.5t48 64.5t18 78.5q0 39 -11.5 73t-35 59.5t-58.5 40t-83 14.5q-31 0 -58 -8t-49.5 -21.5t-40.5 -31.5t-32 -37t-22 -33t-13.5 -22.5t-10 -12.5 t-10.5 -4q-14 0 -14 16q0 11 8.5 33t25.5 48t42.5 53.5t60.5 50t79 37t97 14.5q50 0 99 -16.5t87.5 -47.5t62.5 -75t24 -99q0 -65 -27 -110t-70 -79t-97.5 -63t-110 -62.5t-106.5 -76t-87 -104.5h317q46 0 72.5 14.5t42.5 31.5t25.5 31.5t21.5 14.5q11 0 14 -4.5t3 -12.5 q0 -5 -7 -27t-17 -50.5t-21 -58t-19 -50.5h-530z" />
<glyph unicode="&#xbe;" horiz-adv-x="1700" d="M40 713q0 26 17.5 44.5t45.5 18.5q35 0 60 -28t36 -66q13 -43 45.5 -67.5t92.5 -24.5q38 0 74 13.5t64 39t45 61.5t17 80q0 27 -8.5 57t-24.5 57t-37.5 48.5t-47.5 32.5q-22 9 -43.5 10t-37.5 1t-26 2t-10 14q0 10 11.5 14t28.5 9t36.5 13t36.5 24.5t28.5 44.5t11.5 73 q0 33 -11 59t-30.5 43.5t-46 27t-57.5 9.5q-50 0 -83 -17.5t-54.5 -38t-33 -38t-19.5 -17.5t-12.5 6t-4.5 15q0 2 6 15.5t19.5 32.5t33.5 41t48.5 40.5t65.5 30.5t83 12q48 0 89 -15.5t72 -42t48.5 -61t17.5 -72.5q0 -40 -15.5 -75t-55.5 -72q141 -88 141 -231 q0 -23 -8 -53.5t-25 -62.5t-45 -62.5t-68.5 -54.5t-94 -39t-121.5 -15q-58 0 -105 16t-80 40t-51 53t-18 55zM386 -16l907 1421h119l-907 -1421h-119zM982 279l432 557h84v-533h141l-29 -74h-112v-114q0 -27 8.5 -42t21.5 -22t28.5 -9t28.5 -4.5t21.5 -7.5t8.5 -18 q2 -8 -6.5 -12t-20.5 -4q-29 0 -67 2t-95 2t-94.5 -2t-65.5 -2q-20 0 -20 16q0 13 8 18t20 7.5t26 4.5t26 9t20 22t8 42v114h-342zM1060 303h294v373h-4z" />
<glyph unicode="&#xbf;" horiz-adv-x="1139" d="M277 -21q2 53 25 106t57 107.5t73.5 111.5t75.5 118q20 34 37 72.5t29.5 76.5t20.5 74.5t9 66.5h44q-2 -30 -7.5 -79t-13.5 -101.5t-17.5 -99t-18.5 -72.5q-12 -35 -33.5 -78t-43 -91t-37 -98.5t-15.5 -100.5q0 -49 12.5 -98t38 -88t64.5 -63.5t92 -24.5q30 0 61.5 12 t56.5 30t41 39t16 40q0 10 -12 29t-27 41.5t-27 45.5t-12 41t7 34t18.5 28t27 19t33.5 7q20 0 38.5 -9t33 -27t23 -44.5t8.5 -61.5q0 -50 -22 -102.5t-65 -95.5t-106.5 -70.5t-146.5 -27.5q-75 0 -137 22.5t-106.5 65t-69.5 104.5t-25 141zM517 978q0 23 9.5 42.5t24.5 34 t34.5 23t39.5 8.5t39.5 -8.5t35 -23t25 -34t9.5 -42.5q0 -24 -9.5 -44t-25 -34.5t-35 -22.5t-39.5 -8t-39.5 8t-34.5 22.5t-24.5 34.5t-9.5 44z" />
<glyph unicode="&#xc0;" horiz-adv-x="1366" d="M-29 18q0 15 13.5 19.5t36 10.5t52.5 20.5t64 50.5q48 51 93 137t87 199l265 719q-10 11 -20.5 20t-19.5 16t-14.5 12t-5.5 9q0 2 9 10t22.5 22t29.5 34t31 46q19 33 27.5 55.5t12.5 35.5t6.5 18.5t9.5 5.5q11 0 14.5 -14t15.5 -45l508 -1243q15 -36 33 -56.5t36.5 -31.5 t36 -15t31 -7.5t21.5 -8t8 -17.5q0 -12 -7 -18t-26 -6q-8 0 -24.5 0.5t-46 1.5t-75.5 1.5t-114 0.5q-48 0 -81 -0.5t-55.5 -1.5t-36.5 -1.5t-23 -0.5q-19 0 -25 7.5t-6 16.5q0 13 10.5 18.5t26.5 8.5t34.5 5.5t34.5 10.5t26.5 23t10.5 43q0 31 -7.5 58.5t-22.5 64.5 l-111 272h-463l-35 -118q-15 -50 -22.5 -97t-7.5 -82q0 -31 5.5 -55t16 -43t26.5 -33.5t36 -27.5q17 -11 33 -15.5t29 -8t20.5 -7.5t7.5 -14q0 -14 -8 -20.5t-33 -6.5q-10 0 -26.5 0.5t-43 1.5t-64 1.5t-89.5 0.5q-48 0 -82 -0.5t-60.5 -1.5t-48 -1.5t-45.5 -0.5 q-17 0 -24 7t-7 15zM367 1759q0 26 18.5 45t46.5 19q20 0 43.5 -10t44.5 -31l307 -312h-82l-337 216q-19 11 -30 29.5t-11 43.5zM410 561h432l-234 574z" />
<glyph unicode="&#xc1;" horiz-adv-x="1366" d="M-29 18q0 15 13.5 19.5t36 10.5t52.5 20.5t64 50.5q48 51 93 137t87 199l265 719q-10 11 -20.5 20t-19.5 16t-14.5 12t-5.5 9q0 2 9 10t22.5 22t29.5 34t31 46q19 33 27.5 55.5t12.5 35.5t6.5 18.5t9.5 5.5q11 0 14.5 -14t15.5 -45l508 -1243q15 -36 33 -56.5t36.5 -31.5 t36 -15t31 -7.5t21.5 -8t8 -17.5q0 -12 -7 -18t-26 -6q-8 0 -24.5 0.5t-46 1.5t-75.5 1.5t-114 0.5q-48 0 -81 -0.5t-55.5 -1.5t-36.5 -1.5t-23 -0.5q-19 0 -25 7.5t-6 16.5q0 13 10.5 18.5t26.5 8.5t34.5 5.5t34.5 10.5t26.5 23t10.5 43q0 31 -7.5 58.5t-22.5 64.5 l-111 272h-463l-35 -118q-15 -50 -22.5 -97t-7.5 -82q0 -31 5.5 -55t16 -43t26.5 -33.5t36 -27.5q17 -11 33 -15.5t29 -8t20.5 -7.5t7.5 -14q0 -14 -8 -20.5t-33 -6.5q-10 0 -26.5 0.5t-43 1.5t-64 1.5t-89.5 0.5q-48 0 -82 -0.5t-60.5 -1.5t-48 -1.5t-45.5 -0.5 q-17 0 -24 7t-7 15zM410 561h432l-234 574zM516 1470l307 312q22 21 45 31t43 10q28 0 47 -19t19 -45q0 -25 -11 -43.5t-30 -29.5l-338 -216h-82z" />
<glyph unicode="&#xc2;" horiz-adv-x="1366" d="M-29 18q0 15 13.5 19.5t36 10.5t52.5 20.5t64 50.5q48 51 93 137t87 199l265 719q-10 11 -20.5 20t-19.5 16t-14.5 12t-5.5 9q0 2 9 10t22.5 22t29.5 34t31 46q19 33 27.5 55.5t12.5 35.5t6.5 18.5t9.5 5.5q11 0 14.5 -14t15.5 -45l508 -1243q15 -36 33 -56.5t36.5 -31.5 t36 -15t31 -7.5t21.5 -8t8 -17.5q0 -12 -7 -18t-26 -6q-8 0 -24.5 0.5t-46 1.5t-75.5 1.5t-114 0.5q-48 0 -81 -0.5t-55.5 -1.5t-36.5 -1.5t-23 -0.5q-19 0 -25 7.5t-6 16.5q0 13 10.5 18.5t26.5 8.5t34.5 5.5t34.5 10.5t26.5 23t10.5 43q0 31 -7.5 58.5t-22.5 64.5 l-111 272h-463l-35 -118q-15 -50 -22.5 -97t-7.5 -82q0 -31 5.5 -55t16 -43t26.5 -33.5t36 -27.5q17 -11 33 -15.5t29 -8t20.5 -7.5t7.5 -14q0 -14 -8 -20.5t-33 -6.5q-10 0 -26.5 0.5t-43 1.5t-64 1.5t-89.5 0.5q-48 0 -82 -0.5t-60.5 -1.5t-48 -1.5t-45.5 -0.5 q-17 0 -24 7t-7 15zM352 1470l254 340h127l258 -340h-71l-250 209l-248 -209h-70zM410 561h432l-234 574z" />
<glyph unicode="&#xc3;" horiz-adv-x="1366" d="M-29 18q0 15 13.5 19.5t36 10.5t52.5 20.5t64 50.5q48 51 93 137t87 199l265 719q-10 11 -20.5 20t-19.5 16t-14.5 12t-5.5 9q0 2 9 10t22.5 22t29.5 34t31 46q19 33 27.5 55.5t12.5 35.5t6.5 18.5t9.5 5.5q11 0 14.5 -14t15.5 -45l508 -1243q15 -36 33 -56.5t36.5 -31.5 t36 -15t31 -7.5t21.5 -8t8 -17.5q0 -12 -7 -18t-26 -6q-8 0 -24.5 0.5t-46 1.5t-75.5 1.5t-114 0.5q-48 0 -81 -0.5t-55.5 -1.5t-36.5 -1.5t-23 -0.5q-19 0 -25 7.5t-6 16.5q0 13 10.5 18.5t26.5 8.5t34.5 5.5t34.5 10.5t26.5 23t10.5 43q0 31 -7.5 58.5t-22.5 64.5 l-111 272h-463l-35 -118q-15 -50 -22.5 -97t-7.5 -82q0 -31 5.5 -55t16 -43t26.5 -33.5t36 -27.5q17 -11 33 -15.5t29 -8t20.5 -7.5t7.5 -14q0 -14 -8 -20.5t-33 -6.5q-10 0 -26.5 0.5t-43 1.5t-64 1.5t-89.5 0.5q-48 0 -82 -0.5t-60.5 -1.5t-48 -1.5t-45.5 -0.5 q-17 0 -24 7t-7 15zM334 1524q8 49 28 87t48.5 64.5t64 40t74.5 13.5q38 0 72.5 -12t66.5 -27q38 -19 73.5 -35.5t67.5 -16.5q29 0 49 9t33.5 24t22.5 33.5t16 36.5h60q0 -1 -3 -17.5t-11.5 -40.5t-23.5 -52t-39 -51.5t-57 -39.5t-79 -16q-51 0 -90.5 14t-73.5 31 q-35 17 -65.5 32t-61.5 15q-28 0 -47.5 -9.5t-32 -23.5t-20 -30t-13.5 -29h-59zM410 561h432l-234 574z" />
<glyph unicode="&#xc4;" horiz-adv-x="1366" d="M-29 18q0 15 13.5 19.5t36 10.5t52.5 20.5t64 50.5q48 51 93 137t87 199l265 719q-10 11 -20.5 20t-19.5 16t-14.5 12t-5.5 9q0 2 9 10t22.5 22t29.5 34t31 46q19 33 27.5 55.5t12.5 35.5t6.5 18.5t9.5 5.5q11 0 14.5 -14t15.5 -45l508 -1243q15 -36 33 -56.5t36.5 -31.5 t36 -15t31 -7.5t21.5 -8t8 -17.5q0 -12 -7 -18t-26 -6q-8 0 -24.5 0.5t-46 1.5t-75.5 1.5t-114 0.5q-48 0 -81 -0.5t-55.5 -1.5t-36.5 -1.5t-23 -0.5q-19 0 -25 7.5t-6 16.5q0 13 10.5 18.5t26.5 8.5t34.5 5.5t34.5 10.5t26.5 23t10.5 43q0 31 -7.5 58.5t-22.5 64.5 l-111 272h-463l-35 -118q-15 -50 -22.5 -97t-7.5 -82q0 -31 5.5 -55t16 -43t26.5 -33.5t36 -27.5q17 -11 33 -15.5t29 -8t20.5 -7.5t7.5 -14q0 -14 -8 -20.5t-33 -6.5q-10 0 -26.5 0.5t-43 1.5t-64 1.5t-89.5 0.5q-48 0 -82 -0.5t-60.5 -1.5t-48 -1.5t-45.5 -0.5 q-17 0 -24 7t-7 15zM369 1606q0 21 6 39.5t18 32.5t30.5 22t43.5 8q21 0 40 -8t33.5 -22t23.5 -32.5t9 -39.5q0 -22 -9 -40.5t-23.5 -32.5t-33.5 -22t-40 -8q-51 0 -74.5 29.5t-23.5 73.5zM410 561h432l-234 574zM770 1606q0 21 6 39.5t18 32.5t30.5 22t43.5 8q21 0 40.5 -8 t34 -22t23.5 -32.5t9 -39.5q0 -22 -9 -40.5t-23.5 -32.5t-34 -22t-40.5 -8q-51 0 -74.5 29.5t-23.5 73.5z" />
<glyph unicode="&#xc5;" horiz-adv-x="1366" d="M-29 18q0 15 13.5 19.5t36 10.5t52.5 20.5t64 50.5q48 51 93 137t87 199l265 719q-10 11 -20.5 20t-19.5 16t-14.5 12t-5.5 9q0 2 9 10t22.5 22t29.5 34t31 46q19 33 27.5 55.5t12.5 35.5t6.5 18.5t9.5 5.5q11 0 14.5 -14t15.5 -45l508 -1243q15 -36 33 -56.5t36.5 -31.5 t36 -15t31 -7.5t21.5 -8t8 -17.5q0 -12 -7 -18t-26 -6q-8 0 -24.5 0.5t-46 1.5t-75.5 1.5t-114 0.5q-48 0 -81 -0.5t-55.5 -1.5t-36.5 -1.5t-23 -0.5q-19 0 -25 7.5t-6 16.5q0 13 10.5 18.5t26.5 8.5t34.5 5.5t34.5 10.5t26.5 23t10.5 43q0 31 -7.5 58.5t-22.5 64.5 l-111 272h-463l-35 -118q-15 -50 -22.5 -97t-7.5 -82q0 -31 5.5 -55t16 -43t26.5 -33.5t36 -27.5q17 -11 33 -15.5t29 -8t20.5 -7.5t7.5 -14q0 -14 -8 -20.5t-33 -6.5q-10 0 -26.5 0.5t-43 1.5t-64 1.5t-89.5 0.5q-48 0 -82 -0.5t-60.5 -1.5t-48 -1.5t-45.5 -0.5 q-17 0 -24 7t-7 15zM410 561h432l-234 574zM467 1675q0 42 15.5 79t43 65t65 44.5t81.5 16.5q41 0 78.5 -16.5t65.5 -44.5t44.5 -65t16.5 -79q0 -43 -16.5 -80t-44.5 -65t-65.5 -44t-78.5 -16q-44 0 -81.5 16t-65 44t-43 65t-15.5 80zM537 1675q0 -27 9.5 -51.5t27 -43 t42 -29.5t54.5 -11q29 0 54 10.5t43.5 28.5t29 43t10.5 53t-10.5 52.5t-29 43t-43.5 29t-54 10.5t-53.5 -10.5t-42 -29t-27.5 -43t-10 -52.5z" />
<glyph unicode="&#x212b;" horiz-adv-x="1366" d="M-29 18q0 15 13.5 19.5t36 10.5t52.5 20.5t64 50.5q48 51 93 137t87 199l265 719q-10 11 -20.5 20t-19.5 16t-14.5 12t-5.5 9q0 2 9 10t22.5 22t29.5 34t31 46q19 33 27.5 55.5t12.5 35.5t6.5 18.5t9.5 5.5q11 0 14.5 -14t15.5 -45l508 -1243q15 -36 33 -56.5t36.5 -31.5 t36 -15t31 -7.5t21.5 -8t8 -17.5q0 -12 -7 -18t-26 -6q-8 0 -24.5 0.5t-46 1.5t-75.5 1.5t-114 0.5q-48 0 -81 -0.5t-55.5 -1.5t-36.5 -1.5t-23 -0.5q-19 0 -25 7.5t-6 16.5q0 13 10.5 18.5t26.5 8.5t34.5 5.5t34.5 10.5t26.5 23t10.5 43q0 31 -7.5 58.5t-22.5 64.5 l-111 272h-463l-35 -118q-15 -50 -22.5 -97t-7.5 -82q0 -31 5.5 -55t16 -43t26.5 -33.5t36 -27.5q17 -11 33 -15.5t29 -8t20.5 -7.5t7.5 -14q0 -14 -8 -20.5t-33 -6.5q-10 0 -26.5 0.5t-43 1.5t-64 1.5t-89.5 0.5q-48 0 -82 -0.5t-60.5 -1.5t-48 -1.5t-45.5 -0.5 q-17 0 -24 7t-7 15zM410 561h432l-234 574zM467 1675q0 42 15.5 79t43 65t65 44.5t81.5 16.5q41 0 78.5 -16.5t65.5 -44.5t44.5 -65t16.5 -79q0 -43 -16.5 -80t-44.5 -65t-65.5 -44t-78.5 -16q-44 0 -81.5 16t-65 44t-43 65t-15.5 80zM537 1675q0 -27 9.5 -51.5t27 -43 t42 -29.5t54.5 -11q29 0 54 10.5t43.5 28.5t29 43t10.5 53t-10.5 52.5t-29 43t-43.5 29t-54 10.5t-53.5 -10.5t-42 -29t-27.5 -43t-10 -52.5z" />
<glyph unicode="&#xc6;" horiz-adv-x="2009" d="M-180 23q0 12 7.5 17t12.5 7l8 2q47 12 97.5 42.5t107 83.5t118.5 130.5t132 183.5l410 623q32 47 50 75.5t27 45.5t11 27t2 20q0 22 -10 33t-24.5 17t-32 7.5t-32 4t-24.5 7t-10 15.5q0 19 11 24t36 5q26 0 62 -0.5t78.5 -1.5t89 -1.5t93.5 -0.5q153 0 320 2t334 2 l127 -387q8 -26 11 -37t3 -19t-4.5 -13t-15.5 -5t-17.5 11.5t-17.5 39.5q-48 125 -111 197t-145 108t-185.5 45.5t-232.5 9.5v-606q65 0 123 12.5t101 43.5t68 83.5t25 133.5q0 21 4 31t17 10q14 0 17 -10t3 -31v-602q0 -22 -3 -31.5t-17 -9.5q-13 0 -17 9.5t-4 31.5 q0 84 -25 140t-68 89.5t-101 48t-123 14.5v-524q0 -34 7 -59t25 -41t48.5 -23.5t77.5 -7.5q100 0 185.5 28.5t154.5 78t121.5 117t86.5 145.5q16 38 24 62.5t13.5 38.5t9.5 20t13 6q16 0 16 -19q0 -8 -5 -34.5t-13 -55.5l-107 -436q-94 1 -186 1.5t-185 1t-188 1t-196 0.5 q-58 0 -97.5 -0.5t-68 -1.5t-48.5 -1.5t-38 -0.5q-14 0 -20.5 7.5t-6.5 16.5q0 16 13.5 21.5t33.5 8t43 6t43 15.5t33.5 36.5t13.5 68.5v524h-411l-166 -262q-23 -35 -37 -65t-21.5 -56.5t-9.5 -49t-2 -42.5q0 -68 28 -112.5t103 -63.5q17 -5 27 -11.5t10 -17.5 q0 -12 -8.5 -18t-42.5 -6q-21 0 -53 0.5t-69.5 1.5t-77 1.5t-73.5 0.5q-77 0 -140 -2t-111 -2q-25 0 -30 7t-5 20zM524 737h385v586h-4z" />
<glyph unicode="&#xc7;" horiz-adv-x="1442" d="M94 694q0 103 28 197t77 174.5t114.5 146.5t139.5 112.5t154 71.5t157 25q86 0 152 -17.5t116 -38.5t87 -38.5t65 -17.5q20 0 30 7.5t15 19.5t7.5 25t5.5 25t9.5 19.5t20.5 7.5q11 0 17.5 -8t6.5 -25v-512q0 -17 -6.5 -24.5t-17.5 -7.5q-17 0 -23 20.5t-14 67.5 q-15 87 -54 167.5t-99 143t-139.5 100t-174.5 37.5q-97 0 -179.5 -44t-142.5 -130t-93.5 -212.5t-33.5 -291.5q0 -129 19 -230t51.5 -176t76 -127t92 -84t99.5 -46.5t99 -14.5q106 0 191 35.5t148 97t103 144.5t55 178q6 47 25 47q11 0 18 -8t7 -25v-485q0 -33 -29 -33 q-16 0 -23.5 15t-15.5 33t-22.5 33t-45.5 15q-27 0 -61 -15t-83.5 -33t-118 -33t-165.5 -15q-96 0 -181 26.5t-156.5 74.5t-128.5 115t-97 148t-61 173t-21 190zM543 -418l28 64q19 -5 34.5 -9t31 -7t32 -5t36.5 -2q21 0 41.5 4.5t36 15t25 26.5t9.5 40q0 23 -9 39 t-22.5 25.5t-29.5 13.5t-31 4q-22 0 -40.5 -4t-35.5 -10l-14 12l88 211h70l-54 -143q17 5 30.5 6.5t29.5 1.5q48 0 81 -13.5t52.5 -34.5t28 -46t8.5 -47q0 -44 -19 -77t-52 -54.5t-77.5 -32.5t-95.5 -11q-26 0 -52.5 3t-50.5 7.5t-44 10.5t-35 12z" />
<glyph unicode="&#xc8;" horiz-adv-x="1290" d="M74 20q0 16 13.5 21.5t33.5 8t43 6t43 15.5t33.5 36.5t13.5 68.5v1036q0 45 -13.5 69.5t-33.5 36.5t-43 15.5t-43 6t-33.5 7.5t-13.5 21q0 9 6 17t20 8q19 0 39 -0.5t48.5 -1.5t68 -1.5t96.5 -0.5h167q72 0 129.5 0.5t105 1t92 1t90.5 1t102 0.5l127 -387q8 -26 11.5 -37 t3.5 -19t-5 -13t-16 -5t-17.5 11.5t-17.5 39.5q-48 125 -111 197t-145 108t-185 45.5t-232 9.5v-589q73 0 134.5 12.5t106.5 43t70.5 83t25.5 133.5q0 22 4.5 31.5t16.5 9.5q14 0 17 -9.5t3 -31.5v-602q0 -22 -3 -31.5t-17 -9.5q-12 0 -16.5 9.5t-4.5 31.5q0 84 -25.5 140 t-70.5 90t-106.5 48.5t-134.5 14.5v-541q0 -34 7 -59t24.5 -41t48 -23.5t77.5 -7.5q100 0 185.5 28.5t155 78t122 117t86.5 145.5q16 38 24 62.5t13.5 38.5t9.5 20t13 6q16 0 16 -19q0 -8 -5.5 -34.5t-13.5 -55.5l-106 -436q-94 1 -186 1.5t-185 1t-188.5 1t-196.5 0.5 q-57 0 -96.5 -0.5t-68 -1.5t-48.5 -1.5t-39 -0.5q-14 0 -20 7.5t-6 16.5zM340 1759q0 26 19 45t47 19q20 0 43 -10t45 -31l307 -312h-82l-338 216q-19 11 -30 29.5t-11 43.5z" />
<glyph unicode="&#xc9;" horiz-adv-x="1290" d="M74 20q0 16 13.5 21.5t33.5 8t43 6t43 15.5t33.5 36.5t13.5 68.5v1036q0 45 -13.5 69.5t-33.5 36.5t-43 15.5t-43 6t-33.5 7.5t-13.5 21q0 9 6 17t20 8q19 0 39 -0.5t48.5 -1.5t68 -1.5t96.5 -0.5h167q72 0 129.5 0.5t105 1t92 1t90.5 1t102 0.5l127 -387q8 -26 11.5 -37 t3.5 -19t-5 -13t-16 -5t-17.5 11.5t-17.5 39.5q-48 125 -111 197t-145 108t-185 45.5t-232 9.5v-589q73 0 134.5 12.5t106.5 43t70.5 83t25.5 133.5q0 22 4.5 31.5t16.5 9.5q14 0 17 -9.5t3 -31.5v-602q0 -22 -3 -31.5t-17 -9.5q-12 0 -16.5 9.5t-4.5 31.5q0 84 -25.5 140 t-70.5 90t-106.5 48.5t-134.5 14.5v-541q0 -34 7 -59t24.5 -41t48 -23.5t77.5 -7.5q100 0 185.5 28.5t155 78t122 117t86.5 145.5q16 38 24 62.5t13.5 38.5t9.5 20t13 6q16 0 16 -19q0 -8 -5.5 -34.5t-13.5 -55.5l-106 -436q-94 1 -186 1.5t-185 1t-188.5 1t-196.5 0.5 q-57 0 -96.5 -0.5t-68 -1.5t-48.5 -1.5t-39 -0.5q-14 0 -20 7.5t-6 16.5zM489 1470l308 312q21 21 44.5 31t43.5 10q28 0 46.5 -19t18.5 -45q0 -25 -11 -43.5t-30 -29.5l-338 -216h-82z" />
<glyph unicode="&#xca;" horiz-adv-x="1290" d="M74 20q0 16 13.5 21.5t33.5 8t43 6t43 15.5t33.5 36.5t13.5 68.5v1036q0 45 -13.5 69.5t-33.5 36.5t-43 15.5t-43 6t-33.5 7.5t-13.5 21q0 9 6 17t20 8q19 0 39 -0.5t48.5 -1.5t68 -1.5t96.5 -0.5h167q72 0 129.5 0.5t105 1t92 1t90.5 1t102 0.5l127 -387q8 -26 11.5 -37 t3.5 -19t-5 -13t-16 -5t-17.5 11.5t-17.5 39.5q-48 125 -111 197t-145 108t-185 45.5t-232 9.5v-589q73 0 134.5 12.5t106.5 43t70.5 83t25.5 133.5q0 22 4.5 31.5t16.5 9.5q14 0 17 -9.5t3 -31.5v-602q0 -22 -3 -31.5t-17 -9.5q-12 0 -16.5 9.5t-4.5 31.5q0 84 -25.5 140 t-70.5 90t-106.5 48.5t-134.5 14.5v-541q0 -34 7 -59t24.5 -41t48 -23.5t77.5 -7.5q100 0 185.5 28.5t155 78t122 117t86.5 145.5q16 38 24 62.5t13.5 38.5t9.5 20t13 6q16 0 16 -19q0 -8 -5.5 -34.5t-13.5 -55.5l-106 -436q-94 1 -186 1.5t-185 1t-188.5 1t-196.5 0.5 q-57 0 -96.5 -0.5t-68 -1.5t-48.5 -1.5t-39 -0.5q-14 0 -20 7.5t-6 16.5zM326 1470l254 340h127l258 -340h-72l-250 209l-248 -209h-69z" />
<glyph unicode="&#xcb;" horiz-adv-x="1290" d="M74 20q0 16 13.5 21.5t33.5 8t43 6t43 15.5t33.5 36.5t13.5 68.5v1036q0 45 -13.5 69.5t-33.5 36.5t-43 15.5t-43 6t-33.5 7.5t-13.5 21q0 9 6 17t20 8q19 0 39 -0.5t48.5 -1.5t68 -1.5t96.5 -0.5h167q72 0 129.5 0.5t105 1t92 1t90.5 1t102 0.5l127 -387q8 -26 11.5 -37 t3.5 -19t-5 -13t-16 -5t-17.5 11.5t-17.5 39.5q-48 125 -111 197t-145 108t-185 45.5t-232 9.5v-589q73 0 134.5 12.5t106.5 43t70.5 83t25.5 133.5q0 22 4.5 31.5t16.5 9.5q14 0 17 -9.5t3 -31.5v-602q0 -22 -3 -31.5t-17 -9.5q-12 0 -16.5 9.5t-4.5 31.5q0 84 -25.5 140 t-70.5 90t-106.5 48.5t-134.5 14.5v-541q0 -34 7 -59t24.5 -41t48 -23.5t77.5 -7.5q100 0 185.5 28.5t155 78t122 117t86.5 145.5q16 38 24 62.5t13.5 38.5t9.5 20t13 6q16 0 16 -19q0 -8 -5.5 -34.5t-13.5 -55.5l-106 -436q-94 1 -186 1.5t-185 1t-188.5 1t-196.5 0.5 q-57 0 -96.5 -0.5t-68 -1.5t-48.5 -1.5t-39 -0.5q-14 0 -20 7.5t-6 16.5zM342 1606q0 21 6 39.5t18 32.5t30.5 22t43.5 8q21 0 40.5 -8t34 -22t23.5 -32.5t9 -39.5q0 -22 -9 -40.5t-23.5 -32.5t-34 -22t-40.5 -8q-51 0 -74.5 29.5t-23.5 73.5zM743 1606q0 21 6 39.5t18 32.5 t31 22t44 8q21 0 40 -8t33.5 -22t23.5 -32.5t9 -39.5q0 -22 -9 -40.5t-23.5 -32.5t-33.5 -22t-40 -8q-51 0 -75 29.5t-24 73.5z" />
<glyph unicode="&#xcc;" horiz-adv-x="721" d="M55 1759q0 26 19 45t47 19q20 0 43 -10t45 -31l307 -312h-82l-338 216q-18 11 -29.5 29.5t-11.5 43.5zM82 20q0 16 13.5 21.5t33.5 8t43 6t43 15.5t33.5 36.5t13.5 68.5v1036q0 45 -13.5 69.5t-33.5 36.5t-43 15.5t-43 6t-33.5 7.5t-13.5 21q0 9 6.5 17t20.5 8 q18 0 38 -0.5t48.5 -1.5t68 -1.5t96.5 -0.5q58 0 97.5 0.5t68 1.5t48.5 1.5t38 0.5q14 0 20.5 -8t6.5 -17q0 -16 -13.5 -21t-33.5 -7.5t-43 -6t-43 -15.5t-33.5 -36.5t-13.5 -69.5v-1036q0 -44 13.5 -68.5t33.5 -36.5t43 -15.5t43 -6t33.5 -8t13.5 -21.5q0 -9 -6.5 -16.5 t-20.5 -7.5q-18 0 -38 0.5t-48.5 1.5t-68 1.5t-97.5 0.5q-57 0 -96.5 -0.5t-68 -1.5t-48.5 -1.5t-38 -0.5q-14 0 -20.5 7.5t-6.5 16.5z" />
<glyph unicode="&#xcd;" horiz-adv-x="721" d="M82 20q0 16 13.5 21.5t33.5 8t43 6t43 15.5t33.5 36.5t13.5 68.5v1036q0 45 -13.5 69.5t-33.5 36.5t-43 15.5t-43 6t-33.5 7.5t-13.5 21q0 9 6.5 17t20.5 8q18 0 38 -0.5t48.5 -1.5t68 -1.5t96.5 -0.5q58 0 97.5 0.5t68 1.5t48.5 1.5t38 0.5q14 0 20.5 -8t6.5 -17 q0 -16 -13.5 -21t-33.5 -7.5t-43 -6t-43 -15.5t-33.5 -36.5t-13.5 -69.5v-1036q0 -44 13.5 -68.5t33.5 -36.5t43 -15.5t43 -6t33.5 -8t13.5 -21.5q0 -9 -6.5 -16.5t-20.5 -7.5q-18 0 -38 0.5t-48.5 1.5t-68 1.5t-97.5 0.5q-57 0 -96.5 -0.5t-68 -1.5t-48.5 -1.5t-38 -0.5 q-14 0 -20.5 7.5t-6.5 16.5zM205 1470l307 312q22 21 45 31t43 10q28 0 47 -19t19 -45q0 -25 -11.5 -43.5t-29.5 -29.5l-338 -216h-82z" />
<glyph unicode="&#xce;" horiz-adv-x="721" d="M41 1470l254 340h127l258 -340h-72l-250 209l-247 -209h-70zM82 20q0 16 13.5 21.5t33.5 8t43 6t43 15.5t33.5 36.5t13.5 68.5v1036q0 45 -13.5 69.5t-33.5 36.5t-43 15.5t-43 6t-33.5 7.5t-13.5 21q0 9 6.5 17t20.5 8q18 0 38 -0.5t48.5 -1.5t68 -1.5t96.5 -0.5 q58 0 97.5 0.5t68 1.5t48.5 1.5t38 0.5q14 0 20.5 -8t6.5 -17q0 -16 -13.5 -21t-33.5 -7.5t-43 -6t-43 -15.5t-33.5 -36.5t-13.5 -69.5v-1036q0 -44 13.5 -68.5t33.5 -36.5t43 -15.5t43 -6t33.5 -8t13.5 -21.5q0 -9 -6.5 -16.5t-20.5 -7.5q-18 0 -38 0.5t-48.5 1.5t-68 1.5 t-97.5 0.5q-57 0 -96.5 -0.5t-68 -1.5t-48.5 -1.5t-38 -0.5q-14 0 -20.5 7.5t-6.5 16.5z" />
<glyph unicode="&#xcf;" horiz-adv-x="721" d="M57 1606q0 21 6 39.5t18 32.5t31 22t44 8q21 0 40 -8t33.5 -22t23.5 -32.5t9 -39.5q0 -22 -9 -40.5t-23.5 -32.5t-33.5 -22t-40 -8q-51 0 -75 29.5t-24 73.5zM82 20q0 16 13.5 21.5t33.5 8t43 6t43 15.5t33.5 36.5t13.5 68.5v1036q0 45 -13.5 69.5t-33.5 36.5t-43 15.5 t-43 6t-33.5 7.5t-13.5 21q0 9 6.5 17t20.5 8q18 0 38 -0.5t48.5 -1.5t68 -1.5t96.5 -0.5q58 0 97.5 0.5t68 1.5t48.5 1.5t38 0.5q14 0 20.5 -8t6.5 -17q0 -16 -13.5 -21t-33.5 -7.5t-43 -6t-43 -15.5t-33.5 -36.5t-13.5 -69.5v-1036q0 -44 13.5 -68.5t33.5 -36.5t43 -15.5 t43 -6t33.5 -8t13.5 -21.5q0 -9 -6.5 -16.5t-20.5 -7.5q-18 0 -38 0.5t-48.5 1.5t-68 1.5t-97.5 0.5q-57 0 -96.5 -0.5t-68 -1.5t-48.5 -1.5t-38 -0.5q-14 0 -20.5 7.5t-6.5 16.5zM459 1606q0 21 6 39.5t18 32.5t30.5 22t43.5 8q21 0 40 -8t34 -22t24 -32.5t9 -39.5 q0 -22 -9 -40.5t-24 -32.5t-34 -22t-40 -8q-51 0 -74.5 29.5t-23.5 73.5z" />
<glyph unicode="&#xd0;" horiz-adv-x="1442" d="M41 692v62h213v458q0 45 -13.5 69.5t-33.5 36.5t-43 15.5t-43 6t-33.5 7.5t-13.5 21q0 9 6 17t20 8q19 0 39 -0.5t48.5 -1.5t68 -1.5t96.5 -0.5q23 0 51 0.5t58 1.5t58.5 1.5t51.5 0.5q202 0 348.5 -58t242 -156t141 -228.5t45.5 -274.5q0 -145 -44.5 -269.5 t-130.5 -215.5t-213 -143t-292 -52q-44 0 -80.5 0.5t-73 1.5t-75.5 1.5t-87 0.5q-57 0 -96.5 -0.5t-68 -1.5t-48.5 -1.5t-39 -0.5q-14 0 -20 7.5t-6 16.5q0 16 13.5 21.5t33.5 8t43 6t43 15.5t33.5 36.5t13.5 68.5v516h-213zM451 287q0 -66 10 -112t38 -75t76.5 -42 t124.5 -13q85 0 151 24.5t115 67.5t83 100.5t55 123.5t30 137t9 141q0 166 -32.5 296.5t-101 221t-174 138.5t-251.5 48h-133v-589h360v-62h-360v-405z" />
<glyph unicode="&#xd1;" horiz-adv-x="1403" d="M6 18q0 14 11 19t34 8q99 14 146 90.5t47 229.5v821l-72 90q-25 32 -53 44.5t-51.5 17.5t-38.5 8.5t-15 17.5t9 21.5t43 7.5q16 0 38.5 -0.5t49 -1.5t54.5 -1.5t56 -0.5h78l754 -1063h4v698q0 153 -47 229t-146 90q-23 4 -34 8.5t-11 18.5q0 23 25 23q7 0 18 -0.5 t36 -1.5t69.5 -1.5t117.5 -0.5q74 0 118.5 0.5t69.5 1.5t36 1.5t18 0.5q25 0 25 -23q0 -14 -11 -18.5t-34 -8.5q-99 -14 -146 -90t-47 -229v-1030q0 -17 -3 -24t-15 -7q-8 0 -18 15.5t-31 46.5l-783 1091h-6v-751q0 -153 46.5 -229.5t146.5 -90.5q23 -3 34 -8t11 -19 q0 -22 -25 -22q-7 0 -18 0.5t-36 1.5t-69.5 1.5t-118.5 0.5q-73 0 -117.5 -0.5t-69.5 -1.5t-36 -1.5t-18 -0.5q-25 0 -25 22zM365 1524q8 49 28 87t48.5 64.5t64 40t74.5 13.5q38 0 72.5 -12t66.5 -27q38 -19 73.5 -35.5t67.5 -16.5q29 0 49 9t33.5 24t22.5 33.5t16 36.5h59 q0 -1 -3 -17.5t-11.5 -40.5t-23.5 -52t-38.5 -51.5t-57 -39.5t-79.5 -16q-51 0 -90 14t-73 31q-36 17 -66 32t-61 15q-28 0 -47.5 -9.5t-32 -23.5t-20.5 -30t-13 -29h-59z" />
<glyph unicode="&#xd2;" horiz-adv-x="1593" d="M94 694q0 113 29 211t80 179t119 143.5t146 105.5t162.5 65.5t166.5 22.5t166 -22.5t162 -65.5t146.5 -105.5t119 -143.5t79.5 -179t29 -211t-29 -211t-79.5 -178.5t-119 -143.5t-146.5 -106t-162 -65.5t-166 -22.5t-166.5 22.5t-162.5 65.5t-146 106t-119 143.5 t-80 178.5t-29 211zM319 694q0 -194 42 -324.5t110 -209t153.5 -111.5t172.5 -33t172 33t153 111.5t110 209t42 324.5t-42 324.5t-110 209t-153 111.5t-172 33t-172.5 -33t-153.5 -111.5t-110 -209t-42 -324.5zM492 1759q0 26 18.5 45t46.5 19q20 0 43 -10t45 -31l307 -312 h-82l-338 216q-18 11 -29 29.5t-11 43.5z" />
<glyph unicode="&#xd3;" horiz-adv-x="1593" d="M94 694q0 113 29 211t80 179t119 143.5t146 105.5t162.5 65.5t166.5 22.5t166 -22.5t162 -65.5t146.5 -105.5t119 -143.5t79.5 -179t29 -211t-29 -211t-79.5 -178.5t-119 -143.5t-146.5 -106t-162 -65.5t-166 -22.5t-166.5 22.5t-162.5 65.5t-146 106t-119 143.5 t-80 178.5t-29 211zM319 694q0 -194 42 -324.5t110 -209t153.5 -111.5t172.5 -33t172 33t153 111.5t110 209t42 324.5t-42 324.5t-110 209t-153 111.5t-172 33t-172.5 -33t-153.5 -111.5t-110 -209t-42 -324.5zM641 1470l307 312q22 21 45 31t43 10q28 0 47 -19t19 -45 q0 -25 -11.5 -43.5t-29.5 -29.5l-338 -216h-82z" />
<glyph unicode="&#xd4;" horiz-adv-x="1593" d="M94 694q0 113 29 211t80 179t119 143.5t146 105.5t162.5 65.5t166.5 22.5t166 -22.5t162 -65.5t146.5 -105.5t119 -143.5t79.5 -179t29 -211t-29 -211t-79.5 -178.5t-119 -143.5t-146.5 -106t-162 -65.5t-166 -22.5t-166.5 22.5t-162.5 65.5t-146 106t-119 143.5 t-80 178.5t-29 211zM319 694q0 -194 42 -324.5t110 -209t153.5 -111.5t172.5 -33t172 33t153 111.5t110 209t42 324.5t-42 324.5t-110 209t-153 111.5t-172 33t-172.5 -33t-153.5 -111.5t-110 -209t-42 -324.5zM477 1470l254 340h127l258 -340h-72l-249 209l-248 -209h-70z " />
<glyph unicode="&#xd5;" horiz-adv-x="1593" d="M94 694q0 113 29 211t80 179t119 143.5t146 105.5t162.5 65.5t166.5 22.5t166 -22.5t162 -65.5t146.5 -105.5t119 -143.5t79.5 -179t29 -211t-29 -211t-79.5 -178.5t-119 -143.5t-146.5 -106t-162 -65.5t-166 -22.5t-166.5 22.5t-162.5 65.5t-146 106t-119 143.5 t-80 178.5t-29 211zM319 694q0 -194 42 -324.5t110 -209t153.5 -111.5t172.5 -33t172 33t153 111.5t110 209t42 324.5t-42 324.5t-110 209t-153 111.5t-172 33t-172.5 -33t-153.5 -111.5t-110 -209t-42 -324.5zM459 1524q8 49 28 87t48.5 64.5t64 40t74.5 13.5 q38 0 72.5 -12t66.5 -27q38 -19 73.5 -35.5t67.5 -16.5q29 0 49 9t33.5 24t22.5 33.5t16 36.5h60q0 -1 -3 -17.5t-11.5 -40.5t-23.5 -52t-39 -51.5t-57.5 -39.5t-78.5 -16q-51 0 -90.5 14t-73.5 31q-35 17 -65.5 32t-61.5 15q-28 0 -47.5 -9.5t-32 -23.5t-20.5 -30t-13 -29 h-59z" />
<glyph unicode="&#xd6;" horiz-adv-x="1593" d="M94 694q0 113 29 211t80 179t119 143.5t146 105.5t162.5 65.5t166.5 22.5t166 -22.5t162 -65.5t146.5 -105.5t119 -143.5t79.5 -179t29 -211t-29 -211t-79.5 -178.5t-119 -143.5t-146.5 -106t-162 -65.5t-166 -22.5t-166.5 22.5t-162.5 65.5t-146 106t-119 143.5 t-80 178.5t-29 211zM319 694q0 -194 42 -324.5t110 -209t153.5 -111.5t172.5 -33t172 33t153 111.5t110 209t42 324.5t-42 324.5t-110 209t-153 111.5t-172 33t-172.5 -33t-153.5 -111.5t-110 -209t-42 -324.5zM494 1606q0 21 6 39.5t18 32.5t30.5 22t43.5 8q21 0 40 -8 t33.5 -22t23.5 -32.5t9 -39.5q0 -22 -9 -40.5t-23.5 -32.5t-33.5 -22t-40 -8q-51 0 -74.5 29.5t-23.5 73.5zM895 1606q0 21 6 39.5t18 32.5t30.5 22t43.5 8q21 0 40.5 -8t34 -22t23.5 -32.5t9 -39.5q0 -22 -9 -40.5t-23.5 -32.5t-34 -22t-40.5 -8q-51 0 -74.5 29.5 t-23.5 73.5z" />
<glyph unicode="&#xd7;" d="M135 98l366 367l-366 366l96 99l368 -371l365 371l100 -99l-366 -366l366 -367l-100 -98l-365 362l-364 -362z" />
<glyph unicode="&#xd8;" horiz-adv-x="1593" d="M94 694q0 113 29 211t80 179t119 143.5t146 105.5t162.5 65.5t166.5 22.5q80 0 161 -21t158 -63l90 170h76l-106 -204q69 -45 128 -107t102.5 -139t68 -168t24.5 -195q0 -113 -29 -211t-79.5 -178.5t-119 -143.5t-146.5 -106t-162 -65.5t-166 -22.5q-69 0 -140.5 17 t-140.5 49l-108 -213h-91l132 248q-75 44 -140 106.5t-113 141.5t-75 174t-27 204zM319 694q0 -103 12 -187.5t34.5 -152.5t53.5 -121t68 -92l594 1131q-63 56 -136.5 78t-147.5 22q-87 0 -172.5 -33t-153.5 -111.5t-110 -209t-42 -324.5zM547 90q57 -40 121 -57t129 -17 q87 0 172 33t153 111.5t110 209t42 324.5q0 189 -40 318.5t-101 206.5z" />
<glyph unicode="&#xd9;" horiz-adv-x="1403" d="M31 1368q0 9 6 17t20 8q18 0 38 -0.5t47.5 -1.5t64.5 -1.5t90 -0.5q58 0 97.5 0.5t68 1.5t48.5 1.5t38 0.5q14 0 20 -8t6 -17q0 -16 -13.5 -21t-33.5 -7.5t-43 -6t-43 -15.5t-33.5 -36.5t-13.5 -69.5v-796q0 -88 23.5 -159.5t68 -121.5t108 -77.5t144.5 -28.5 q76 -1 145.5 21.5t123 68t85 115t31.5 163.5v615q0 96 -17.5 155t-43.5 93t-56.5 48.5t-56.5 22t-43.5 13.5t-17.5 24q0 25 37 25q29 0 81 -2t150 -2t150.5 2t81.5 2q17 0 26.5 -5.5t9.5 -19.5q0 -17 -17.5 -23.5t-43.5 -14t-56.5 -22t-56.5 -48.5t-43.5 -93t-17.5 -155 v-594q0 -91 -26.5 -172.5t-83 -143.5t-145 -98.5t-212.5 -36.5q-125 0 -221 32t-160.5 87.5t-97.5 131t-33 163.5v831q0 45 -13.5 69.5t-33.5 36.5t-43 15.5t-43 6t-33.5 7.5t-13.5 21zM397 1759q0 26 19 45t47 19q20 0 43 -10t45 -31l307 -312h-82l-338 216 q-18 11 -29.5 29.5t-11.5 43.5z" />
<glyph unicode="&#xda;" horiz-adv-x="1403" d="M31 1368q0 9 6 17t20 8q18 0 38 -0.5t47.5 -1.5t64.5 -1.5t90 -0.5q58 0 97.5 0.5t68 1.5t48.5 1.5t38 0.5q14 0 20 -8t6 -17q0 -16 -13.5 -21t-33.5 -7.5t-43 -6t-43 -15.5t-33.5 -36.5t-13.5 -69.5v-796q0 -88 23.5 -159.5t68 -121.5t108 -77.5t144.5 -28.5 q76 -1 145.5 21.5t123 68t85 115t31.5 163.5v615q0 96 -17.5 155t-43.5 93t-56.5 48.5t-56.5 22t-43.5 13.5t-17.5 24q0 25 37 25q29 0 81 -2t150 -2t150.5 2t81.5 2q17 0 26.5 -5.5t9.5 -19.5q0 -17 -17.5 -23.5t-43.5 -14t-56.5 -22t-56.5 -48.5t-43.5 -93t-17.5 -155 v-594q0 -91 -26.5 -172.5t-83 -143.5t-145 -98.5t-212.5 -36.5q-125 0 -221 32t-160.5 87.5t-97.5 131t-33 163.5v831q0 45 -13.5 69.5t-33.5 36.5t-43 15.5t-43 6t-33.5 7.5t-13.5 21zM547 1470l307 312q22 21 45 31t43 10q28 0 47 -19t19 -45q0 -25 -11.5 -43.5 t-29.5 -29.5l-338 -216h-82z" />
<glyph unicode="&#xdb;" horiz-adv-x="1403" d="M31 1368q0 9 6 17t20 8q18 0 38 -0.5t47.5 -1.5t64.5 -1.5t90 -0.5q58 0 97.5 0.5t68 1.5t48.5 1.5t38 0.5q14 0 20 -8t6 -17q0 -16 -13.5 -21t-33.5 -7.5t-43 -6t-43 -15.5t-33.5 -36.5t-13.5 -69.5v-796q0 -88 23.5 -159.5t68 -121.5t108 -77.5t144.5 -28.5 q76 -1 145.5 21.5t123 68t85 115t31.5 163.5v615q0 96 -17.5 155t-43.5 93t-56.5 48.5t-56.5 22t-43.5 13.5t-17.5 24q0 25 37 25q29 0 81 -2t150 -2t150.5 2t81.5 2q17 0 26.5 -5.5t9.5 -19.5q0 -17 -17.5 -23.5t-43.5 -14t-56.5 -22t-56.5 -48.5t-43.5 -93t-17.5 -155 v-594q0 -91 -26.5 -172.5t-83 -143.5t-145 -98.5t-212.5 -36.5q-125 0 -221 32t-160.5 87.5t-97.5 131t-33 163.5v831q0 45 -13.5 69.5t-33.5 36.5t-43 15.5t-43 6t-33.5 7.5t-13.5 21zM395 1470l254 340h127l258 -340h-71l-250 209l-248 -209h-70z" />
<glyph unicode="&#xdc;" horiz-adv-x="1403" d="M31 1368q0 9 6 17t20 8q18 0 38 -0.5t47.5 -1.5t64.5 -1.5t90 -0.5q58 0 97.5 0.5t68 1.5t48.5 1.5t38 0.5q14 0 20 -8t6 -17q0 -16 -13.5 -21t-33.5 -7.5t-43 -6t-43 -15.5t-33.5 -36.5t-13.5 -69.5v-796q0 -88 23.5 -159.5t68 -121.5t108 -77.5t144.5 -28.5 q76 -1 145.5 21.5t123 68t85 115t31.5 163.5v615q0 96 -17.5 155t-43.5 93t-56.5 48.5t-56.5 22t-43.5 13.5t-17.5 24q0 25 37 25q29 0 81 -2t150 -2t150.5 2t81.5 2q17 0 26.5 -5.5t9.5 -19.5q0 -17 -17.5 -23.5t-43.5 -14t-56.5 -22t-56.5 -48.5t-43.5 -93t-17.5 -155 v-594q0 -91 -26.5 -172.5t-83 -143.5t-145 -98.5t-212.5 -36.5q-125 0 -221 32t-160.5 87.5t-97.5 131t-33 163.5v831q0 45 -13.5 69.5t-33.5 36.5t-43 15.5t-43 6t-33.5 7.5t-13.5 21zM412 1606q0 21 6 39.5t18 32.5t30.5 22t43.5 8q21 0 40 -8t33.5 -22t23.5 -32.5 t9 -39.5q0 -22 -9 -40.5t-23.5 -32.5t-33.5 -22t-40 -8q-51 0 -74.5 29.5t-23.5 73.5zM813 1606q0 21 6 39.5t18 32.5t30.5 22t43.5 8q21 0 40.5 -8t34 -22t23.5 -32.5t9 -39.5q0 -22 -9 -40.5t-23.5 -32.5t-34 -22t-40.5 -8q-51 0 -74.5 29.5t-23.5 73.5z" />
<glyph unicode="&#xdd;" horiz-adv-x="1251" d="M10 1370q0 12 14 17.5t48 5.5q13 0 29 -0.5t38.5 -1.5t53 -1.5t71.5 -0.5q48 0 79.5 0.5t54.5 1.5t41 1.5t38 0.5q38 0 50 -4t12 -21q0 -12 -9.5 -16.5t-23.5 -7t-30.5 -5t-30.5 -9t-23.5 -19.5t-9.5 -37q0 -42 16 -85t47 -97l217 -381l178 280q38 57 61 114.5t23 102.5 q0 43 -9.5 68t-24 38t-32 18t-32.5 8t-26 7.5t-13 16.5q-2 15 10.5 22t44.5 7q16 0 32.5 -0.5t38.5 -1.5t52.5 -1.5t75.5 -0.5q33 0 57 0.5t43.5 1.5t35.5 1.5t34 0.5q26 0 36.5 -6.5t10.5 -20.5q0 -10 -9.5 -15t-27 -12t-43.5 -20.5t-59.5 -41t-74 -73t-87.5 -117.5 l-264 -405v-506q0 -44 13.5 -68.5t33.5 -36.5t43 -15.5t43 -6t33.5 -8t13.5 -21.5q0 -9 -6 -16.5t-20 -7.5q-19 0 -39 0.5t-48.5 1.5t-68 1.5t-96.5 0.5q-58 0 -97.5 -0.5t-68 -1.5t-48.5 -1.5t-38 -0.5q-14 0 -20.5 7.5t-6.5 16.5q0 16 13.5 21.5t33.5 8t43 6t43 15.5 t33.5 36.5t13.5 68.5v455l-323 590q-22 40 -45 63.5t-44.5 35.5t-40 16.5t-33 8t-22.5 8t-8 17.5zM446 1470l308 312q21 21 44.5 31t43.5 10q28 0 46.5 -19t18.5 -45q0 -25 -11 -43.5t-30 -29.5l-338 -216h-82z" />
<glyph unicode="&#xde;" horiz-adv-x="1176" d="M74 20q0 16 13.5 21.5t33.5 8t43 6t43 15.5t33.5 36.5t13.5 68.5v1036q0 45 -13.5 69.5t-33.5 36.5t-43 15.5t-43 6t-33.5 7.5t-13.5 21q0 9 6 17t20 8q19 0 39 -0.5t48.5 -1.5t68 -1.5t96.5 -0.5q58 0 97.5 0.5t68 1.5t48.5 1.5t38 0.5q14 0 20.5 -8t6.5 -17 q0 -16 -13.5 -21t-33.5 -7.5t-43 -6t-43 -15.5t-33.5 -36.5t-13.5 -69.5v-108q27 0 61.5 1t71.5 1q109 0 208 -24t174 -73t119.5 -124t44.5 -178q0 -104 -48 -176.5t-128.5 -118t-185 -66t-217.5 -20.5h-100v-150q0 -44 13.5 -68.5t33.5 -36.5t43 -15.5t43 -6t33.5 -8 t13.5 -21.5q0 -9 -6.5 -16.5t-20.5 -7.5q-18 0 -38 0.5t-48.5 1.5t-68 1.5t-97.5 0.5q-57 0 -96.5 -0.5t-68 -1.5t-48.5 -1.5t-39 -0.5q-14 0 -20 7.5t-6 16.5zM451 375h104q93 0 162.5 19t116 60t69.5 106.5t23 158.5q0 179 -86 258.5t-256 79.5h-133v-682z" />
<glyph unicode="&#xdf;" horiz-adv-x="1176" d="M74 20q0 14 11 19.5t28 8.5t36.5 6t36.5 12t28 27t11 50v676h-151q47 30 80 77t58 103t45.5 118t42.5 122.5t49 115t64.5 95.5t89 65.5t122.5 24.5t126 -24t93 -66t58 -99t20 -122q0 -61 -16.5 -105t-41 -75t-53.5 -53t-53.5 -40t-41 -34.5t-16.5 -38.5q0 -23 30 -45 t74.5 -50t96.5 -64.5t96.5 -88t74.5 -122t30 -165.5q2 -72 -24.5 -138t-75 -116t-115.5 -80t-148 -30q-56 0 -101.5 14t-78 40.5t-50 65t-17.5 86.5q0 31 8.5 53t22.5 36.5t31 21t34 6.5q35 0 57.5 -26.5t22.5 -77.5q0 -25 -6 -41.5t-12 -29.5l-13 -25q-6 -12 -6 -29 q0 -22 25.5 -40t76.5 -18q45 0 76 14.5t50.5 50.5t28.5 98t9 157q0 101 -18 170.5t-45.5 118t-59.5 81t-59.5 59.5t-45.5 53.5t-18 62.5q0 31 10.5 54t26 44t33.5 43.5t33.5 54t26 75t10.5 106.5q0 60 -14 105t-38 75t-55.5 45.5t-67.5 15.5q-46 0 -87 -19t-72 -55 t-49.5 -89t-18.5 -121q0 -39 3.5 -68t7 -62.5t7 -78.5t3.5 -117v-893h-93q-42 0 -73 -0.5t-55 -1.5t-43.5 -1.5t-39.5 -0.5q-17 0 -24.5 5t-7.5 19z" />
<glyph unicode="&#xe0;" horiz-adv-x="1024" d="M82 184q0 33 7.5 61t28.5 55t59.5 54.5t101 59.5t152 70t212.5 85v240q0 48 -26 68t-74 20q-61 0 -96.5 -24.5t-57 -60.5t-36.5 -79t-34.5 -79t-50.5 -60.5t-86 -24.5q-29 0 -48 24.5t-19 61.5q0 31 22 65t59 66t85 61t101 51t106.5 35t101.5 13q54 0 98 -12.5t75 -38.5 t47.5 -65.5t16.5 -94.5v-608q0 -28 14.5 -42.5t39.5 -14.5q21 0 39 11t32.5 23.5t25 23.5t17.5 11t12 -4.5t5 -13.5q0 -7 -19 -29.5t-50 -46.5t-70 -42.5t-80 -18.5q-38 0 -65 14t-44.5 35.5t-26 48t-10.5 51.5q-91 -75 -180 -112t-166 -37q-50 0 -90.5 15t-69 42t-44 63.5 t-15.5 79.5zM207 1329q0 26 19 45t46 19q20 0 43.5 -10t44.5 -31l308 -312h-82l-338 215q-19 11 -30 30t-11 44zM279 221q0 -89 31 -126.5t83 -37.5q15 0 40 6t57.5 20.5t71 39t81.5 61.5v336q-111 -39 -182 -72t-111.5 -67t-55.5 -72.5t-15 -87.5z" />
<glyph unicode="&#xe1;" horiz-adv-x="1024" d="M82 184q0 33 7.5 61t28.5 55t59.5 54.5t101 59.5t152 70t212.5 85v240q0 48 -26 68t-74 20q-61 0 -96.5 -24.5t-57 -60.5t-36.5 -79t-34.5 -79t-50.5 -60.5t-86 -24.5q-29 0 -48 24.5t-19 61.5q0 31 22 65t59 66t85 61t101 51t106.5 35t101.5 13q54 0 98 -12.5t75 -38.5 t47.5 -65.5t16.5 -94.5v-608q0 -28 14.5 -42.5t39.5 -14.5q21 0 39 11t32.5 23.5t25 23.5t17.5 11t12 -4.5t5 -13.5q0 -7 -19 -29.5t-50 -46.5t-70 -42.5t-80 -18.5q-38 0 -65 14t-44.5 35.5t-26 48t-10.5 51.5q-91 -75 -180 -112t-166 -37q-50 0 -90.5 15t-69 42t-44 63.5 t-15.5 79.5zM279 221q0 -89 31 -126.5t83 -37.5q15 0 40 6t57.5 20.5t71 39t81.5 61.5v336q-111 -39 -182 -72t-111.5 -67t-55.5 -72.5t-15 -87.5zM356 1040l308 312q21 21 44.5 31t43.5 10q27 0 46 -19t19 -45q0 -25 -11 -44t-30 -30l-338 -215h-82z" />
<glyph unicode="&#xe2;" horiz-adv-x="1024" d="M82 184q0 33 7.5 61t28.5 55t59.5 54.5t101 59.5t152 70t212.5 85v240q0 48 -26 68t-74 20q-61 0 -96.5 -24.5t-57 -60.5t-36.5 -79t-34.5 -79t-50.5 -60.5t-86 -24.5q-29 0 -48 24.5t-19 61.5q0 31 22 65t59 66t85 61t101 51t106.5 35t101.5 13q54 0 98 -12.5t75 -38.5 t47.5 -65.5t16.5 -94.5v-608q0 -28 14.5 -42.5t39.5 -14.5q21 0 39 11t32.5 23.5t25 23.5t17.5 11t12 -4.5t5 -13.5q0 -7 -19 -29.5t-50 -46.5t-70 -42.5t-80 -18.5q-38 0 -65 14t-44.5 35.5t-26 48t-10.5 51.5q-91 -75 -180 -112t-166 -37q-50 0 -90.5 15t-69 42t-44 63.5 t-15.5 79.5zM193 1040l253 340h127l258 -340h-71l-250 209l-248 -209h-69zM279 221q0 -89 31 -126.5t83 -37.5q15 0 40 6t57.5 20.5t71 39t81.5 61.5v336q-111 -39 -182 -72t-111.5 -67t-55.5 -72.5t-15 -87.5z" />
<glyph unicode="&#xe3;" horiz-adv-x="1024" d="M82 184q0 33 7.5 61t28.5 55t59.5 54.5t101 59.5t152 70t212.5 85v240q0 48 -26 68t-74 20q-61 0 -96.5 -24.5t-57 -60.5t-36.5 -79t-34.5 -79t-50.5 -60.5t-86 -24.5q-29 0 -48 24.5t-19 61.5q0 31 22 65t59 66t85 61t101 51t106.5 35t101.5 13q54 0 98 -12.5t75 -38.5 t47.5 -65.5t16.5 -94.5v-608q0 -28 14.5 -42.5t39.5 -14.5q21 0 39 11t32.5 23.5t25 23.5t17.5 11t12 -4.5t5 -13.5q0 -7 -19 -29.5t-50 -46.5t-70 -42.5t-80 -18.5q-38 0 -65 14t-44.5 35.5t-26 48t-10.5 51.5q-91 -75 -180 -112t-166 -37q-50 0 -90.5 15t-69 42t-44 63.5 t-15.5 79.5zM174 1094q9 49 29 87t48.5 64t63.5 39.5t74 13.5q38 0 72.5 -11.5t66.5 -26.5q39 -19 74.5 -35.5t67.5 -16.5q29 0 48.5 9t33 24t22.5 33.5t17 36.5h59q0 -1 -3 -17.5t-11.5 -40.5t-23.5 -52t-39 -51.5t-57.5 -39.5t-78.5 -16q-51 0 -90.5 14t-73.5 31 q-35 17 -65.5 32t-61.5 15q-28 0 -47.5 -9.5t-32 -23.5t-20 -30t-13.5 -29h-59zM279 221q0 -89 31 -126.5t83 -37.5q15 0 40 6t57.5 20.5t71 39t81.5 61.5v336q-111 -39 -182 -72t-111.5 -67t-55.5 -72.5t-15 -87.5z" />
<glyph unicode="&#xe4;" horiz-adv-x="1024" d="M82 184q0 33 7.5 61t28.5 55t59.5 54.5t101 59.5t152 70t212.5 85v240q0 48 -26 68t-74 20q-61 0 -96.5 -24.5t-57 -60.5t-36.5 -79t-34.5 -79t-50.5 -60.5t-86 -24.5q-29 0 -48 24.5t-19 61.5q0 31 22 65t59 66t85 61t101 51t106.5 35t101.5 13q54 0 98 -12.5t75 -38.5 t47.5 -65.5t16.5 -94.5v-608q0 -28 14.5 -42.5t39.5 -14.5q21 0 39 11t32.5 23.5t25 23.5t17.5 11t12 -4.5t5 -13.5q0 -7 -19 -29.5t-50 -46.5t-70 -42.5t-80 -18.5q-38 0 -65 14t-44.5 35.5t-26 48t-10.5 51.5q-91 -75 -180 -112t-166 -37q-50 0 -90.5 15t-69 42t-44 63.5 t-15.5 79.5zM209 1176q0 21 6 39.5t18 32.5t30.5 22t43.5 8q21 0 40 -8t34 -22t24 -32.5t9 -39.5q0 -22 -9 -40.5t-24 -32.5t-34 -22t-40 -8q-51 0 -74.5 29.5t-23.5 73.5zM279 221q0 -89 31 -126.5t83 -37.5q15 0 40 6t57.5 20.5t71 39t81.5 61.5v336q-111 -39 -182 -72 t-111.5 -67t-55.5 -72.5t-15 -87.5zM610 1176q0 21 6 39.5t18 32.5t31 22t44 8q21 0 40 -8t33.5 -22t23.5 -32.5t9 -39.5q0 -22 -9 -40.5t-23.5 -32.5t-33.5 -22t-40 -8q-51 0 -75 29.5t-24 73.5z" />
<glyph unicode="&#xe5;" horiz-adv-x="1024" d="M82 184q0 33 7.5 61t28.5 55t59.5 54.5t101 59.5t152 70t212.5 85v240q0 48 -26 68t-74 20q-61 0 -96.5 -24.5t-57 -60.5t-36.5 -79t-34.5 -79t-50.5 -60.5t-86 -24.5q-29 0 -48 24.5t-19 61.5q0 31 22 65t59 66t85 61t101 51t106.5 35t101.5 13q54 0 98 -12.5t75 -38.5 t47.5 -65.5t16.5 -94.5v-608q0 -28 14.5 -42.5t39.5 -14.5q21 0 39 11t32.5 23.5t25 23.5t17.5 11t12 -4.5t5 -13.5q0 -7 -19 -29.5t-50 -46.5t-70 -42.5t-80 -18.5q-38 0 -65 14t-44.5 35.5t-26 48t-10.5 51.5q-91 -75 -180 -112t-166 -37q-50 0 -90.5 15t-69 42t-44 63.5 t-15.5 79.5zM279 221q0 -89 31 -126.5t83 -37.5q15 0 40 6t57.5 20.5t71 39t81.5 61.5v336q-111 -39 -182 -72t-111.5 -67t-55.5 -72.5t-15 -87.5zM307 1245q0 42 15.5 79t43 65t65 44.5t81.5 16.5q42 0 79 -16.5t65 -44.5t44.5 -65t16.5 -79q0 -43 -16.5 -80.5t-44.5 -65 t-65 -43.5t-79 -16q-44 0 -81.5 16t-65 43.5t-43 65t-15.5 80.5zM377 1245q0 -28 9.5 -52.5t27 -43t42 -29t54.5 -10.5q29 0 54 10.5t43.5 28.5t29 43t10.5 53t-10.5 52.5t-29 43t-43.5 29t-54 10.5t-53.5 -10.5t-42 -29t-27.5 -43t-10 -52.5z" />
<glyph unicode="&#xe6;" horiz-adv-x="1554" d="M53 176q0 35 7.5 64.5t28.5 57t59.5 55.5t101 60.5t152 70.5t212.5 85v240q0 48 -26 68t-74 20q-46 0 -76.5 -14t-51.5 -37t-35 -52.5t-26 -60.5t-25 -60.5t-31.5 -52.5t-46 -37t-68.5 -14q-29 0 -48.5 24.5t-19.5 61.5q0 31 22 65t59 66t85.5 61t101 51t106.5 35t101 13 q87 0 146 -31.5t79 -99.5q62 60 142 95.5t176 35.5q100 0 174.5 -37.5t124 -99t74 -139t24.5 -158.5h-682q2 -77 20.5 -152.5t60 -135.5t108 -97t163.5 -37q53 0 94 15t73 38t55 49.5t40 49.5t28.5 38t19.5 15q18 0 18 -23q0 -6 -8.5 -30t-28 -56t-51 -67.5t-76.5 -65.5 t-105.5 -49.5t-137.5 -19.5q-60 0 -116 15t-105.5 42.5t-90.5 67.5t-71 90q-81 -68 -146.5 -110t-118 -65.5t-94.5 -31.5t-78 -8q-55 0 -96 15.5t-68.5 42t-41 61.5t-13.5 73zM250 221q0 -89 31.5 -126.5t83.5 -37.5q15 0 40 6t57 20.5t70.5 39t81.5 61.5v336 q-111 -39 -182 -72t-111.5 -67t-55.5 -72.5t-15 -87.5zM819 561h498q0 95 -14.5 161t-42 107.5t-67.5 60.5t-91 19q-56 0 -107 -27t-89.5 -74t-61.5 -110.5t-25 -136.5z" />
<glyph unicode="&#xe7;" horiz-adv-x="1024" d="M74 438q0 114 38.5 208t104 160.5t151.5 103t181 36.5q78 0 150 -23.5t128 -64.5t89.5 -98t33.5 -125q0 -37 -8.5 -63t-23.5 -42.5t-35.5 -24t-44.5 -7.5q-19 0 -37.5 6.5t-32.5 22t-22.5 41t-8.5 63.5q0 17 2 29t4.5 23t4.5 22t2 26q0 35 -13.5 65t-40 52.5t-65.5 35.5 t-90 13q-58 0 -111.5 -27t-94.5 -75t-65 -113.5t-24 -142.5q0 -88 25 -163.5t71.5 -131t113 -86.5t148.5 -31q34 0 68.5 7t66.5 20t61 30t52 37q22 19 34.5 37t21 31.5t14 21.5t14.5 8q16 0 16 -22q0 -13 -9.5 -41.5t-31 -63t-54.5 -71.5t-80.5 -67.5t-109 -50t-139.5 -19.5 q-94 0 -177 34.5t-144.5 95t-97 144t-35.5 180.5zM317 -418l29 64q37 -10 65 -16.5t68 -6.5q22 0 42.5 4.5t36 15t25 26.5t9.5 40q0 23 -9 39t-22.5 25.5t-29.5 13.5t-31 4q-22 0 -40.5 -4t-35.5 -10l-14 12l88 211h69l-53 -143q17 5 30.5 6.5t28.5 1.5q48 0 81 -13.5 t52.5 -34.5t28 -46t8.5 -47q0 -44 -19 -77t-52 -54.5t-77 -32.5t-95 -11q-26 0 -52.5 3t-50.5 7.5t-44.5 10.5t-35.5 12z" />
<glyph unicode="&#xe8;" horiz-adv-x="1024" d="M74 451q0 93 33.5 182t94.5 158.5t147.5 112t191.5 42.5q100 0 174.5 -37.5t124 -99t74 -139t24.5 -158.5h-680q2 -77 20.5 -146.5t60 -122.5t107.5 -84.5t162 -31.5q66 0 116 15t95 46q28 20 44 39t26 34t17 24.5t16 9.5q18 0 18 -23q0 -10 -8.5 -35t-28.5 -57 t-51.5 -66.5t-77 -63.5t-107 -47.5t-139.5 -18.5q-91 0 -173.5 34.5t-144.5 96.5t-99 148t-37 188zM225 1329q0 26 19 45t47 19q20 0 43 -10t45 -31l307 -312h-82l-338 215q-18 11 -29.5 30t-11.5 44zM254 561h500q0 95 -14.5 161t-42 107.5t-67.5 60.5t-91 19 q-55 0 -106 -27t-90.5 -74t-63 -110.5t-25.5 -136.5z" />
<glyph unicode="&#xe9;" horiz-adv-x="1024" d="M74 451q0 93 33.5 182t94.5 158.5t147.5 112t191.5 42.5q100 0 174.5 -37.5t124 -99t74 -139t24.5 -158.5h-680q2 -77 20.5 -146.5t60 -122.5t107.5 -84.5t162 -31.5q66 0 116 15t95 46q28 20 44 39t26 34t17 24.5t16 9.5q18 0 18 -23q0 -10 -8.5 -35t-28.5 -57 t-51.5 -66.5t-77 -63.5t-107 -47.5t-139.5 -18.5q-91 0 -173.5 34.5t-144.5 96.5t-99 148t-37 188zM254 561h500q0 95 -14.5 161t-42 107.5t-67.5 60.5t-91 19q-55 0 -106 -27t-90.5 -74t-63 -110.5t-25.5 -136.5zM375 1040l307 312q22 21 45 31t43 10q28 0 47 -19t19 -45 q0 -25 -11.5 -44t-29.5 -30l-338 -215h-82z" />
<glyph unicode="&#xea;" horiz-adv-x="1024" d="M74 451q0 93 33.5 182t94.5 158.5t147.5 112t191.5 42.5q100 0 174.5 -37.5t124 -99t74 -139t24.5 -158.5h-680q2 -77 20.5 -146.5t60 -122.5t107.5 -84.5t162 -31.5q66 0 116 15t95 46q28 20 44 39t26 34t17 24.5t16 9.5q18 0 18 -23q0 -10 -8.5 -35t-28.5 -57 t-51.5 -66.5t-77 -63.5t-107 -47.5t-139.5 -18.5q-91 0 -173.5 34.5t-144.5 96.5t-99 148t-37 188zM211 1040l254 340h127l258 -340h-72l-250 209l-247 -209h-70zM254 561h500q0 95 -14.5 161t-42 107.5t-67.5 60.5t-91 19q-55 0 -106 -27t-90.5 -74t-63 -110.5 t-25.5 -136.5z" />
<glyph unicode="&#xeb;" horiz-adv-x="1024" d="M74 451q0 93 33.5 182t94.5 158.5t147.5 112t191.5 42.5q100 0 174.5 -37.5t124 -99t74 -139t24.5 -158.5h-680q2 -77 20.5 -146.5t60 -122.5t107.5 -84.5t162 -31.5q66 0 116 15t95 46q28 20 44 39t26 34t17 24.5t16 9.5q18 0 18 -23q0 -10 -8.5 -35t-28.5 -57 t-51.5 -66.5t-77 -63.5t-107 -47.5t-139.5 -18.5q-91 0 -173.5 34.5t-144.5 96.5t-99 148t-37 188zM227 1176q0 21 6 39.5t18 32.5t31 22t44 8q21 0 40 -8t33.5 -22t23.5 -32.5t9 -39.5q0 -22 -9 -40.5t-23.5 -32.5t-33.5 -22t-40 -8q-51 0 -75 29.5t-24 73.5zM254 561h500 q0 95 -14.5 161t-42 107.5t-67.5 60.5t-91 19q-55 0 -106 -27t-90.5 -74t-63 -110.5t-25.5 -136.5zM629 1176q0 21 6 39.5t18 32.5t30.5 22t43.5 8q21 0 40 -8t34 -22t24 -32.5t9 -39.5q0 -22 -9 -40.5t-24 -32.5t-34 -22t-40 -8q-51 0 -74.5 29.5t-23.5 73.5z" />
<glyph unicode="&#xec;" horiz-adv-x="606" d="M-2 1329q0 26 19 45t46 19q20 0 43.5 -10t45.5 -31l307 -312h-82l-338 215q-19 11 -30 30t-11 44zM59 20q0 14 11.5 19.5t28 8.5t36.5 6t36.5 12t28 27t11.5 50v566q0 34 -11.5 53.5t-28 29.5t-36.5 13.5t-36.5 6.5t-28 7.5t-11.5 16.5q0 14 12.5 17.5t49 10.5 t102.5 24.5t172 57.5v-803q0 -32 11.5 -50t28 -27t36.5 -12t36.5 -6t28 -8.5t11.5 -19.5t-8 -19t-25 -5q-19 0 -38.5 0.5t-43.5 1.5t-55.5 1.5t-73.5 0.5t-73.5 -0.5t-55.5 -1.5t-43.5 -1.5t-38.5 -0.5q-17 0 -25 5t-8 19z" />
<glyph unicode="&#xed;" horiz-adv-x="606" d="M59 20q0 14 11.5 19.5t28 8.5t36.5 6t36.5 12t28 27t11.5 50v566q0 34 -11.5 53.5t-28 29.5t-36.5 13.5t-36.5 6.5t-28 7.5t-11.5 16.5q0 14 12.5 17.5t49 10.5t102.5 24.5t172 57.5v-803q0 -32 11.5 -50t28 -27t36.5 -12t36.5 -6t28 -8.5t11.5 -19.5t-8 -19t-25 -5 q-19 0 -38.5 0.5t-43.5 1.5t-55.5 1.5t-73.5 0.5t-73.5 -0.5t-55.5 -1.5t-43.5 -1.5t-38.5 -0.5q-17 0 -25 5t-8 19zM147 1040l308 312q21 21 44.5 31t43.5 10q28 0 46.5 -19t18.5 -45q0 -25 -11 -44t-30 -30l-338 -215h-82z" />
<glyph unicode="&#xee;" horiz-adv-x="606" d="M-16 1040l254 340h127l258 -340h-72l-250 209l-248 -209h-69zM59 20q0 14 11.5 19.5t28 8.5t36.5 6t36.5 12t28 27t11.5 50v566q0 34 -11.5 53.5t-28 29.5t-36.5 13.5t-36.5 6.5t-28 7.5t-11.5 16.5q0 14 12.5 17.5t49 10.5t102.5 24.5t172 57.5v-803q0 -32 11.5 -50 t28 -27t36.5 -12t36.5 -6t28 -8.5t11.5 -19.5t-8 -19t-25 -5q-19 0 -38.5 0.5t-43.5 1.5t-55.5 1.5t-73.5 0.5t-73.5 -0.5t-55.5 -1.5t-43.5 -1.5t-38.5 -0.5q-17 0 -25 5t-8 19z" />
<glyph unicode="&#xef;" horiz-adv-x="606" d="M0 1176q0 21 6 39.5t18 32.5t30.5 22t43.5 8q21 0 40.5 -8t34 -22t23.5 -32.5t9 -39.5q0 -22 -9 -40.5t-23.5 -32.5t-34 -22t-40.5 -8q-51 0 -74.5 29.5t-23.5 73.5zM59 20q0 14 11.5 19.5t28 8.5t36.5 6t36.5 12t28 27t11.5 50v566q0 34 -11.5 53.5t-28 29.5t-36.5 13.5 t-36.5 6.5t-28 7.5t-11.5 16.5q0 14 12.5 17.5t49 10.5t102.5 24.5t172 57.5v-803q0 -32 11.5 -50t28 -27t36.5 -12t36.5 -6t28 -8.5t11.5 -19.5t-8 -19t-25 -5q-19 0 -38.5 0.5t-43.5 1.5t-55.5 1.5t-73.5 0.5t-73.5 -0.5t-55.5 -1.5t-43.5 -1.5t-38.5 -0.5q-17 0 -25 5 t-8 19zM401 1176q0 21 6 39.5t18 32.5t31 22t44 8q21 0 40 -8t33.5 -22t23.5 -32.5t9 -39.5q0 -22 -9 -40.5t-23.5 -32.5t-33.5 -22t-40 -8q-51 0 -75 29.5t-24 73.5z" />
<glyph unicode="&#xf0;" horiz-adv-x="1100" d="M74 465q0 95 36 182t99.5 153.5t150.5 106t189 39.5q96 0 180 -37q-43 91 -98.5 176.5t-124.5 157.5l-291 -129v70l244 108q-45 47 -90.5 80.5t-82 56t-59 35.5t-22.5 19q0 5 4 8.5t12 3.5q17 0 51 -11t79 -31.5t98 -50t108 -67.5l295 131v-69l-238 -107q97 -82 173 -170 t128.5 -182.5t80.5 -196.5t28 -213q0 -109 -23 -192t-61 -143.5t-87.5 -100.5t-102 -64t-105 -34t-96.5 -10q-102 0 -189 39.5t-150.5 106t-99.5 153.5t-36 182zM270 465q0 -82 15 -160t48 -138.5t86 -97t130 -36.5t130 36.5t86 97t47.5 138.5t14.5 160t-14.5 160 t-47.5 138.5t-86 97t-130 36.5t-130 -36.5t-86 -97t-48 -138.5t-15 -160z" />
<glyph unicode="&#xf1;" horiz-adv-x="1214" d="M53 20q0 14 11.5 19.5t28 8.5t36.5 6t36.5 12t28 27t11.5 50v566q0 34 -11.5 53.5t-28 29.5t-36.5 13.5t-36.5 6.5t-28 7.5t-11.5 16.5q0 14 13 17.5t50 10.5t102.5 24.5t170.5 57.5v-188q37 27 80.5 60t92.5 61.5t103 47.5t111 19q62 0 106 -16t72 -44t41 -67t13 -84 v-592q0 -32 11 -50t28 -27t36.5 -12t36.5 -6t28 -8.5t11 -19.5t-8 -19t-25 -5q-19 0 -38.5 0.5t-43.5 1.5t-55.5 1.5t-73.5 0.5t-73 -0.5t-55 -1.5t-43.5 -1.5t-38.5 -0.5q-17 0 -25 5t-8 19t11 19.5t28 8.5t36.5 6t36.5 12t28 27t11 50v562q0 65 -30.5 100t-108.5 35 q-44 0 -81.5 -9t-73 -27t-69.5 -44t-71 -60v-557q0 -32 11.5 -50t28 -27t36.5 -12t36.5 -6t28 -8.5t11.5 -19.5t-8 -19t-25 -5q-19 0 -38.5 0.5t-43.5 1.5t-55.5 1.5t-73.5 0.5t-73.5 -0.5t-55.5 -1.5t-43.5 -1.5t-38.5 -0.5q-17 0 -25 5t-8 19zM270 1094q9 49 29 87 t48.5 64t63.5 39.5t74 13.5t73.5 -11.5t66.5 -26.5q38 -19 73.5 -35.5t67.5 -16.5q29 0 48.5 9t33 24t22.5 33.5t17 36.5h59q0 -1 -3 -17.5t-11.5 -40.5t-23.5 -52t-39 -51.5t-57.5 -39.5t-78.5 -16q-51 0 -90.5 14t-73.5 31q-35 17 -65.5 32t-61.5 15q-28 0 -47 -9.5 t-32 -23.5t-20.5 -30t-12.5 -29h-60z" />
<glyph unicode="&#xf2;" horiz-adv-x="1100" d="M74 465q0 95 36 182t99.5 153.5t150.5 106t189 39.5t189 -39.5t150.5 -106t99.5 -153.5t36 -182t-36 -182t-99.5 -153.5t-150.5 -106t-189 -39.5t-189 39.5t-150.5 106t-99.5 153.5t-36 182zM246 1329q0 26 18.5 45t46.5 19q20 0 43.5 -10t44.5 -31l308 -312h-82 l-338 215q-19 11 -30 30t-11 44zM270 465q0 -82 15 -160t48 -138.5t86 -97t130 -36.5t130 36.5t86 97t47.5 138.5t14.5 160t-14.5 160t-47.5 138.5t-86 97t-130 36.5t-130 -36.5t-86 -97t-48 -138.5t-15 -160z" />
<glyph unicode="&#xf3;" horiz-adv-x="1100" d="M74 465q0 95 36 182t99.5 153.5t150.5 106t189 39.5t189 -39.5t150.5 -106t99.5 -153.5t36 -182t-36 -182t-99.5 -153.5t-150.5 -106t-189 -39.5t-189 39.5t-150.5 106t-99.5 153.5t-36 182zM270 465q0 -82 15 -160t48 -138.5t86 -97t130 -36.5t130 36.5t86 97 t47.5 138.5t14.5 160t-14.5 160t-47.5 138.5t-86 97t-130 36.5t-130 -36.5t-86 -97t-48 -138.5t-15 -160zM395 1040l307 312q22 21 45.5 31t43.5 10q27 0 46 -19t19 -45q0 -25 -11 -44t-30 -30l-338 -215h-82z" />
<glyph unicode="&#xf4;" horiz-adv-x="1100" d="M74 465q0 95 36 182t99.5 153.5t150.5 106t189 39.5t189 -39.5t150.5 -106t99.5 -153.5t36 -182t-36 -182t-99.5 -153.5t-150.5 -106t-189 -39.5t-189 39.5t-150.5 106t-99.5 153.5t-36 182zM231 1040l254 340h127l258 -340h-71l-250 209l-248 -209h-70zM270 465 q0 -82 15 -160t48 -138.5t86 -97t130 -36.5t130 36.5t86 97t47.5 138.5t14.5 160t-14.5 160t-47.5 138.5t-86 97t-130 36.5t-130 -36.5t-86 -97t-48 -138.5t-15 -160z" />
<glyph unicode="&#xf5;" horiz-adv-x="1100" d="M74 465q0 95 36 182t99.5 153.5t150.5 106t189 39.5t189 -39.5t150.5 -106t99.5 -153.5t36 -182t-36 -182t-99.5 -153.5t-150.5 -106t-189 -39.5t-189 39.5t-150.5 106t-99.5 153.5t-36 182zM213 1094q9 49 29 87t48.5 64t63.5 39.5t74 13.5q38 0 72.5 -11.5t66.5 -26.5 q38 -19 74 -35.5t68 -16.5q29 0 48.5 9t33 24t22.5 33.5t16 36.5h60q0 -1 -3 -17.5t-11.5 -40.5t-23.5 -52t-39 -51.5t-57.5 -39.5t-78.5 -16q-51 0 -90.5 14t-73.5 31q-35 17 -65.5 32t-61.5 15q-28 0 -47.5 -9.5t-32 -23.5t-20 -30t-13.5 -29h-59zM270 465q0 -82 15 -160 t48 -138.5t86 -97t130 -36.5t130 36.5t86 97t47.5 138.5t14.5 160t-14.5 160t-47.5 138.5t-86 97t-130 36.5t-130 -36.5t-86 -97t-48 -138.5t-15 -160z" />
<glyph unicode="&#xf6;" horiz-adv-x="1100" d="M74 465q0 95 36 182t99.5 153.5t150.5 106t189 39.5t189 -39.5t150.5 -106t99.5 -153.5t36 -182t-36 -182t-99.5 -153.5t-150.5 -106t-189 -39.5t-189 39.5t-150.5 106t-99.5 153.5t-36 182zM248 1176q0 21 6 39.5t18 32.5t30.5 22t43.5 8q21 0 40 -8t34 -22t24 -32.5 t9 -39.5q0 -22 -9 -40.5t-24 -32.5t-34 -22t-40 -8q-51 0 -74.5 29.5t-23.5 73.5zM270 465q0 -82 15 -160t48 -138.5t86 -97t130 -36.5t130 36.5t86 97t47.5 138.5t14.5 160t-14.5 160t-47.5 138.5t-86 97t-130 36.5t-130 -36.5t-86 -97t-48 -138.5t-15 -160zM649 1176 q0 21 6 39.5t18 32.5t31 22t44 8q21 0 40 -8t33.5 -22t23.5 -32.5t9 -39.5q0 -22 -9 -40.5t-23.5 -32.5t-33.5 -22t-40 -8q-51 0 -75 29.5t-24 73.5z" />
<glyph unicode="&#xf7;" d="M135 395v140h929v-140h-929zM477 90q0 26 10 48t26.5 39t39 26.5t46.5 9.5q25 0 47 -10t39 -27t27 -39t10 -47q0 -23 -10 -45t-26.5 -39.5t-38.5 -28t-46 -10.5q-25 0 -47.5 10t-39.5 27t-27 39.5t-10 46.5zM477 840q0 25 10 47.5t26.5 39t39 26.5t46.5 10q25 0 47 -10 t39 -27t27 -39.5t10 -46.5q0 -23 -10 -45t-26.5 -39.5t-38.5 -28t-46 -10.5q-25 0 -47.5 10t-39.5 27t-27 39t-10 47z" />
<glyph unicode="&#xf8;" horiz-adv-x="1100" d="M74 465q0 95 36 182t99.5 153.5t150.5 106t189 39.5q54 0 104.5 -11.5t98.5 -33.5l69 135h78l-88 -170q49 -33 88.5 -77t67 -95.5t42.5 -109.5t15 -119q0 -95 -36 -182t-99.5 -153.5t-150.5 -106t-189 -39.5q-94 0 -176 34l-92 -176h-80l108 209q-54 32 -97.5 77 t-74 98.5t-47 114t-16.5 124.5zM270 465q0 -47 4.5 -93t14.5 -88t26 -79.5t39 -67.5l361 692q-68 68 -166 68q-77 0 -130 -36.5t-86 -97t-48 -138.5t-15 -160zM406 82q27 -25 63.5 -37t79.5 -12q77 0 130 36.5t86 97t47.5 138.5t14.5 160q0 85 -15.5 165t-49.5 140z" />
<glyph unicode="&#xf9;" horiz-adv-x="1176" d="M27 840q0 14 22 18.5t65.5 12t107.5 23.5t149 52v-721q0 -65 30.5 -100t108.5 -35q44 0 81.5 7.5t73 23t69.5 38.5t71 54v487q0 37 -12 57.5t-29.5 32t-38.5 16t-38.5 7.5t-29.5 8.5t-12 18.5q0 14 22 18.5t65.5 12t108 23.5t148.5 52v-717q0 -36 12 -57t29.5 -32 t38.5 -15.5t38.5 -8t29.5 -8.5t12 -18q0 -14 -22 -18.5t-65.5 -12t-108 -23.5t-148.5 -52v180q-37 -28 -80.5 -59.5t-92.5 -58.5t-103 -44.5t-111 -17.5q-62 0 -106 16t-72 44t-41 67t-13 84v505q0 37 -12 57.5t-29.5 32t-38 16t-38 7.5t-29.5 8.5t-12 18.5zM283 1329 q0 26 18.5 45t46.5 19q20 0 43.5 -10t44.5 -31l307 -312h-81l-338 215q-19 11 -30 30t-11 44z" />
<glyph unicode="&#xfa;" horiz-adv-x="1176" d="M27 840q0 14 22 18.5t65.5 12t107.5 23.5t149 52v-721q0 -65 30.5 -100t108.5 -35q44 0 81.5 7.5t73 23t69.5 38.5t71 54v487q0 37 -12 57.5t-29.5 32t-38.5 16t-38.5 7.5t-29.5 8.5t-12 18.5q0 14 22 18.5t65.5 12t108 23.5t148.5 52v-717q0 -36 12 -57t29.5 -32 t38.5 -15.5t38.5 -8t29.5 -8.5t12 -18q0 -14 -22 -18.5t-65.5 -12t-108 -23.5t-148.5 -52v180q-37 -28 -80.5 -59.5t-92.5 -58.5t-103 -44.5t-111 -17.5q-62 0 -106 16t-72 44t-41 67t-13 84v505q0 37 -12 57.5t-29.5 32t-38 16t-38 7.5t-29.5 8.5t-12 18.5zM432 1040 l307 312q22 21 45 31t43 10q28 0 47 -19t19 -45q0 -25 -11 -44t-30 -30l-338 -215h-82z" />
<glyph unicode="&#xfb;" horiz-adv-x="1176" d="M27 840q0 14 22 18.5t65.5 12t107.5 23.5t149 52v-721q0 -65 30.5 -100t108.5 -35q44 0 81.5 7.5t73 23t69.5 38.5t71 54v487q0 37 -12 57.5t-29.5 32t-38.5 16t-38.5 7.5t-29.5 8.5t-12 18.5q0 14 22 18.5t65.5 12t108 23.5t148.5 52v-717q0 -36 12 -57t29.5 -32 t38.5 -15.5t38.5 -8t29.5 -8.5t12 -18q0 -14 -22 -18.5t-65.5 -12t-108 -23.5t-148.5 -52v180q-37 -28 -80.5 -59.5t-92.5 -58.5t-103 -44.5t-111 -17.5q-62 0 -106 16t-72 44t-41 67t-13 84v505q0 37 -12 57.5t-29.5 32t-38 16t-38 7.5t-29.5 8.5t-12 18.5zM268 1040 l254 340h127l258 -340h-71l-250 209l-248 -209h-70z" />
<glyph unicode="&#xfc;" horiz-adv-x="1176" d="M27 840q0 14 22 18.5t65.5 12t107.5 23.5t149 52v-721q0 -65 30.5 -100t108.5 -35q44 0 81.5 7.5t73 23t69.5 38.5t71 54v487q0 37 -12 57.5t-29.5 32t-38.5 16t-38.5 7.5t-29.5 8.5t-12 18.5q0 14 22 18.5t65.5 12t108 23.5t148.5 52v-717q0 -36 12 -57t29.5 -32 t38.5 -15.5t38.5 -8t29.5 -8.5t12 -18q0 -14 -22 -18.5t-65.5 -12t-108 -23.5t-148.5 -52v180q-37 -28 -80.5 -59.5t-92.5 -58.5t-103 -44.5t-111 -17.5q-62 0 -106 16t-72 44t-41 67t-13 84v505q0 37 -12 57.5t-29.5 32t-38 16t-38 7.5t-29.5 8.5t-12 18.5zM285 1176 q0 21 6 39.5t18 32.5t30.5 22t43.5 8q21 0 40 -8t33.5 -22t23.5 -32.5t9 -39.5q0 -22 -9 -40.5t-23.5 -32.5t-33.5 -22t-40 -8q-51 0 -74.5 29.5t-23.5 73.5zM686 1176q0 21 6 39.5t18 32.5t30.5 22t43.5 8q21 0 40.5 -8t34 -22t23.5 -32.5t9 -39.5q0 -22 -9 -40.5 t-23.5 -32.5t-34 -22t-40.5 -8q-51 0 -74.5 29.5t-23.5 73.5z" />
<glyph unicode="&#xfd;" horiz-adv-x="1100" d="M20 907q0 27 37 27q48 0 92 -2t89 -2t88 2t88 2q17 0 24.5 -6.5t7.5 -16.5q0 -19 -13.5 -24t-29.5 -9t-29.5 -13.5t-13.5 -37.5q0 -18 4.5 -36.5t14 -40t23.5 -49t32 -64.5l201 -410l113 287q19 48 30.5 83.5t17.5 62t8 47t3 38.5q1 41 -9.5 65.5t-27.5 39t-36.5 21 t-36.5 11t-28.5 10t-11.5 17.5q0 10 8.5 17.5t26.5 7.5q56 0 99.5 -2t87.5 -2q42 0 84 2t84 2q21 0 29.5 -5.5t8.5 -19.5q0 -10 -9 -14.5t-24.5 -10t-36.5 -16t-45 -33t-50 -60.5t-52 -99l-319 -746q-52 -123 -92.5 -195.5t-73 -110t-60 -48t-53.5 -10.5q-41 0 -68.5 16 t-44 40t-23.5 51t-7 48q0 41 22.5 70t65.5 29q26 0 41.5 -10.5t24.5 -26.5t14.5 -35t11.5 -35t15 -26.5t26 -10.5q11 0 22.5 9.5t22.5 25.5t22 35.5t21 40.5l107 227l-373 760q-24 49 -50.5 70.5t-48.5 30.5t-36.5 13t-14.5 19zM395 1040l307 312q22 21 45.5 31t43.5 10 q27 0 46 -19t19 -45q0 -25 -11 -44t-30 -30l-338 -215h-82z" />
<glyph unicode="&#xfe;" horiz-adv-x="1139" d="M25 1384q0 14 13 17.5t50 11t103.5 24.5t173.5 58v-715q35 32 70.5 62t75 53t84 37t95.5 14q78 0 146.5 -33t119.5 -91.5t80 -137t29 -170.5q0 -117 -40 -214t-107.5 -167.5t-156.5 -109.5t-188 -39q-32 0 -59.5 1t-52.5 3.5t-48.5 6.5t-47.5 9v-266q0 -32 11 -50t27 -27 t35.5 -12t35.5 -5.5t27 -7t11 -17.5q0 -9 -7 -12.5t-24 -3.5q-59 0 -109 2t-100 2q-49 0 -99.5 -2t-109.5 -2q-17 0 -23.5 3.5t-6.5 12.5q0 13 11 17.5t27 7t35.5 5.5t35.5 12t27 27t11 50v1519q0 35 -11.5 54.5t-28.5 29.5t-37.5 13.5t-37.5 6t-28.5 7t-11.5 16.5zM365 236 q0 -55 17 -96t45.5 -67.5t66.5 -39.5t79 -13q67 0 123.5 31.5t97.5 91t64 144.5t23 192q0 62 -15.5 126.5t-49.5 116.5t-87.5 85t-128.5 33q-67 0 -121.5 -29.5t-113.5 -83.5v-491z" />
<glyph unicode="&#xff;" horiz-adv-x="1100" d="M20 907q0 27 37 27q48 0 92 -2t89 -2t88 2t88 2q17 0 24.5 -6.5t7.5 -16.5q0 -19 -13.5 -24t-29.5 -9t-29.5 -13.5t-13.5 -37.5q0 -18 4.5 -36.5t14 -40t23.5 -49t32 -64.5l201 -410l113 287q19 48 30.5 83.5t17.5 62t8 47t3 38.5q1 41 -9.5 65.5t-27.5 39t-36.5 21 t-36.5 11t-28.5 10t-11.5 17.5q0 10 8.5 17.5t26.5 7.5q56 0 99.5 -2t87.5 -2q42 0 84 2t84 2q21 0 29.5 -5.5t8.5 -19.5q0 -10 -9 -14.5t-24.5 -10t-36.5 -16t-45 -33t-50 -60.5t-52 -99l-319 -746q-52 -123 -92.5 -195.5t-73 -110t-60 -48t-53.5 -10.5q-41 0 -68.5 16 t-44 40t-23.5 51t-7 48q0 41 22.5 70t65.5 29q26 0 41.5 -10.5t24.5 -26.5t14.5 -35t11.5 -35t15 -26.5t26 -10.5q11 0 22.5 9.5t22.5 25.5t22 35.5t21 40.5l107 227l-373 760q-24 49 -50.5 70.5t-48.5 30.5t-36.5 13t-14.5 19zM248 1176q0 21 6 39.5t18 32.5t30.5 22 t43.5 8q21 0 40 -8t34 -22t24 -32.5t9 -39.5q0 -22 -9 -40.5t-24 -32.5t-34 -22t-40 -8q-51 0 -74.5 29.5t-23.5 73.5zM649 1176q0 21 6 39.5t18 32.5t31 22t44 8q21 0 40 -8t33.5 -22t23.5 -32.5t9 -39.5q0 -22 -9 -40.5t-23.5 -32.5t-33.5 -22t-40 -8q-51 0 -75 29.5 t-24 73.5z" />
<glyph unicode="&#x152;" horiz-adv-x="2314" d="M94 694q0 109 29 205t79.5 177t118.5 145t146 108.5t161.5 68t164.5 23.5t155.5 -20t136.5 -52t108.5 -71t70.5 -78h4v193q94 0 191 -2t196 -2t195.5 2t189.5 2l127 -387q8 -26 11 -37t3 -19t-4.5 -13t-15.5 -5t-17.5 11.5t-17.5 39.5q-48 125 -111 197t-145 108 t-185.5 45.5t-232.5 9.5v-589q73 0 135 12.5t107 43t70.5 83t25.5 133.5q0 22 4 31.5t16 9.5q14 0 17.5 -9.5t3.5 -31.5v-602q0 -22 -3.5 -31.5t-17.5 -9.5q-12 0 -16 9.5t-4 31.5q0 84 -25.5 140t-70.5 90t-107 48.5t-135 14.5v-541q0 -34 7 -59t25 -41t48.5 -23.5 t77.5 -7.5q100 0 185.5 28.5t155 78t122 117t86.5 145.5q16 38 24 62.5t13 38.5t9 20t13 6q16 0 16 -19q0 -8 -5 -34.5t-13 -55.5l-107 -436q-102 0 -206.5 2t-212.5 2q-109 0 -214 -2t-208 -2v192h-4q-24 -38 -70.5 -77.5t-108.5 -71.5t-136.5 -52t-155.5 -20t-164.5 23.5 t-161.5 68t-146 108.5t-118.5 145t-79.5 177t-29 205zM319 694q0 -177 37.5 -304.5t102 -209.5t150.5 -121.5t184 -42.5q98 3 184 42.5t150 121.5t101.5 209.5t37.5 304.5t-37.5 304.5t-101.5 209.5t-150 122t-184 42q-98 -2 -184 -42t-150.5 -122t-102 -209.5t-37.5 -304.5 z" />
<glyph unicode="&#x153;" horiz-adv-x="1706" d="M74 465q0 95 36 182t99.5 153.5t150.5 106t189 39.5q109 0 200 -45t156 -121q63 75 151 120.5t199 45.5q100 0 175 -37.5t124.5 -99t74 -139t24.5 -158.5h-678q2 -77 21.5 -152.5t61.5 -135.5t107.5 -97t157.5 -37q53 0 94 15t72.5 38t54.5 49.5t40 49.5t28.5 38t19.5 15 q19 0 19 -23q0 -6 -9 -30t-28.5 -56t-51 -67.5t-76.5 -65.5t-105.5 -49.5t-137.5 -19.5q-102 0 -190.5 42t-151.5 117q-65 -74 -155.5 -116.5t-196.5 -42.5q-102 0 -189 39.5t-150.5 106t-99.5 153.5t-36 182zM270 465q0 -82 15 -160t48 -138.5t86 -97t130 -36.5t130 36.5 t86 97t47.5 138.5t14.5 160t-14.5 160t-47.5 138.5t-86 97t-130 36.5t-130 -36.5t-86 -97t-48 -138.5t-15 -160zM971 561h497q0 95 -14 161t-41.5 107.5t-67.5 60.5t-92 19q-54 0 -105 -27t-90 -74t-62.5 -110.5t-24.5 -136.5z" />
<glyph unicode="&#x178;" horiz-adv-x="1251" d="M10 1370q0 12 14 17.5t48 5.5q13 0 29 -0.5t38.5 -1.5t53 -1.5t71.5 -0.5q48 0 79.5 0.5t54.5 1.5t41 1.5t38 0.5q38 0 50 -4t12 -21q0 -12 -9.5 -16.5t-23.5 -7t-30.5 -5t-30.5 -9t-23.5 -19.5t-9.5 -37q0 -42 16 -85t47 -97l217 -381l178 280q38 57 61 114.5t23 102.5 q0 43 -9.5 68t-24 38t-32 18t-32.5 8t-26 7.5t-13 16.5q-2 15 10.5 22t44.5 7q16 0 32.5 -0.5t38.5 -1.5t52.5 -1.5t75.5 -0.5q33 0 57 0.5t43.5 1.5t35.5 1.5t34 0.5q26 0 36.5 -6.5t10.5 -20.5q0 -10 -9.5 -15t-27 -12t-43.5 -20.5t-59.5 -41t-74 -73t-87.5 -117.5 l-264 -405v-506q0 -44 13.5 -68.5t33.5 -36.5t43 -15.5t43 -6t33.5 -8t13.5 -21.5q0 -9 -6 -16.5t-20 -7.5q-19 0 -39 0.5t-48.5 1.5t-68 1.5t-96.5 0.5q-58 0 -97.5 -0.5t-68 -1.5t-48.5 -1.5t-38 -0.5q-14 0 -20.5 7.5t-6.5 16.5q0 16 13.5 21.5t33.5 8t43 6t43 15.5 t33.5 36.5t13.5 68.5v455l-323 590q-22 40 -45 63.5t-44.5 35.5t-40 16.5t-33 8t-22.5 8t-8 17.5zM324 1606q0 21 6 39.5t18 32.5t30.5 22t43.5 8q21 0 40 -8t33.5 -22t23.5 -32.5t9 -39.5q0 -22 -9 -40.5t-23.5 -32.5t-33.5 -22t-40 -8q-51 0 -74.5 29.5t-23.5 73.5z M725 1606q0 21 6 39.5t18 32.5t30.5 22t43.5 8q21 0 40.5 -8t34 -22t23.5 -32.5t9 -39.5q0 -22 -9 -40.5t-23.5 -32.5t-34 -22t-40.5 -8q-51 0 -74.5 29.5t-23.5 73.5z" />
<glyph unicode="&#x2c6;" horiz-adv-x="606" d="M-16 1040l254 340h127l258 -340h-72l-250 209l-248 -209h-69z" />
<glyph unicode="&#x2dc;" horiz-adv-x="606" d="M-35 1094q9 49 29 87t48.5 64t63.5 39.5t74 13.5q38 0 72.5 -11.5t66.5 -26.5q39 -19 74.5 -35.5t67.5 -16.5q29 0 48.5 9t33 24t22.5 33.5t17 36.5h59q0 -1 -3 -17.5t-11.5 -40.5t-23.5 -52t-39 -51.5t-57.5 -39.5t-78.5 -16q-51 0 -90.5 14t-73.5 31q-35 17 -65.5 32 t-61.5 15q-28 0 -47.5 -9.5t-32 -23.5t-20 -30t-12.5 -29h-60z" />
<glyph unicode="&#x2000;" horiz-adv-x="940" />
<glyph unicode="&#x2001;" horiz-adv-x="1880" />
<glyph unicode="&#x2002;" horiz-adv-x="940" />
<glyph unicode="&#x2003;" horiz-adv-x="1880" />
<glyph unicode="&#x2004;" horiz-adv-x="626" />
<glyph unicode="&#x2005;" horiz-adv-x="470" />
<glyph unicode="&#x2006;" horiz-adv-x="313" />
<glyph unicode="&#x2007;" horiz-adv-x="313" />
<glyph unicode="&#x2008;" horiz-adv-x="235" />
<glyph unicode="&#x2009;" horiz-adv-x="376" />
<glyph unicode="&#x200a;" horiz-adv-x="104" />
<glyph unicode="&#x2010;" d="M300 385v156h600v-156h-600z" />
<glyph unicode="&#x2011;" d="M300 385v156h600v-156h-600z" />
<glyph unicode="&#x2012;" d="M300 385v156h600v-156h-600z" />
<glyph unicode="&#x2013;" horiz-adv-x="1024" d="M0 406v118h1024v-118h-1024z" />
<glyph unicode="&#x2014;" horiz-adv-x="2048" d="M0 406v118h2048v-118h-2048z" />
<glyph unicode="&#x2018;" horiz-adv-x="620" d="M150 1118q0 45 13.5 91t35.5 90t48.5 82.5t52.5 67.5t48.5 45.5t35.5 16.5q8 0 14 -2.5t6 -13.5q0 -14 -24.5 -39t-53.5 -61t-53.5 -82.5t-24.5 -102.5q0 -24 6 -44.5t29 -26.5q17 -5 40.5 -8.5t45 -13.5t36.5 -29t15 -54q0 -21 -7.5 -40.5t-22.5 -34.5t-37 -24t-51 -9 q-36 0 -64.5 15t-48 40.5t-29.5 61t-10 75.5z" />
<glyph unicode="&#x2019;" horiz-adv-x="513" d="M150 1386q0 21 7.5 40.5t22.5 35t37.5 24.5t51.5 9q36 0 64 -15t47.5 -40.5t29.5 -60.5t10 -76q0 -45 -13.5 -91.5t-35.5 -90t-48.5 -82.5t-52.5 -67.5t-48 -45.5t-35 -17q-8 0 -14 3t-6 14q0 14 24 39t53.5 61t53.5 82t24 102q0 25 -6 45.5t-29 26.5q-17 5 -40.5 8.5 t-45 13t-36.5 28.5t-15 54z" />
<glyph unicode="&#x201a;" horiz-adv-x="455" d="M92 92q0 21 7.5 40.5t22.5 34.5t37.5 24.5t51.5 9.5q36 0 64 -15t47.5 -41t29.5 -61t10 -76q0 -45 -13.5 -91t-35.5 -90t-48.5 -82.5t-52.5 -67.5t-48 -45.5t-35 -16.5q-8 0 -14 2.5t-6 13.5q0 14 24 39t53.5 61t53.5 82.5t24 102.5q0 25 -6 45.5t-29 26.5q-17 4 -40.5 8 t-45 13.5t-36.5 28.5t-15 54z" />
<glyph unicode="&#x201c;" horiz-adv-x="1038" d="M150 1118q0 45 13.5 91t35.5 90t48.5 82.5t52.5 67.5t48.5 45.5t35.5 16.5q8 0 14 -2.5t6 -13.5q0 -14 -24.5 -39t-53.5 -61t-53.5 -82.5t-24.5 -102.5q0 -24 6 -44.5t29 -26.5q17 -5 40.5 -8.5t45 -13.5t36.5 -29t15 -54q0 -21 -7.5 -40.5t-22.5 -34.5t-37 -24t-51 -9 q-36 0 -64.5 15t-48 40.5t-29.5 61t-10 75.5zM568 1118q0 45 13.5 91t35.5 90t48.5 82.5t52.5 67.5t48 45.5t35 16.5q8 0 14.5 -2.5t6.5 -13.5q0 -14 -24.5 -39t-53.5 -61t-53.5 -82.5t-24.5 -102.5q0 -24 6 -44.5t29 -26.5q17 -5 40.5 -8.5t45 -13.5t36.5 -29t15 -54 q0 -21 -7.5 -40.5t-22.5 -34.5t-37.5 -24t-51.5 -9q-36 0 -64 15t-47.5 40.5t-29.5 61t-10 75.5z" />
<glyph unicode="&#x201d;" horiz-adv-x="1038" d="M150 1386q0 21 7.5 40.5t22.5 35t37.5 24.5t51.5 9q36 0 64 -15t47.5 -40.5t29.5 -60.5t10 -76q0 -45 -13.5 -91.5t-35.5 -90t-48.5 -82.5t-52.5 -67.5t-48 -45.5t-35 -17q-8 0 -14.5 3t-6.5 14q0 14 24.5 39t53.5 61t53.5 82t24.5 102q0 25 -6 45.5t-29 26.5 q-17 5 -40.5 8.5t-45 13t-36.5 28.5t-15 54zM568 1386q0 21 7.5 40.5t22.5 35t37.5 24.5t51.5 9q36 0 64 -15t47.5 -40.5t29.5 -60.5t10 -76q0 -45 -13.5 -91.5t-35.5 -90t-48.5 -82.5t-52.5 -67.5t-48 -45.5t-35 -17q-8 0 -14.5 3t-6.5 14q0 14 24.5 39t53.5 61t53.5 82 t24.5 102q0 25 -6 45.5t-29 26.5q-17 5 -40.5 8.5t-45 13t-36.5 28.5t-15 54z" />
<glyph unicode="&#x201e;" horiz-adv-x="948" d="M129 92q0 21 7.5 40.5t22.5 34.5t37.5 24.5t51.5 9.5q36 0 64 -15t47.5 -41t29.5 -61t10 -76q0 -45 -13.5 -91t-35.5 -90t-48.5 -82.5t-52.5 -67.5t-48 -45.5t-35 -16.5q-8 0 -14.5 2.5t-6.5 13.5q0 9 11.5 23.5t29 33.5t37.5 43.5t37.5 53t29 61.5t11.5 70q0 25 -6 45.5 t-29 26.5q-17 4 -40.5 8t-45 13.5t-36.5 28.5t-15 54zM547 92q0 21 7.5 40.5t22.5 34.5t37.5 24.5t51.5 9.5q36 0 64 -15t47.5 -41t29.5 -61t10 -76q0 -45 -13.5 -91t-35.5 -90t-48.5 -82.5t-52.5 -67.5t-48 -45.5t-35 -16.5q-8 0 -14.5 2.5t-6.5 13.5q0 9 11.5 23.5 t29 33.5t37.5 43.5t37.5 53t29 61.5t11.5 70q0 25 -6 45.5t-29 26.5q-17 4 -40.5 8t-45 13.5t-36.5 28.5t-15 54z" />
<glyph unicode="&#x2022;" horiz-adv-x="1042" d="M150 694q0 72 27.5 135t74.5 110t110 74t134 27t134 -27t110 -74t74.5 -110t27.5 -135q0 -71 -27.5 -134t-74.5 -110t-110 -74.5t-134 -27.5t-134 27.5t-110 74.5t-74.5 110t-27.5 134z" />
<glyph unicode="&#x25cf;" horiz-adv-x="1042" d="M150 694q0 72 27.5 135t74.5 110t110 74t134 27t134 -27t110 -74t74.5 -110t27.5 -135q0 -71 -27.5 -134t-74.5 -110t-110 -74.5t-134 -27.5t-134 27.5t-110 74.5t-74.5 110t-27.5 134z" />
<glyph unicode="&#x2026;" horiz-adv-x="1976" d="M150 172q0 24 9.5 44t24.5 34.5t34.5 22.5t39.5 8t39.5 -8t35 -22.5t25 -34.5t9.5 -44q0 -23 -9.5 -42.5t-25 -34t-35 -23t-39.5 -8.5t-39.5 8.5t-34.5 23t-24.5 34t-9.5 42.5zM829 172q0 24 9.5 44t25.5 34.5t35.5 22.5t40.5 8q20 0 39 -8t34 -22.5t24.5 -34.5t9.5 -44 q0 -23 -9.5 -42.5t-24.5 -34t-34 -23t-39 -8.5q-21 0 -40.5 8.5t-35.5 23t-25.5 34t-9.5 42.5zM1509 172q0 24 9.5 44t25 34.5t35 22.5t39.5 8q21 0 40.5 -8t34.5 -22.5t24 -34.5t9 -44q0 -23 -9 -42.5t-24 -34t-34.5 -23t-40.5 -8.5q-20 0 -39.5 8.5t-35 23t-25 34 t-9.5 42.5z" />
<glyph unicode="&#x202f;" horiz-adv-x="376" />
<glyph unicode="&#x2039;" horiz-adv-x="777" d="M150 465q0 28 18 49l306 315q6 7 13.5 12t16.5 5q8 0 15.5 -6t7.5 -17q0 -9 -4.5 -17t-9.5 -13l-246 -328l246 -328q5 -5 9.5 -13t4.5 -18q0 -11 -7.5 -16.5t-15.5 -5.5q-9 0 -16.5 5t-13.5 11l-306 316q-9 11 -13.5 22t-4.5 27z" />
<glyph unicode="&#x203a;" horiz-adv-x="777" d="M150 106q0 10 4.5 18t9.5 13l246 328l-246 328q-5 5 -9.5 13t-4.5 17q0 11 7.5 17t15.5 6q9 0 16.5 -5t13.5 -12l305 -315q19 -20 19 -49t-19 -49l-305 -316q-6 -6 -13.5 -11t-16.5 -5q-8 0 -15.5 5.5t-7.5 16.5z" />
<glyph unicode="&#x205f;" horiz-adv-x="470" />
<glyph unicode="&#x20ac;" horiz-adv-x="1524" d="M-1 514l49 122h136q-2 10 -2 18v17v25v25v17q0 9 2 18h-185l49 122h153q42 191 177 335q197 209 485 209t491 -215l-50 -123q-188 217 -441 217q-238 0 -402 -176q-51 -54 -86.5 -116t-54.5 -131h903l-47 -122h-878q-1 -15 -1.5 -29.5t-0.5 -30.5q0 -17 0.5 -31t1.5 -29 h830l-50 -122h-758q19 -69 54.5 -131t86.5 -116q164 -176 402 -176q258 0 441 221v-178q-178 -164 -441 -164q-288 0 -485 209q-135 144 -177 335h-202z" />
<glyph unicode="&#x2122;" horiz-adv-x="2028" d="M72 1202v187h694v-187h-41q-6 28 -16 53t-26 43.5t-38.5 29.5t-54.5 11h-101v-591q1 -38 2 -58.5t10 -30.5t29.5 -13t59.5 -7v-49h-338v49q38 4 58 7t29 13t10 30.5t1 58.5v591h-98q-32 0 -55.5 -11t-39.5 -29.5t-26.5 -43.5t-17.5 -53h-41zM860 1339v50h256l301 -584 l316 584h221v-50q-66 -3 -90.5 -32.5t-24.5 -81.5v-477q0 -38 1 -58.5t10 -30.5t29.5 -13t59.5 -7v-49h-333v49q37 4 56.5 7.5t28.5 14.5t10 34t-1 65v411h-4l-310 -589h-18l-311 616h-4v-434q0 -32 4 -54.5t16 -37t32.5 -22.5t53.5 -11v-49h-266v49q33 3 53 11t31 22.5 t14.5 37t3.5 54.5v475q0 22 -13 40.5t-33 31.5t-43.5 20.5t-45.5 7.5z" />
<glyph unicode="&#xe000;" horiz-adv-x="935" d="M0 935h935v-935h-935v935z" />
<glyph unicode="&#xfb01;" horiz-adv-x="1176" d="M33 20q0 14 11 19.5t28 8.5t36.5 6t36.5 12t28 27t11 50v697h-151q51 15 86.5 53.5t63 90.5t49.5 113.5t45.5 123.5t52 119.5t67.5 102t93 71t128 26.5q62 0 107.5 -19t75.5 -48.5t44.5 -64t14.5 -65.5q0 -29 -8.5 -53t-22.5 -41.5t-33.5 -27t-41.5 -9.5t-40 5t-31 17 t-20.5 32t-7.5 49q0 28 4.5 51t4.5 43q0 34 -21 58t-74 24q-38 0 -74 -20.5t-64 -68t-45 -124t-17 -188.5v-160h243q91 0 182.5 0.5t188.5 3.5v-791q0 -32 11.5 -50t28 -27t36.5 -12t36.5 -6t28 -8.5t11.5 -19.5t-8 -19t-25 -5q-19 0 -38.5 0.5t-43.5 1.5t-55.5 1.5 t-73.5 0.5t-73.5 -0.5t-55.5 -1.5t-43.5 -1.5t-38.5 -0.5q-17 0 -25 5t-8 19t11.5 19.5t28 8.5t36.5 6t36.5 12t28 27t11.5 50v574q0 24 -6 46.5t-20 39.5t-36.5 27t-56.5 10h-311v-697q0 -32 11 -50t28 -27t36.5 -12t36.5 -6t28 -8.5t11 -19.5t-8 -19t-25 -5 q-19 0 -38.5 0.5t-43.5 1.5t-55.5 1.5t-73.5 0.5t-73 -0.5t-55 -1.5t-43.5 -1.5t-38.5 -0.5q-17 0 -25 5t-8 19z" />
<glyph unicode="&#xfb02;" horiz-adv-x="1176" d="M33 20q0 14 11 19.5t28 8.5t36.5 6t36.5 12t28 27t11 50v697h-151q51 15 86.5 53.5t63 90.5t49.5 113.5t45.5 123.5t52 119.5t67.5 102t93 71t128 26.5q76 0 128.5 -29.5t84.5 -72.5q22 6 61.5 20t90.5 37v-1352q0 -32 11.5 -50t28 -27t36.5 -12t36.5 -6t28 -8.5 t11.5 -19.5t-8 -19t-25 -5q-19 0 -38.5 0.5t-43.5 1.5t-55.5 1.5t-73.5 0.5t-73.5 -0.5t-55.5 -1.5t-43.5 -1.5t-38.5 -0.5q-17 0 -25 5t-8 19t11.5 19.5t28 8.5t36.5 6t36.5 12t28 27t11.5 50v1084q-14 -6 -27 -10.5t-27 -4.5q-37 0 -63.5 22.5t-26.5 80.5q0 28 4.5 51 t4.5 43q0 34 -21 58t-74 24q-38 0 -74 -20.5t-64 -68t-45 -124t-17 -188.5v-160h243l-34 -90h-209v-697q0 -32 11 -50t28 -27t36.5 -12t36.5 -6t28 -8.5t11 -19.5t-8 -19t-25 -5q-19 0 -38.5 0.5t-43.5 1.5t-55.5 1.5t-73.5 0.5t-73 -0.5t-55 -1.5t-43.5 -1.5t-38.5 -0.5 q-17 0 -25 5t-8 19z" />
<glyph unicode="&#xfb03;" horiz-adv-x="1818" d="M1271 20q0 14 11.5 19.5t28 8.5t36.5 6t36.5 12t28 27t11.5 50v566q0 34 -11.5 53.5t-28 29.5t-36.5 13.5t-36.5 6.5t-28 7.5t-11.5 16.5q0 14 12.5 17.5t49 10.5t102.5 24.5t172 57.5v-803q0 -32 11.5 -50t28 -27t36.5 -12t36.5 -6t28 -8.5t11.5 -19.5t-8 -19t-25 -5 q-19 0 -38.5 0.5t-43.5 1.5t-55.5 1.5t-73.5 0.5t-73.5 -0.5t-55.5 -1.5t-43.5 -1.5t-38.5 -0.5q-17 0 -25 5t-8 19zM1386 1198q0 51 28 82t85 31t84.5 -31t27.5 -82t-27.5 -82t-84.5 -31t-85 31t-28 82zM639 20q0 14 11 19.5t28 8.5t36.5 6t36.5 12t28 27t11 50v697h-151 q49 15 79 53t48.5 90t30.5 113.5t24.5 123.5t30.5 119.5t50 102t81.5 71.5t124.5 27q42 0 73 -14t52 -37.5t31 -54t10 -62.5q0 -62 -30.5 -99.5t-74.5 -37.5q-32 0 -56 24t-24 80q0 31 8.5 55t8.5 44q0 21 -12.5 38.5t-36.5 14.5q-25 -3 -43.5 -23t-32 -49t-21.5 -63.5 t-13 -68.5t-7 -63t-2 -46q0 -36 4 -65.5t9.5 -58t12 -58.5t11.5 -66h217l-29 -90h-188v-697q0 -32 11 -50t28 -27t36.5 -12t36.5 -6t28 -8.5t11 -19.5t-8 -19t-25 -5q-19 0 -38.5 0.5t-43.5 1.5t-55.5 1.5t-73.5 0.5t-73 -0.5t-55 -1.5t-43.5 -1.5t-38.5 -0.5q-17 0 -25 5 t-8 19zM33 20q0 14 11 19.5t28 8.5t36.5 6t36.5 12t28 27t11 50v697h-151q49 15 79 53t48.5 90t30.5 113.5t24.5 123.5t30.5 119.5t50 102t81.5 71.5t124.5 27q42 0 73 -14t52 -37.5t31 -54t10 -62.5q0 -62 -30.5 -99.5t-74.5 -37.5q-32 0 -56 24t-24 80q0 31 8.5 55t8.5 44 q0 21 -12.5 38.5t-36.5 14.5q-25 -3 -43.5 -23t-32 -49t-21.5 -63.5t-13 -68.5t-7 -63t-2 -46q0 -36 4 -65.5t9.5 -58t12 -58.5t11.5 -66h217l-29 -90h-188v-697q0 -32 11 -50t28 -27t36.5 -12t36.5 -6t28 -8.5t11 -19.5t-8 -19t-25 -5q-19 0 -38.5 0.5t-43.5 1.5t-55.5 1.5 t-73.5 0.5t-73 -0.5t-55 -1.5t-43.5 -1.5t-38.5 -0.5q-17 0 -25 5t-8 19z" />
</font>
</defs>
</svg>
